%TF.GenerationSoftware,KiCad,Pcbnew,9.0.0*%
%TF.CreationDate,2025-04-04T09:07:06-04:00*%
%TF.ProjectId,RTC-Link2,5254432d-4c69-46e6-9b32-2e6b69636164,1.1*%
%TF.SameCoordinates,Original*%
%TF.FileFunction,Copper,L1,Top*%
%TF.FilePolarity,Positive*%
%FSLAX46Y46*%
G04 Gerber Fmt 4.6, Leading zero omitted, Abs format (unit mm)*
G04 Created by KiCad (PCBNEW 9.0.0) date 2025-04-04 09:07:06*
%MOMM*%
%LPD*%
G01*
G04 APERTURE LIST*
%TA.AperFunction,ComponentPad*%
%ADD10R,1.600000X2.400000*%
%TD*%
%TA.AperFunction,ComponentPad*%
%ADD11O,1.600000X2.400000*%
%TD*%
%TA.AperFunction,ComponentPad*%
%ADD12C,1.400000*%
%TD*%
%TA.AperFunction,ComponentPad*%
%ADD13O,1.400000X1.400000*%
%TD*%
%TA.AperFunction,ComponentPad*%
%ADD14R,1.600000X1.600000*%
%TD*%
%TA.AperFunction,ComponentPad*%
%ADD15O,1.600000X1.600000*%
%TD*%
%TA.AperFunction,ConnectorPad*%
%ADD16R,7.620000X1.524000*%
%TD*%
%TA.AperFunction,ConnectorPad*%
%ADD17R,1.524000X7.620000*%
%TD*%
%TA.AperFunction,ConnectorPad*%
%ADD18R,2.286000X8.000000*%
%TD*%
%TA.AperFunction,ComponentPad*%
%ADD19C,1.600000*%
%TD*%
%TA.AperFunction,ComponentPad*%
%ADD20R,1.700000X1.700000*%
%TD*%
%TA.AperFunction,ViaPad*%
%ADD21C,0.800000*%
%TD*%
%TA.AperFunction,Conductor*%
%ADD22C,1.000000*%
%TD*%
%TA.AperFunction,Conductor*%
%ADD23C,0.600000*%
%TD*%
%TA.AperFunction,Conductor*%
%ADD24C,0.300000*%
%TD*%
%TA.AperFunction,Conductor*%
%ADD25C,0.250000*%
%TD*%
G04 APERTURE END LIST*
D10*
%TO.P,U2,1*%
%TO.N,R{slash}~{W}*%
X125476000Y-103378000D03*
D11*
%TO.P,U2,2*%
%TO.N,Net-(U2-Pad2)*%
X128016000Y-103378000D03*
%TO.P,U2,3*%
%TO.N,Net-(J2-Pin_1)*%
X130556000Y-103378000D03*
%TO.P,U2,4*%
%TO.N,A15*%
X133096000Y-103378000D03*
%TO.P,U2,5*%
%TO.N,A14*%
X135636000Y-103378000D03*
%TO.P,U2,6*%
%TO.N,A13*%
X138176000Y-103378000D03*
%TO.P,U2,7,GND*%
%TO.N,GND*%
X140716000Y-103378000D03*
%TO.P,U2,8*%
%TO.N,~{GAME}*%
X140716000Y-95758000D03*
%TO.P,U2,9*%
%TO.N,N/C*%
X138176000Y-95758000D03*
%TO.P,U2,10*%
X135636000Y-95758000D03*
%TO.P,U2,11*%
%TO.N,Net-(U2-Pad11)*%
X133096000Y-95758000D03*
%TO.P,U2,12*%
%TO.N,5V*%
X130556000Y-95758000D03*
%TO.P,U2,13*%
%TO.N,N/C*%
X128016000Y-95758000D03*
%TO.P,U2,14,VCC*%
%TO.N,5V*%
X125476000Y-95758000D03*
%TD*%
D12*
%TO.P,R2,1*%
%TO.N,PB2*%
X138000000Y-57000000D03*
D13*
%TO.P,R2,2*%
%TO.N,5V*%
X138000000Y-64620000D03*
%TD*%
D14*
%TO.P,U1,1,VSS*%
%TO.N,GND*%
X175768000Y-74676000D03*
D15*
%TO.P,U1,2,PA0*%
%TO.N,PA0*%
X173228000Y-74676000D03*
%TO.P,U1,3,PA1*%
%TO.N,PA1*%
X170688000Y-74676000D03*
%TO.P,U1,4,PA2*%
%TO.N,PA2*%
X168148000Y-74676000D03*
%TO.P,U1,5,PA3*%
%TO.N,PA3*%
X165608000Y-74676000D03*
%TO.P,U1,6,PA4*%
%TO.N,PA4*%
X163068000Y-74676000D03*
%TO.P,U1,7,PA5*%
%TO.N,PA5*%
X160528000Y-74676000D03*
%TO.P,U1,8,PA6*%
%TO.N,PA6*%
X157988000Y-74676000D03*
%TO.P,U1,9,PA7*%
%TO.N,PA7*%
X155448000Y-74676000D03*
%TO.P,U1,10,PB0*%
%TO.N,PB0*%
X152908000Y-74676000D03*
%TO.P,U1,11,PB1*%
%TO.N,PB1*%
X150368000Y-74676000D03*
%TO.P,U1,12,PB2*%
%TO.N,PB2*%
X147828000Y-74676000D03*
%TO.P,U1,13,PB3*%
%TO.N,PB3*%
X145288000Y-74676000D03*
%TO.P,U1,14,PB4*%
%TO.N,PB4*%
X142748000Y-74676000D03*
%TO.P,U1,15,PB5*%
%TO.N,PB5*%
X140208000Y-74676000D03*
%TO.P,U1,16,PB6*%
%TO.N,PB6*%
X137668000Y-74676000D03*
%TO.P,U1,17,PB7*%
%TO.N,PB7*%
X135128000Y-74676000D03*
%TO.P,U1,18,CB1*%
%TO.N,unconnected-(U1-CB1-Pad18)*%
X132588000Y-74676000D03*
%TO.P,U1,19,CB2*%
%TO.N,unconnected-(U1-CB2-Pad19)*%
X130048000Y-74676000D03*
%TO.P,U1,20,VCC*%
%TO.N,5V*%
X127508000Y-74676000D03*
%TO.P,U1,21,R/~{W}*%
%TO.N,R{slash}~{W}*%
X127508000Y-89916000D03*
%TO.P,U1,22,CS0*%
%TO.N,5V*%
X130048000Y-89916000D03*
%TO.P,U1,23,~{CS2}*%
%TO.N,~{IO1}*%
X132588000Y-89916000D03*
%TO.P,U1,24,CS1*%
%TO.N,5V*%
X135128000Y-89916000D03*
%TO.P,U1,25,ENABLE*%
%TO.N,PHI2*%
X137668000Y-89916000D03*
%TO.P,U1,26,D7*%
%TO.N,D7*%
X140208000Y-89916000D03*
%TO.P,U1,27,D6*%
%TO.N,D6*%
X142748000Y-89916000D03*
%TO.P,U1,28,D5*%
%TO.N,D5*%
X145288000Y-89916000D03*
%TO.P,U1,29,D4*%
%TO.N,D4*%
X147828000Y-89916000D03*
%TO.P,U1,30,D3*%
%TO.N,D3*%
X150368000Y-89916000D03*
%TO.P,U1,31,D2*%
%TO.N,D2*%
X152908000Y-89916000D03*
%TO.P,U1,32,D1*%
%TO.N,D1*%
X155448000Y-89916000D03*
%TO.P,U1,33,D0*%
%TO.N,D0*%
X157988000Y-89916000D03*
%TO.P,U1,34,~{RESET}*%
%TO.N,~{RESET}*%
X160528000Y-89916000D03*
%TO.P,U1,35,RS1*%
%TO.N,A1*%
X163068000Y-89916000D03*
%TO.P,U1,36,RS0*%
%TO.N,A0*%
X165608000Y-89916000D03*
%TO.P,U1,37,~{IRQB}*%
%TO.N,unconnected-(U1-~{IRQB}-Pad37)*%
X168148000Y-89916000D03*
%TO.P,U1,38,~{IRQA}*%
%TO.N,unconnected-(U1-~{IRQA}-Pad38)*%
X170688000Y-89916000D03*
%TO.P,U1,39,CA2*%
%TO.N,CA2*%
X173228000Y-89916000D03*
%TO.P,U1,40,CA1*%
%TO.N,CA1*%
X175768000Y-89916000D03*
%TD*%
D16*
%TO.P,J1,1,Pin_1*%
%TO.N,GND*%
X189200000Y-79750000D03*
%TO.P,J1,2,Pin_2*%
%TO.N,PA7*%
X189200000Y-77210000D03*
%TO.P,J1,3,Pin_3*%
%TO.N,PA5*%
X189200000Y-74670000D03*
%TO.P,J1,4,Pin_4*%
%TO.N,PA3*%
X189200000Y-72130000D03*
%TO.P,J1,5,Pin_5*%
%TO.N,PA1*%
X189200000Y-69590000D03*
%TO.P,J1,6,Pin_6*%
%TO.N,PB1*%
X189200000Y-67050000D03*
%TO.P,J1,7,Pin_7*%
%TO.N,GND*%
X189200000Y-64510000D03*
%TD*%
D17*
%TO.P,P1,1,GND*%
%TO.N,GND*%
X125660000Y-113000000D03*
%TO.P,P1,2,+5V*%
%TO.N,5V*%
X128200000Y-113000000D03*
%TO.P,P1,3,+5V*%
X130740000Y-113000000D03*
%TO.P,P1,4,~{IRQ}*%
%TO.N,~{IRQ}*%
X133280000Y-113000000D03*
%TO.P,P1,5,R/~{W}*%
%TO.N,R{slash}~{W}*%
X135820000Y-113000000D03*
%TO.P,P1,6,DOTCLK*%
%TO.N,unconnected-(P1-DOTCLK-Pad6)*%
X138360000Y-113000000D03*
%TO.P,P1,7,~{I/O1}*%
%TO.N,~{IO1}*%
X140900000Y-113000000D03*
%TO.P,P1,8,~{GAME}*%
%TO.N,~{GAME}*%
X143440000Y-113000000D03*
%TO.P,P1,9,~{EXROM}*%
%TO.N,unconnected-(P1-~{EXROM}-Pad9)*%
X145980000Y-113000000D03*
%TO.P,P1,10,~{I/O2}*%
%TO.N,unconnected-(P1-~{I{slash}O2}-Pad10)*%
X148520000Y-113000000D03*
%TO.P,P1,11,~{ROML}*%
%TO.N,unconnected-(P1-~{ROML}-Pad11)*%
X151060000Y-113000000D03*
%TO.P,P1,12,BA*%
%TO.N,unconnected-(P1-BA-Pad12)*%
X153600000Y-113000000D03*
%TO.P,P1,13,~{DMA}*%
%TO.N,unconnected-(P1-~{DMA}-Pad13)*%
X156140000Y-113000000D03*
%TO.P,P1,14,D7*%
%TO.N,D7*%
X158680000Y-113000000D03*
%TO.P,P1,15,D6*%
%TO.N,D6*%
X161220000Y-113000000D03*
%TO.P,P1,16,D5*%
%TO.N,D5*%
X163760000Y-113000000D03*
%TO.P,P1,17,D4*%
%TO.N,D4*%
X166300000Y-113000000D03*
%TO.P,P1,18,D3*%
%TO.N,D3*%
X168840000Y-113000000D03*
%TO.P,P1,19,D2*%
%TO.N,D2*%
X171380000Y-113000000D03*
%TO.P,P1,20,D1*%
%TO.N,D1*%
X173920000Y-113000000D03*
%TO.P,P1,21,D0*%
%TO.N,D0*%
X176460000Y-113000000D03*
%TO.P,P1,22,GND*%
%TO.N,GND*%
X179000000Y-113000000D03*
%TD*%
D12*
%TO.P,R6,1*%
%TO.N,PB4*%
X158000000Y-57000000D03*
D13*
%TO.P,R6,2*%
%TO.N,5V*%
X158000000Y-64620000D03*
%TD*%
D12*
%TO.P,R3,1*%
%TO.N,PB7*%
X146000000Y-57000000D03*
D13*
%TO.P,R3,2*%
%TO.N,5V*%
X146000000Y-64620000D03*
%TD*%
D12*
%TO.P,R4,1*%
%TO.N,PB6*%
X150000000Y-57000000D03*
D13*
%TO.P,R4,2*%
%TO.N,5V*%
X150000000Y-64620000D03*
%TD*%
D18*
%TO.P,CN1,1*%
%TO.N,PA0*%
X173585000Y-50200000D03*
%TO.P,CN1,2*%
%TO.N,PA1*%
X169625000Y-50200000D03*
%TO.P,CN1,3*%
%TO.N,PA2*%
X165665000Y-50200000D03*
%TO.P,CN1,4*%
%TO.N,PA3*%
X161705000Y-50200000D03*
%TO.P,CN1,5*%
%TO.N,PB4*%
X157745000Y-50200000D03*
%TO.P,CN1,6*%
%TO.N,PB5*%
X153785000Y-50200000D03*
%TO.P,CN1,7*%
%TO.N,PB6*%
X149825000Y-50200000D03*
%TO.P,CN1,8*%
%TO.N,PB7*%
X145865000Y-50200000D03*
%TO.P,CN1,9*%
%TO.N,PB3*%
X141905000Y-50200000D03*
%TO.P,CN1,10*%
%TO.N,PB2*%
X137945000Y-50200000D03*
%TO.P,CN1,11*%
%TO.N,CA2*%
X133985000Y-50200000D03*
%TO.P,CN1,12*%
%TO.N,GND*%
X130025000Y-50200000D03*
%TD*%
D12*
%TO.P,R5,1*%
%TO.N,PB5*%
X154000000Y-57000000D03*
D13*
%TO.P,R5,2*%
%TO.N,5V*%
X154000000Y-64620000D03*
%TD*%
D12*
%TO.P,R1,1*%
%TO.N,CA2*%
X134000000Y-57000000D03*
D13*
%TO.P,R1,2*%
%TO.N,5V*%
X134000000Y-64620000D03*
%TD*%
D12*
%TO.P,R10,1*%
%TO.N,5V*%
X129286000Y-92964000D03*
D13*
%TO.P,R10,2*%
%TO.N,Net-(J2-Pin_1)*%
X129286000Y-100584000D03*
%TD*%
D14*
%TO.P,U4,1,VPP*%
%TO.N,5V*%
X142748000Y-85852000D03*
D15*
%TO.P,U4,2,A12*%
%TO.N,PB0*%
X145288000Y-85852000D03*
%TO.P,U4,3,A7*%
%TO.N,A7*%
X147828000Y-85852000D03*
%TO.P,U4,4,A6*%
%TO.N,A6*%
X150368000Y-85852000D03*
%TO.P,U4,5,A5*%
%TO.N,A5*%
X152908000Y-85852000D03*
%TO.P,U4,6,A4*%
%TO.N,A4*%
X155448000Y-85852000D03*
%TO.P,U4,7,A3*%
%TO.N,A3*%
X157988000Y-85852000D03*
%TO.P,U4,8,A2*%
%TO.N,A2*%
X160528000Y-85852000D03*
%TO.P,U4,9,A1*%
%TO.N,A1*%
X163068000Y-85852000D03*
%TO.P,U4,10,A0*%
%TO.N,A0*%
X165608000Y-85852000D03*
%TO.P,U4,11,D0*%
%TO.N,D0*%
X168148000Y-85852000D03*
%TO.P,U4,12,D1*%
%TO.N,D1*%
X170688000Y-85852000D03*
%TO.P,U4,13,D2*%
%TO.N,D2*%
X173228000Y-85852000D03*
%TO.P,U4,14,GND*%
%TO.N,GND*%
X175768000Y-85852000D03*
%TO.P,U4,15,D3*%
%TO.N,D3*%
X175768000Y-101092000D03*
%TO.P,U4,16,D4*%
%TO.N,D4*%
X173228000Y-101092000D03*
%TO.P,U4,17,D5*%
%TO.N,D5*%
X170688000Y-101092000D03*
%TO.P,U4,18,D6*%
%TO.N,D6*%
X168148000Y-101092000D03*
%TO.P,U4,19,D7*%
%TO.N,D7*%
X165608000Y-101092000D03*
%TO.P,U4,20,~{CE}*%
%TO.N,~{GAME}*%
X163068000Y-101092000D03*
%TO.P,U4,21,A10*%
%TO.N,A10*%
X160528000Y-101092000D03*
%TO.P,U4,22,~{OE}*%
%TO.N,~{GAME}*%
X157988000Y-101092000D03*
%TO.P,U4,23,A11*%
%TO.N,A11*%
X155448000Y-101092000D03*
%TO.P,U4,24,A9*%
%TO.N,A9*%
X152908000Y-101092000D03*
%TO.P,U4,25,A8*%
%TO.N,A8*%
X150368000Y-101092000D03*
%TO.P,U4,26,NC*%
%TO.N,unconnected-(U4-NC-Pad26)*%
X147828000Y-101092000D03*
%TO.P,U4,27,~{PGM}*%
%TO.N,5V*%
X145288000Y-101092000D03*
%TO.P,U4,28,VCC*%
X142748000Y-101092000D03*
%TD*%
D19*
%TO.P,C1,1*%
%TO.N,5V*%
X128738000Y-78740000D03*
%TO.P,C1,2*%
%TO.N,GND*%
X126238000Y-78740000D03*
%TD*%
D20*
%TO.P,J3,1,Pin_1*%
%TO.N,Net-(J3-Pin_1)*%
X132588000Y-83312000D03*
%TD*%
D12*
%TO.P,R7,1*%
%TO.N,5V*%
X129794000Y-81026000D03*
D13*
%TO.P,R7,2*%
%TO.N,Net-(J3-Pin_1)*%
X137414000Y-81026000D03*
%TD*%
D20*
%TO.P,J2,1,Pin_1*%
%TO.N,Net-(J2-Pin_1)*%
X130556000Y-105918000D03*
%TD*%
D12*
%TO.P,R9,1*%
%TO.N,5V*%
X130810000Y-86360000D03*
D13*
%TO.P,R9,2*%
%TO.N,PB0*%
X138430000Y-86360000D03*
%TD*%
D12*
%TO.P,R8,1*%
%TO.N,5V*%
X142748000Y-83312000D03*
D13*
%TO.P,R8,2*%
%TO.N,Net-(J3-Pin_1)*%
X135128000Y-83312000D03*
%TD*%
D10*
%TO.P,U3,1*%
%TO.N,unconnected-(U3-Pad1)*%
X132588000Y-69850000D03*
D11*
%TO.P,U3,2*%
%TO.N,unconnected-(U3-Pad2)*%
X135128000Y-69850000D03*
%TO.P,U3,3*%
%TO.N,unconnected-(U3-Pad3)*%
X137668000Y-69850000D03*
%TO.P,U3,4*%
%TO.N,A12*%
X140208000Y-69850000D03*
%TO.P,U3,5*%
X142748000Y-69850000D03*
%TO.P,U3,6*%
%TO.N,Net-(U2-Pad11)*%
X145288000Y-69850000D03*
%TO.P,U3,7,GND*%
%TO.N,GND*%
X147828000Y-69850000D03*
%TO.P,U3,8*%
%TO.N,Net-(U2-Pad2)*%
X147828000Y-77470000D03*
%TO.P,U3,9*%
%TO.N,PB0*%
X145288000Y-77470000D03*
%TO.P,U3,10*%
%TO.N,Net-(U3-Pad10)*%
X142748000Y-77470000D03*
%TO.P,U3,11*%
X140208000Y-77470000D03*
%TO.P,U3,12*%
%TO.N,Net-(J3-Pin_1)*%
X137668000Y-77470000D03*
%TO.P,U3,13*%
X135128000Y-77470000D03*
%TO.P,U3,14,VCC*%
%TO.N,5V*%
X132588000Y-77470000D03*
%TD*%
D21*
%TO.N,GND*%
X180086000Y-85852000D03*
X179000000Y-107766000D03*
X183896000Y-64510000D03*
X160274000Y-56642000D03*
X130025000Y-54864000D03*
X164820000Y-65550000D03*
X124206000Y-99822000D03*
X183896000Y-79750000D03*
%TO.N,A12*%
X146304000Y-87884000D03*
%TO.N,PB1*%
X164084000Y-69596000D03*
X176784000Y-62230000D03*
%TO.N,CA2*%
X156000000Y-62000000D03*
%TD*%
D22*
%TO.N,GND*%
X122174000Y-107950000D02*
X119888000Y-105664000D01*
X130025000Y-58951000D02*
X130025000Y-50200000D01*
X163830000Y-60198000D02*
X160274000Y-56642000D01*
X138176000Y-99060000D02*
X124968000Y-99060000D01*
X183896000Y-79750000D02*
X189200000Y-79750000D01*
X177292000Y-60706000D02*
X175768000Y-60706000D01*
X181864000Y-93472000D02*
X180086000Y-91694000D01*
X180086000Y-91694000D02*
X180086000Y-85852000D01*
X174498000Y-61976000D02*
X174498000Y-71374000D01*
X125660000Y-113000000D02*
X125660000Y-108896000D01*
X163830000Y-64560000D02*
X163830000Y-60198000D01*
X179000000Y-107766000D02*
X179000000Y-113000000D01*
X181096000Y-64510000D02*
X177292000Y-60706000D01*
X175768000Y-72644000D02*
X175768000Y-74676000D01*
X181864000Y-104902000D02*
X181864000Y-93472000D01*
X124714000Y-89662000D02*
X124714000Y-78740000D01*
X189200000Y-64510000D02*
X183896000Y-64510000D01*
X124714000Y-64262000D02*
X130025000Y-58951000D01*
X180086000Y-85852000D02*
X175768000Y-85852000D01*
X124714000Y-78740000D02*
X126238000Y-78740000D01*
X119888000Y-105664000D02*
X119888000Y-94488000D01*
X183896000Y-64510000D02*
X181096000Y-64510000D01*
X125660000Y-108896000D02*
X124714000Y-107950000D01*
X140716000Y-101600000D02*
X138176000Y-99060000D01*
X180086000Y-81280000D02*
X181616000Y-79750000D01*
X124714000Y-78740000D02*
X124714000Y-64262000D01*
X124714000Y-107950000D02*
X122174000Y-107950000D01*
X140716000Y-103378000D02*
X140716000Y-101600000D01*
X180086000Y-85852000D02*
X180086000Y-81280000D01*
X164820000Y-65550000D02*
X163830000Y-64560000D01*
X175768000Y-60706000D02*
X174498000Y-61976000D01*
X179000000Y-107766000D02*
X181864000Y-104902000D01*
X124968000Y-99060000D02*
X124206000Y-99822000D01*
X174498000Y-71374000D02*
X175768000Y-72644000D01*
X119888000Y-94488000D02*
X124714000Y-89662000D01*
X181616000Y-79750000D02*
X183896000Y-79750000D01*
%TO.N,5V*%
X130048000Y-89916000D02*
X130048000Y-92202000D01*
X130048000Y-67310000D02*
X130048000Y-71374000D01*
X127508000Y-73914000D02*
X127508000Y-74676000D01*
X128200000Y-109150000D02*
X127508000Y-108458000D01*
X123444000Y-95758000D02*
X125476000Y-95758000D01*
D23*
X130556000Y-96520000D02*
X132080000Y-98044000D01*
D22*
X122174000Y-97028000D02*
X123444000Y-95758000D01*
X130008000Y-77470000D02*
X132588000Y-77470000D01*
X128200000Y-113000000D02*
X128200000Y-109150000D01*
X129794000Y-81026000D02*
X127938001Y-81026000D01*
X130048000Y-87122000D02*
X130048000Y-89916000D01*
X128738000Y-78740000D02*
X130008000Y-77470000D01*
X130740000Y-108896000D02*
X130740000Y-113000000D01*
X127508000Y-108458000D02*
X125222000Y-106172000D01*
X129286000Y-92964000D02*
X126492000Y-92964000D01*
X123190000Y-106172000D02*
X122174000Y-105156000D01*
X142748000Y-83312000D02*
X142748000Y-85852000D01*
X138430000Y-83312000D02*
X142748000Y-83312000D01*
D23*
X132080000Y-98044000D02*
X139700000Y-98044000D01*
D22*
X127938001Y-81026000D02*
X127938001Y-79539999D01*
X130048000Y-71374000D02*
X127508000Y-73914000D01*
X130810000Y-86360000D02*
X135382000Y-86360000D01*
X158000000Y-64620000D02*
X154000000Y-64620000D01*
X134000000Y-64620000D02*
X132842000Y-64620000D01*
X142748000Y-101092000D02*
X145288000Y-101092000D01*
X135382000Y-86360000D02*
X136652000Y-85090000D01*
X130810000Y-86360000D02*
X127938001Y-83488001D01*
X135382000Y-86360000D02*
X135128000Y-86614000D01*
X130048000Y-92202000D02*
X129286000Y-92964000D01*
X122174000Y-105156000D02*
X122174000Y-97028000D01*
X128738000Y-77430000D02*
X128738000Y-78740000D01*
X138000000Y-64620000D02*
X134000000Y-64620000D01*
X136652000Y-85090000D02*
X138430000Y-83312000D01*
X146000000Y-64620000D02*
X138000000Y-64620000D01*
X154000000Y-64620000D02*
X150000000Y-64620000D01*
X130810000Y-86360000D02*
X130048000Y-87122000D01*
X130556000Y-94234000D02*
X130556000Y-95758000D01*
X127508000Y-74676000D02*
X127508000Y-76200000D01*
X125476000Y-93980000D02*
X125476000Y-95758000D01*
X127938001Y-83488001D02*
X127938001Y-81026000D01*
X127508000Y-76200000D02*
X128738000Y-77430000D01*
X127938001Y-79539999D02*
X128738000Y-78740000D01*
X126492000Y-92964000D02*
X125476000Y-93980000D01*
D23*
X130556000Y-95758000D02*
X130556000Y-96520000D01*
D22*
X127508000Y-108458000D02*
X130302000Y-108458000D01*
X130302000Y-108458000D02*
X130740000Y-108896000D01*
X150000000Y-64620000D02*
X146000000Y-64620000D01*
X130152000Y-67310000D02*
X132842000Y-64620000D01*
X125222000Y-106172000D02*
X123190000Y-106172000D01*
D23*
X139700000Y-98044000D02*
X142748000Y-101092000D01*
D22*
X135128000Y-86614000D02*
X135128000Y-89916000D01*
X129286000Y-92964000D02*
X130556000Y-94234000D01*
X130048000Y-67310000D02*
X130152000Y-67310000D01*
D24*
%TO.N,D7*%
X158680000Y-109290000D02*
X158680000Y-113000000D01*
X165608000Y-99822000D02*
X164592000Y-98806000D01*
X165608000Y-101092000D02*
X165608000Y-99822000D01*
X164592000Y-98806000D02*
X147828000Y-98806000D01*
X165608000Y-102362000D02*
X158680000Y-109290000D01*
X140208000Y-91186000D02*
X140208000Y-89916000D01*
X147828000Y-98806000D02*
X140208000Y-91186000D01*
X165608000Y-101092000D02*
X165608000Y-102362000D01*
%TO.N,D6*%
X168148000Y-102108000D02*
X161220000Y-109036000D01*
X142748000Y-91948000D02*
X142748000Y-89916000D01*
X168148000Y-101092000D02*
X168148000Y-99568000D01*
X148590000Y-97790000D02*
X142748000Y-91948000D01*
X161220000Y-109036000D02*
X161220000Y-113000000D01*
X168148000Y-101092000D02*
X168148000Y-102108000D01*
X168148000Y-99568000D02*
X166370000Y-97790000D01*
X166370000Y-97790000D02*
X148590000Y-97790000D01*
%TO.N,D5*%
X170688000Y-101092000D02*
X170688000Y-102108000D01*
X149860000Y-96520000D02*
X145288000Y-91948000D01*
X145288000Y-91948000D02*
X145288000Y-89916000D01*
X163760000Y-109036000D02*
X163760000Y-113000000D01*
X170688000Y-102108000D02*
X163760000Y-109036000D01*
X167386000Y-96520000D02*
X149860000Y-96520000D01*
X170688000Y-101092000D02*
X170688000Y-99822000D01*
X170688000Y-99822000D02*
X167386000Y-96520000D01*
%TO.N,D4*%
X173228000Y-99822000D02*
X168910000Y-95504000D01*
X173228000Y-101092000D02*
X173228000Y-99822000D01*
X168910000Y-95504000D02*
X150876000Y-95504000D01*
X147828000Y-92456000D02*
X147828000Y-89916000D01*
X150876000Y-95504000D02*
X147828000Y-92456000D01*
X173228000Y-101092000D02*
X173228000Y-101854000D01*
X173228000Y-101854000D02*
X166300000Y-108782000D01*
X166300000Y-108782000D02*
X166300000Y-113000000D01*
%TO.N,D3*%
X175768000Y-99314000D02*
X170942000Y-94488000D01*
X175768000Y-101854000D02*
X168840000Y-108782000D01*
X168840000Y-108782000D02*
X168840000Y-113000000D01*
X170942000Y-94488000D02*
X152400000Y-94488000D01*
X150368000Y-92456000D02*
X150368000Y-89916000D01*
X175768000Y-101092000D02*
X175768000Y-101854000D01*
X152400000Y-94488000D02*
X150368000Y-92456000D01*
X175768000Y-101092000D02*
X175768000Y-99314000D01*
%TO.N,D2*%
X173228000Y-84328000D02*
X170942000Y-82042000D01*
X151638000Y-83820000D02*
X151638000Y-87122000D01*
X171958000Y-93472000D02*
X177546000Y-99060000D01*
X154178000Y-93472000D02*
X171958000Y-93472000D01*
X177546000Y-102108000D02*
X171380000Y-108274000D01*
X173228000Y-85852000D02*
X173228000Y-84328000D01*
X151638000Y-87122000D02*
X152908000Y-88392000D01*
X152908000Y-88392000D02*
X152908000Y-89916000D01*
X152908000Y-92202000D02*
X154178000Y-93472000D01*
X177546000Y-99060000D02*
X177546000Y-102108000D01*
X152908000Y-89916000D02*
X152908000Y-92202000D01*
X171380000Y-108274000D02*
X171380000Y-113000000D01*
X153416000Y-82042000D02*
X151638000Y-83820000D01*
X170942000Y-82042000D02*
X153416000Y-82042000D01*
%TO.N,D1*%
X172974000Y-92456000D02*
X156464000Y-92456000D01*
X155194000Y-83312000D02*
X169672000Y-83312000D01*
X155448000Y-88646000D02*
X154178000Y-87376000D01*
X154178000Y-84328000D02*
X155194000Y-83312000D01*
X173920000Y-113000000D02*
X173920000Y-107512000D01*
X154178000Y-87376000D02*
X154178000Y-84328000D01*
X178562000Y-102870000D02*
X178562000Y-98044000D01*
X170688000Y-84328000D02*
X170688000Y-85852000D01*
X155448000Y-89916000D02*
X155448000Y-88646000D01*
X169672000Y-83312000D02*
X170688000Y-84328000D01*
X155448000Y-91440000D02*
X155448000Y-89916000D01*
X173920000Y-107512000D02*
X178562000Y-102870000D01*
X156464000Y-92456000D02*
X155448000Y-91440000D01*
X178562000Y-98044000D02*
X172974000Y-92456000D01*
%TO.N,D0*%
X179578000Y-103886000D02*
X179578000Y-97028000D01*
X176460000Y-113000000D02*
X176460000Y-107004000D01*
X174498000Y-88646000D02*
X173482000Y-87630000D01*
X168148000Y-87122000D02*
X168148000Y-85852000D01*
X173482000Y-87630000D02*
X168656000Y-87630000D01*
X174498000Y-91948000D02*
X174498000Y-88646000D01*
X158750000Y-87630000D02*
X167640000Y-87630000D01*
X167640000Y-87630000D02*
X168148000Y-87122000D01*
X157988000Y-89916000D02*
X157988000Y-88392000D01*
X157988000Y-88392000D02*
X158750000Y-87630000D01*
X168656000Y-87630000D02*
X168148000Y-87122000D01*
X179578000Y-97028000D02*
X174498000Y-91948000D01*
X176460000Y-107004000D02*
X179578000Y-103886000D01*
%TO.N,A12*%
X142494000Y-71882000D02*
X144018000Y-73406000D01*
X140208000Y-71374000D02*
X140716000Y-71882000D01*
X144526000Y-87884000D02*
X146304000Y-87884000D01*
X142494000Y-70612000D02*
X142494000Y-71882000D01*
X140716000Y-71882000D02*
X142494000Y-71882000D01*
X144018000Y-87376000D02*
X144526000Y-87884000D01*
X140208000Y-69850000D02*
X140208000Y-71374000D01*
X144018000Y-73406000D02*
X144018000Y-87376000D01*
%TO.N,PA0*%
X173228000Y-55880000D02*
X173585000Y-55523000D01*
X173585000Y-55523000D02*
X173585000Y-50200000D01*
X173228000Y-74676000D02*
X173228000Y-55880000D01*
%TO.N,PA1*%
X171704000Y-76962000D02*
X176022000Y-76962000D01*
X170688000Y-75946000D02*
X171704000Y-76962000D01*
X183394000Y-69590000D02*
X189200000Y-69590000D01*
X170688000Y-56943000D02*
X169625000Y-55880000D01*
X169625000Y-50200000D02*
X169625000Y-55880000D01*
X170688000Y-74676000D02*
X170688000Y-75946000D01*
X170688000Y-74676000D02*
X170688000Y-56943000D01*
X176022000Y-76962000D02*
X183394000Y-69590000D01*
%TO.N,PA2*%
X168148000Y-74676000D02*
X168148000Y-72582000D01*
X165665000Y-55429000D02*
X165665000Y-50200000D01*
X169010000Y-58774000D02*
X165665000Y-55429000D01*
X168148000Y-72582000D02*
X169010000Y-71720000D01*
X169010000Y-71720000D02*
X169010000Y-58774000D01*
%TO.N,PA3*%
X161705000Y-55025000D02*
X161705000Y-50200000D01*
X182886000Y-72130000D02*
X189200000Y-72130000D01*
X165608000Y-74676000D02*
X165608000Y-72722000D01*
X165608000Y-74676000D02*
X165608000Y-76454000D01*
X167386000Y-78232000D02*
X176784000Y-78232000D01*
X166810000Y-60130000D02*
X161705000Y-55025000D01*
X166810000Y-71520000D02*
X166810000Y-60130000D01*
X165608000Y-76454000D02*
X167386000Y-78232000D01*
X165608000Y-72722000D02*
X166810000Y-71520000D01*
X176784000Y-78232000D02*
X182886000Y-72130000D01*
%TO.N,PA5*%
X160528000Y-76962000D02*
X163068000Y-79502000D01*
X160528000Y-74676000D02*
X160528000Y-76962000D01*
X163068000Y-79502000D02*
X177546000Y-79502000D01*
X177546000Y-79502000D02*
X182378000Y-74670000D01*
X182378000Y-74670000D02*
X189200000Y-74670000D01*
%TO.N,PB0*%
X145288000Y-77470000D02*
X145288000Y-83820000D01*
X152908000Y-74676000D02*
X152908000Y-79756000D01*
X149606000Y-83058000D02*
X145288000Y-83058000D01*
X145288000Y-83820000D02*
X145288000Y-85852000D01*
X145288000Y-83312000D02*
X145288000Y-83820000D01*
X152908000Y-79756000D02*
X149606000Y-83058000D01*
X145288000Y-83058000D02*
X145288000Y-83312000D01*
%TO.N,PB1*%
X162052000Y-71628000D02*
X164084000Y-69596000D01*
X155956000Y-71628000D02*
X162052000Y-71628000D01*
X181604000Y-67050000D02*
X189200000Y-67050000D01*
X150368000Y-72898000D02*
X151130000Y-72136000D01*
X151638000Y-71628000D02*
X155956000Y-71628000D01*
X151130000Y-72136000D02*
X151638000Y-71628000D01*
X150368000Y-74676000D02*
X150368000Y-73152000D01*
X176784000Y-62230000D02*
X181604000Y-67050000D01*
X150368000Y-73152000D02*
X150368000Y-72898000D01*
%TO.N,PB2*%
X138000000Y-57000000D02*
X141198000Y-60198000D01*
X147066000Y-67818000D02*
X146558000Y-68326000D01*
X147828000Y-73406000D02*
X147828000Y-74676000D01*
X141198000Y-60198000D02*
X157734000Y-60198000D01*
X159512000Y-61976000D02*
X159512000Y-66548000D01*
X157734000Y-60198000D02*
X159512000Y-61976000D01*
X137945000Y-50200000D02*
X137945000Y-56945000D01*
X146558000Y-68326000D02*
X146558000Y-72136000D01*
X146558000Y-72136000D02*
X147828000Y-73406000D01*
X158242000Y-67818000D02*
X147066000Y-67818000D01*
X159512000Y-66548000D02*
X158242000Y-67818000D01*
X137945000Y-56945000D02*
X138000000Y-57000000D01*
%TO.N,PB3*%
X147066000Y-80264000D02*
X148590000Y-80264000D01*
X145288000Y-74676000D02*
X146532000Y-75920000D01*
X146532000Y-75920000D02*
X146532000Y-79730000D01*
X160528000Y-67818000D02*
X160528000Y-61214000D01*
X158750000Y-69596000D02*
X160528000Y-67818000D01*
X146532000Y-79730000D02*
X147066000Y-80264000D01*
X160528000Y-61214000D02*
X158496000Y-59182000D01*
X149098000Y-79756000D02*
X149098000Y-72136000D01*
X141905000Y-58085000D02*
X141905000Y-50200000D01*
X148590000Y-80264000D02*
X149098000Y-79756000D01*
X149098000Y-72136000D02*
X151638000Y-69596000D01*
X151638000Y-69596000D02*
X158750000Y-69596000D01*
X158496000Y-59182000D02*
X143002000Y-59182000D01*
X143002000Y-59182000D02*
X141905000Y-58085000D01*
%TO.N,PB4*%
X157745000Y-56745000D02*
X158000000Y-57000000D01*
X157745000Y-50200000D02*
X157745000Y-56745000D01*
%TO.N,PB5*%
X153785000Y-56785000D02*
X154000000Y-57000000D01*
X153785000Y-50200000D02*
X153785000Y-56785000D01*
%TO.N,PB6*%
X149825000Y-50200000D02*
X149825000Y-56825000D01*
X149825000Y-56825000D02*
X150000000Y-57000000D01*
%TO.N,PB7*%
X145865000Y-56865000D02*
X146000000Y-57000000D01*
X145865000Y-50200000D02*
X145865000Y-56865000D01*
%TO.N,PA7*%
X181870000Y-77210000D02*
X189200000Y-77210000D01*
X158750000Y-80518000D02*
X178562000Y-80518000D01*
X178562000Y-80518000D02*
X181870000Y-77210000D01*
X155448000Y-74676000D02*
X155448000Y-77216000D01*
X155448000Y-77216000D02*
X158750000Y-80518000D01*
D25*
%TO.N,CA2*%
X156000000Y-62000000D02*
X139000000Y-62000000D01*
D24*
X133985000Y-56985000D02*
X134000000Y-57000000D01*
X133985000Y-50200000D02*
X133985000Y-56985000D01*
D25*
X139000000Y-62000000D02*
X134000000Y-57000000D01*
D24*
%TO.N,R{slash}~{W}*%
X135820000Y-108388000D02*
X135820000Y-113000000D01*
X125476000Y-104648000D02*
X128436000Y-107608000D01*
X135040000Y-107608000D02*
X135820000Y-108388000D01*
X128436000Y-107608000D02*
X135040000Y-107608000D01*
X125476000Y-103378000D02*
X125476000Y-104648000D01*
%TO.N,~{IO1}*%
X146558000Y-98806000D02*
X146558000Y-102870000D01*
X146558000Y-102870000D02*
X140900000Y-108528000D01*
X132588000Y-91186000D02*
X134620000Y-93218000D01*
X140900000Y-108528000D02*
X140900000Y-113000000D01*
X134620000Y-93218000D02*
X140970000Y-93218000D01*
X140970000Y-93218000D02*
X146558000Y-98806000D01*
X132588000Y-89916000D02*
X132588000Y-91186000D01*
%TO.N,~{GAME}*%
X161290000Y-104140000D02*
X156464000Y-104140000D01*
X143440000Y-108528000D02*
X143440000Y-113000000D01*
X163068000Y-102362000D02*
X161290000Y-104140000D01*
X156464000Y-104140000D02*
X147828000Y-104140000D01*
X157988000Y-101092000D02*
X157988000Y-102616000D01*
X147828000Y-104140000D02*
X143440000Y-108528000D01*
X157988000Y-102616000D02*
X156464000Y-104140000D01*
X163068000Y-101092000D02*
X163068000Y-102362000D01*
%TO.N,Net-(U3-Pad10)*%
X140208000Y-77470000D02*
X140208000Y-78994000D01*
X140716000Y-79502000D02*
X142494000Y-79502000D01*
X142748000Y-79248000D02*
X142748000Y-77470000D01*
X142494000Y-79502000D02*
X142748000Y-79248000D01*
X140208000Y-78994000D02*
X140716000Y-79502000D01*
%TO.N,Net-(J2-Pin_1)*%
X130556000Y-103378000D02*
X130556000Y-101854000D01*
X130556000Y-103378000D02*
X130556000Y-105918000D01*
X130556000Y-101854000D02*
X129286000Y-100584000D01*
%TO.N,Net-(J3-Pin_1)*%
X137414000Y-77724000D02*
X137668000Y-77470000D01*
X137414000Y-79502000D02*
X135128000Y-79502000D01*
X135128000Y-79502000D02*
X135128000Y-77470000D01*
X137414000Y-79502000D02*
X137414000Y-77724000D01*
X135128000Y-83312000D02*
X132588000Y-83312000D01*
X137414000Y-81026000D02*
X137414000Y-79502000D01*
X135128000Y-83312000D02*
X135128000Y-79502000D01*
%TD*%
M02*
