%TF.GenerationSoftware,KiCad,Pcbnew,9.0.0*%
%TF.CreationDate,2025-04-04T09:07:06-04:00*%
%TF.ProjectId,RTC-Link2,5254432d-4c69-46e6-9b32-2e6b69636164,1.1*%
%TF.SameCoordinates,Original*%
%TF.FileFunction,Soldermask,Bot*%
%TF.FilePolarity,Negative*%
%FSLAX46Y46*%
G04 Gerber Fmt 4.6, Leading zero omitted, Abs format (unit mm)*
G04 Created by KiCad (PCBNEW 9.0.0) date 2025-04-04 09:07:06*
%MOMM*%
%LPD*%
G01*
G04 APERTURE LIST*
%ADD10R,1.600000X2.400000*%
%ADD11O,1.600000X2.400000*%
%ADD12C,1.400000*%
%ADD13O,1.400000X1.400000*%
%ADD14R,1.600000X1.600000*%
%ADD15O,1.600000X1.600000*%
%ADD16R,7.620000X1.524000*%
%ADD17R,1.524000X7.620000*%
%ADD18R,2.286000X8.000000*%
%ADD19C,1.600000*%
%ADD20R,1.700000X1.700000*%
G04 APERTURE END LIST*
D10*
%TO.C,U2*%
X125476000Y-103378000D03*
D11*
X128016000Y-103378000D03*
X130556000Y-103378000D03*
X133096000Y-103378000D03*
X135636000Y-103378000D03*
X138176000Y-103378000D03*
X140716000Y-103378000D03*
X140716000Y-95758000D03*
X138176000Y-95758000D03*
X135636000Y-95758000D03*
X133096000Y-95758000D03*
X130556000Y-95758000D03*
X128016000Y-95758000D03*
X125476000Y-95758000D03*
%TD*%
D12*
%TO.C,R2*%
X138000000Y-57000000D03*
D13*
X138000000Y-64620000D03*
%TD*%
D14*
%TO.C,U1*%
X175768000Y-74676000D03*
D15*
X173228000Y-74676000D03*
X170688000Y-74676000D03*
X168148000Y-74676000D03*
X165608000Y-74676000D03*
X163068000Y-74676000D03*
X160528000Y-74676000D03*
X157988000Y-74676000D03*
X155448000Y-74676000D03*
X152908000Y-74676000D03*
X150368000Y-74676000D03*
X147828000Y-74676000D03*
X145288000Y-74676000D03*
X142748000Y-74676000D03*
X140208000Y-74676000D03*
X137668000Y-74676000D03*
X135128000Y-74676000D03*
X132588000Y-74676000D03*
X130048000Y-74676000D03*
X127508000Y-74676000D03*
X127508000Y-89916000D03*
X130048000Y-89916000D03*
X132588000Y-89916000D03*
X135128000Y-89916000D03*
X137668000Y-89916000D03*
X140208000Y-89916000D03*
X142748000Y-89916000D03*
X145288000Y-89916000D03*
X147828000Y-89916000D03*
X150368000Y-89916000D03*
X152908000Y-89916000D03*
X155448000Y-89916000D03*
X157988000Y-89916000D03*
X160528000Y-89916000D03*
X163068000Y-89916000D03*
X165608000Y-89916000D03*
X168148000Y-89916000D03*
X170688000Y-89916000D03*
X173228000Y-89916000D03*
X175768000Y-89916000D03*
%TD*%
D16*
%TO.C,J1*%
X189200000Y-79750000D03*
X189200000Y-77210000D03*
X189200000Y-74670000D03*
X189200000Y-72130000D03*
X189200000Y-69590000D03*
X189200000Y-67050000D03*
X189200000Y-64510000D03*
X189200000Y-79750000D03*
X189200000Y-77210000D03*
X189200000Y-74670000D03*
X189200000Y-72130000D03*
X189200000Y-69590000D03*
X189200000Y-67050000D03*
X189200000Y-64510000D03*
%TD*%
D17*
%TO.C,P1*%
X125660000Y-113000000D03*
X128200000Y-113000000D03*
X130740000Y-113000000D03*
X133280000Y-113000000D03*
X135820000Y-113000000D03*
X138360000Y-113000000D03*
X140900000Y-113000000D03*
X143440000Y-113000000D03*
X145980000Y-113000000D03*
X148520000Y-113000000D03*
X151060000Y-113000000D03*
X153600000Y-113000000D03*
X156140000Y-113000000D03*
X158680000Y-113000000D03*
X161220000Y-113000000D03*
X163760000Y-113000000D03*
X166300000Y-113000000D03*
X168840000Y-113000000D03*
X171380000Y-113000000D03*
X173920000Y-113000000D03*
X176460000Y-113000000D03*
X179000000Y-113000000D03*
X125660000Y-113000000D03*
X128200000Y-113000000D03*
X130740000Y-113000000D03*
X133280000Y-113000000D03*
X135820000Y-113000000D03*
X138360000Y-113000000D03*
X140900000Y-113000000D03*
X143440000Y-113000000D03*
X145980000Y-113000000D03*
X148520000Y-113000000D03*
X151060000Y-113000000D03*
X153600000Y-113000000D03*
X156140000Y-113000000D03*
X158680000Y-113000000D03*
X161220000Y-113000000D03*
X163760000Y-113000000D03*
X166300000Y-113000000D03*
X168840000Y-113000000D03*
X171380000Y-113000000D03*
X173920000Y-113000000D03*
X176460000Y-113000000D03*
X179000000Y-113000000D03*
%TD*%
D12*
%TO.C,R6*%
X158000000Y-57000000D03*
D13*
X158000000Y-64620000D03*
%TD*%
D12*
%TO.C,R3*%
X146000000Y-57000000D03*
D13*
X146000000Y-64620000D03*
%TD*%
D12*
%TO.C,R4*%
X150000000Y-57000000D03*
D13*
X150000000Y-64620000D03*
%TD*%
D18*
%TO.C,CN1*%
X173585000Y-50200000D03*
X169625000Y-50200000D03*
X165665000Y-50200000D03*
X161705000Y-50200000D03*
X157745000Y-50200000D03*
X153785000Y-50200000D03*
X149825000Y-50200000D03*
X145865000Y-50200000D03*
X141905000Y-50200000D03*
X137945000Y-50200000D03*
X133985000Y-50200000D03*
X130025000Y-50200000D03*
%TD*%
D12*
%TO.C,R5*%
X154000000Y-57000000D03*
D13*
X154000000Y-64620000D03*
%TD*%
D12*
%TO.C,R1*%
X134000000Y-57000000D03*
D13*
X134000000Y-64620000D03*
%TD*%
D12*
%TO.C,R10*%
X129286000Y-92964000D03*
D13*
X129286000Y-100584000D03*
%TD*%
D14*
%TO.C,U4*%
X142748000Y-85852000D03*
D15*
X145288000Y-85852000D03*
X147828000Y-85852000D03*
X150368000Y-85852000D03*
X152908000Y-85852000D03*
X155448000Y-85852000D03*
X157988000Y-85852000D03*
X160528000Y-85852000D03*
X163068000Y-85852000D03*
X165608000Y-85852000D03*
X168148000Y-85852000D03*
X170688000Y-85852000D03*
X173228000Y-85852000D03*
X175768000Y-85852000D03*
X175768000Y-101092000D03*
X173228000Y-101092000D03*
X170688000Y-101092000D03*
X168148000Y-101092000D03*
X165608000Y-101092000D03*
X163068000Y-101092000D03*
X160528000Y-101092000D03*
X157988000Y-101092000D03*
X155448000Y-101092000D03*
X152908000Y-101092000D03*
X150368000Y-101092000D03*
X147828000Y-101092000D03*
X145288000Y-101092000D03*
X142748000Y-101092000D03*
%TD*%
D19*
%TO.C,C1*%
X128738000Y-78740000D03*
X126238000Y-78740000D03*
%TD*%
D20*
%TO.C,J3*%
X132588000Y-83312000D03*
%TD*%
D12*
%TO.C,R7*%
X129794000Y-81026000D03*
D13*
X137414000Y-81026000D03*
%TD*%
D20*
%TO.C,J2*%
X130556000Y-105918000D03*
%TD*%
D12*
%TO.C,R9*%
X130810000Y-86360000D03*
D13*
X138430000Y-86360000D03*
%TD*%
D12*
%TO.C,R8*%
X142748000Y-83312000D03*
D13*
X135128000Y-83312000D03*
%TD*%
D10*
%TO.C,U3*%
X132588000Y-69850000D03*
D11*
X135128000Y-69850000D03*
X137668000Y-69850000D03*
X140208000Y-69850000D03*
X142748000Y-69850000D03*
X145288000Y-69850000D03*
X147828000Y-69850000D03*
X147828000Y-77470000D03*
X145288000Y-77470000D03*
X142748000Y-77470000D03*
X140208000Y-77470000D03*
X137668000Y-77470000D03*
X135128000Y-77470000D03*
X132588000Y-77470000D03*
%TD*%
M02*
