%TF.GenerationSoftware,KiCad,Pcbnew,9.0.0*%
%TF.CreationDate,2025-04-04T09:07:06-04:00*%
%TF.ProjectId,RTC-Link2,5254432d-4c69-46e6-9b32-2e6b69636164,1.1*%
%TF.SameCoordinates,Original*%
%TF.FileFunction,Legend,Top*%
%TF.FilePolarity,Positive*%
%FSLAX46Y46*%
G04 Gerber Fmt 4.6, Leading zero omitted, Abs format (unit mm)*
G04 Created by KiCad (PCBNEW 9.0.0) date 2025-04-04 09:07:06*
%MOMM*%
%LPD*%
G01*
G04 APERTURE LIST*
%ADD10C,0.150000*%
%ADD11C,0.300000*%
%ADD12C,0.250000*%
%ADD13C,0.500000*%
%ADD14C,0.120000*%
G04 APERTURE END LIST*
D10*
X123415419Y-56026207D02*
X123367800Y-55978588D01*
X123367800Y-55978588D02*
X123320180Y-55835731D01*
X123320180Y-55835731D02*
X123320180Y-55740493D01*
X123320180Y-55740493D02*
X123367800Y-55597636D01*
X123367800Y-55597636D02*
X123463038Y-55502398D01*
X123463038Y-55502398D02*
X123558276Y-55454779D01*
X123558276Y-55454779D02*
X123748752Y-55407160D01*
X123748752Y-55407160D02*
X123891609Y-55407160D01*
X123891609Y-55407160D02*
X124082085Y-55454779D01*
X124082085Y-55454779D02*
X124177323Y-55502398D01*
X124177323Y-55502398D02*
X124272561Y-55597636D01*
X124272561Y-55597636D02*
X124320180Y-55740493D01*
X124320180Y-55740493D02*
X124320180Y-55835731D01*
X124320180Y-55835731D02*
X124272561Y-55978588D01*
X124272561Y-55978588D02*
X124224942Y-56026207D01*
X123320180Y-56597636D02*
X123367800Y-56502398D01*
X123367800Y-56502398D02*
X123463038Y-56454779D01*
X123463038Y-56454779D02*
X124320180Y-56454779D01*
X123320180Y-57121446D02*
X123367800Y-57026208D01*
X123367800Y-57026208D02*
X123415419Y-56978589D01*
X123415419Y-56978589D02*
X123510657Y-56930970D01*
X123510657Y-56930970D02*
X123796371Y-56930970D01*
X123796371Y-56930970D02*
X123891609Y-56978589D01*
X123891609Y-56978589D02*
X123939228Y-57026208D01*
X123939228Y-57026208D02*
X123986847Y-57121446D01*
X123986847Y-57121446D02*
X123986847Y-57264303D01*
X123986847Y-57264303D02*
X123939228Y-57359541D01*
X123939228Y-57359541D02*
X123891609Y-57407160D01*
X123891609Y-57407160D02*
X123796371Y-57454779D01*
X123796371Y-57454779D02*
X123510657Y-57454779D01*
X123510657Y-57454779D02*
X123415419Y-57407160D01*
X123415419Y-57407160D02*
X123367800Y-57359541D01*
X123367800Y-57359541D02*
X123320180Y-57264303D01*
X123320180Y-57264303D02*
X123320180Y-57121446D01*
X123986847Y-57883351D02*
X123320180Y-57883351D01*
X123891609Y-57883351D02*
X123939228Y-57930970D01*
X123939228Y-57930970D02*
X123986847Y-58026208D01*
X123986847Y-58026208D02*
X123986847Y-58169065D01*
X123986847Y-58169065D02*
X123939228Y-58264303D01*
X123939228Y-58264303D02*
X123843990Y-58311922D01*
X123843990Y-58311922D02*
X123320180Y-58311922D01*
X123367800Y-59169065D02*
X123320180Y-59073827D01*
X123320180Y-59073827D02*
X123320180Y-58883351D01*
X123320180Y-58883351D02*
X123367800Y-58788113D01*
X123367800Y-58788113D02*
X123463038Y-58740494D01*
X123463038Y-58740494D02*
X123843990Y-58740494D01*
X123843990Y-58740494D02*
X123939228Y-58788113D01*
X123939228Y-58788113D02*
X123986847Y-58883351D01*
X123986847Y-58883351D02*
X123986847Y-59073827D01*
X123986847Y-59073827D02*
X123939228Y-59169065D01*
X123939228Y-59169065D02*
X123843990Y-59216684D01*
X123843990Y-59216684D02*
X123748752Y-59216684D01*
X123748752Y-59216684D02*
X123653514Y-58740494D01*
X123320180Y-60073827D02*
X124320180Y-60073827D01*
X123367800Y-60073827D02*
X123320180Y-59978589D01*
X123320180Y-59978589D02*
X123320180Y-59788113D01*
X123320180Y-59788113D02*
X123367800Y-59692875D01*
X123367800Y-59692875D02*
X123415419Y-59645256D01*
X123415419Y-59645256D02*
X123510657Y-59597637D01*
X123510657Y-59597637D02*
X123796371Y-59597637D01*
X123796371Y-59597637D02*
X123891609Y-59645256D01*
X123891609Y-59645256D02*
X123939228Y-59692875D01*
X123939228Y-59692875D02*
X123986847Y-59788113D01*
X123986847Y-59788113D02*
X123986847Y-59978589D01*
X123986847Y-59978589D02*
X123939228Y-60073827D01*
X123320180Y-61311923D02*
X123986847Y-61311923D01*
X124320180Y-61311923D02*
X124272561Y-61264304D01*
X124272561Y-61264304D02*
X124224942Y-61311923D01*
X124224942Y-61311923D02*
X124272561Y-61359542D01*
X124272561Y-61359542D02*
X124320180Y-61311923D01*
X124320180Y-61311923D02*
X124224942Y-61311923D01*
X123986847Y-61788113D02*
X123320180Y-61788113D01*
X123891609Y-61788113D02*
X123939228Y-61835732D01*
X123939228Y-61835732D02*
X123986847Y-61930970D01*
X123986847Y-61930970D02*
X123986847Y-62073827D01*
X123986847Y-62073827D02*
X123939228Y-62169065D01*
X123939228Y-62169065D02*
X123843990Y-62216684D01*
X123843990Y-62216684D02*
X123320180Y-62216684D01*
X123415419Y-64026208D02*
X123367800Y-63978589D01*
X123367800Y-63978589D02*
X123320180Y-63835732D01*
X123320180Y-63835732D02*
X123320180Y-63740494D01*
X123320180Y-63740494D02*
X123367800Y-63597637D01*
X123367800Y-63597637D02*
X123463038Y-63502399D01*
X123463038Y-63502399D02*
X123558276Y-63454780D01*
X123558276Y-63454780D02*
X123748752Y-63407161D01*
X123748752Y-63407161D02*
X123891609Y-63407161D01*
X123891609Y-63407161D02*
X124082085Y-63454780D01*
X124082085Y-63454780D02*
X124177323Y-63502399D01*
X124177323Y-63502399D02*
X124272561Y-63597637D01*
X124272561Y-63597637D02*
X124320180Y-63740494D01*
X124320180Y-63740494D02*
X124320180Y-63835732D01*
X124320180Y-63835732D02*
X124272561Y-63978589D01*
X124272561Y-63978589D02*
X124224942Y-64026208D01*
X123320180Y-64883351D02*
X123843990Y-64883351D01*
X123843990Y-64883351D02*
X123939228Y-64835732D01*
X123939228Y-64835732D02*
X123986847Y-64740494D01*
X123986847Y-64740494D02*
X123986847Y-64550018D01*
X123986847Y-64550018D02*
X123939228Y-64454780D01*
X123367800Y-64883351D02*
X123320180Y-64788113D01*
X123320180Y-64788113D02*
X123320180Y-64550018D01*
X123320180Y-64550018D02*
X123367800Y-64454780D01*
X123367800Y-64454780D02*
X123463038Y-64407161D01*
X123463038Y-64407161D02*
X123558276Y-64407161D01*
X123558276Y-64407161D02*
X123653514Y-64454780D01*
X123653514Y-64454780D02*
X123701133Y-64550018D01*
X123701133Y-64550018D02*
X123701133Y-64788113D01*
X123701133Y-64788113D02*
X123748752Y-64883351D01*
X123986847Y-65359542D02*
X123320180Y-65359542D01*
X123891609Y-65359542D02*
X123939228Y-65407161D01*
X123939228Y-65407161D02*
X123986847Y-65502399D01*
X123986847Y-65502399D02*
X123986847Y-65645256D01*
X123986847Y-65645256D02*
X123939228Y-65740494D01*
X123939228Y-65740494D02*
X123843990Y-65788113D01*
X123843990Y-65788113D02*
X123320180Y-65788113D01*
X123320180Y-66692875D02*
X123843990Y-66692875D01*
X123843990Y-66692875D02*
X123939228Y-66645256D01*
X123939228Y-66645256D02*
X123986847Y-66550018D01*
X123986847Y-66550018D02*
X123986847Y-66359542D01*
X123986847Y-66359542D02*
X123939228Y-66264304D01*
X123367800Y-66692875D02*
X123320180Y-66597637D01*
X123320180Y-66597637D02*
X123320180Y-66359542D01*
X123320180Y-66359542D02*
X123367800Y-66264304D01*
X123367800Y-66264304D02*
X123463038Y-66216685D01*
X123463038Y-66216685D02*
X123558276Y-66216685D01*
X123558276Y-66216685D02*
X123653514Y-66264304D01*
X123653514Y-66264304D02*
X123701133Y-66359542D01*
X123701133Y-66359542D02*
X123701133Y-66597637D01*
X123701133Y-66597637D02*
X123748752Y-66692875D01*
X123320180Y-67597637D02*
X124320180Y-67597637D01*
X123367800Y-67597637D02*
X123320180Y-67502399D01*
X123320180Y-67502399D02*
X123320180Y-67311923D01*
X123320180Y-67311923D02*
X123367800Y-67216685D01*
X123367800Y-67216685D02*
X123415419Y-67169066D01*
X123415419Y-67169066D02*
X123510657Y-67121447D01*
X123510657Y-67121447D02*
X123796371Y-67121447D01*
X123796371Y-67121447D02*
X123891609Y-67169066D01*
X123891609Y-67169066D02*
X123939228Y-67216685D01*
X123939228Y-67216685D02*
X123986847Y-67311923D01*
X123986847Y-67311923D02*
X123986847Y-67502399D01*
X123986847Y-67502399D02*
X123939228Y-67597637D01*
X123320180Y-68502399D02*
X123843990Y-68502399D01*
X123843990Y-68502399D02*
X123939228Y-68454780D01*
X123939228Y-68454780D02*
X123986847Y-68359542D01*
X123986847Y-68359542D02*
X123986847Y-68169066D01*
X123986847Y-68169066D02*
X123939228Y-68073828D01*
X123367800Y-68502399D02*
X123320180Y-68407161D01*
X123320180Y-68407161D02*
X123320180Y-68169066D01*
X123320180Y-68169066D02*
X123367800Y-68073828D01*
X123367800Y-68073828D02*
X123463038Y-68026209D01*
X123463038Y-68026209D02*
X123558276Y-68026209D01*
X123558276Y-68026209D02*
X123653514Y-68073828D01*
X123653514Y-68073828D02*
X123701133Y-68169066D01*
X123701133Y-68169066D02*
X123701133Y-68407161D01*
X123701133Y-68407161D02*
X123748752Y-68502399D01*
D11*
X163757368Y-71452828D02*
X163471653Y-71452828D01*
X163471653Y-71452828D02*
X163328796Y-71524257D01*
X163328796Y-71524257D02*
X163257368Y-71595685D01*
X163257368Y-71595685D02*
X163114510Y-71809971D01*
X163114510Y-71809971D02*
X163043082Y-72095685D01*
X163043082Y-72095685D02*
X163043082Y-72667114D01*
X163043082Y-72667114D02*
X163114510Y-72809971D01*
X163114510Y-72809971D02*
X163185939Y-72881400D01*
X163185939Y-72881400D02*
X163328796Y-72952828D01*
X163328796Y-72952828D02*
X163614510Y-72952828D01*
X163614510Y-72952828D02*
X163757368Y-72881400D01*
X163757368Y-72881400D02*
X163828796Y-72809971D01*
X163828796Y-72809971D02*
X163900225Y-72667114D01*
X163900225Y-72667114D02*
X163900225Y-72309971D01*
X163900225Y-72309971D02*
X163828796Y-72167114D01*
X163828796Y-72167114D02*
X163757368Y-72095685D01*
X163757368Y-72095685D02*
X163614510Y-72024257D01*
X163614510Y-72024257D02*
X163328796Y-72024257D01*
X163328796Y-72024257D02*
X163185939Y-72095685D01*
X163185939Y-72095685D02*
X163114510Y-72167114D01*
X163114510Y-72167114D02*
X163043082Y-72309971D01*
X164757367Y-72095685D02*
X164614510Y-72024257D01*
X164614510Y-72024257D02*
X164543081Y-71952828D01*
X164543081Y-71952828D02*
X164471653Y-71809971D01*
X164471653Y-71809971D02*
X164471653Y-71738542D01*
X164471653Y-71738542D02*
X164543081Y-71595685D01*
X164543081Y-71595685D02*
X164614510Y-71524257D01*
X164614510Y-71524257D02*
X164757367Y-71452828D01*
X164757367Y-71452828D02*
X165043081Y-71452828D01*
X165043081Y-71452828D02*
X165185939Y-71524257D01*
X165185939Y-71524257D02*
X165257367Y-71595685D01*
X165257367Y-71595685D02*
X165328796Y-71738542D01*
X165328796Y-71738542D02*
X165328796Y-71809971D01*
X165328796Y-71809971D02*
X165257367Y-71952828D01*
X165257367Y-71952828D02*
X165185939Y-72024257D01*
X165185939Y-72024257D02*
X165043081Y-72095685D01*
X165043081Y-72095685D02*
X164757367Y-72095685D01*
X164757367Y-72095685D02*
X164614510Y-72167114D01*
X164614510Y-72167114D02*
X164543081Y-72238542D01*
X164543081Y-72238542D02*
X164471653Y-72381400D01*
X164471653Y-72381400D02*
X164471653Y-72667114D01*
X164471653Y-72667114D02*
X164543081Y-72809971D01*
X164543081Y-72809971D02*
X164614510Y-72881400D01*
X164614510Y-72881400D02*
X164757367Y-72952828D01*
X164757367Y-72952828D02*
X165043081Y-72952828D01*
X165043081Y-72952828D02*
X165185939Y-72881400D01*
X165185939Y-72881400D02*
X165257367Y-72809971D01*
X165257367Y-72809971D02*
X165328796Y-72667114D01*
X165328796Y-72667114D02*
X165328796Y-72381400D01*
X165328796Y-72381400D02*
X165257367Y-72238542D01*
X165257367Y-72238542D02*
X165185939Y-72167114D01*
X165185939Y-72167114D02*
X165043081Y-72095685D01*
X165900224Y-71595685D02*
X165971652Y-71524257D01*
X165971652Y-71524257D02*
X166114510Y-71452828D01*
X166114510Y-71452828D02*
X166471652Y-71452828D01*
X166471652Y-71452828D02*
X166614510Y-71524257D01*
X166614510Y-71524257D02*
X166685938Y-71595685D01*
X166685938Y-71595685D02*
X166757367Y-71738542D01*
X166757367Y-71738542D02*
X166757367Y-71881400D01*
X166757367Y-71881400D02*
X166685938Y-72095685D01*
X166685938Y-72095685D02*
X165828795Y-72952828D01*
X165828795Y-72952828D02*
X166757367Y-72952828D01*
X168185938Y-72952828D02*
X167328795Y-72952828D01*
X167757366Y-72952828D02*
X167757366Y-71452828D01*
X167757366Y-71452828D02*
X167614509Y-71667114D01*
X167614509Y-71667114D02*
X167471652Y-71809971D01*
X167471652Y-71809971D02*
X167328795Y-71881400D01*
X169971651Y-72952828D02*
X169971651Y-71452828D01*
X169971651Y-71452828D02*
X170543080Y-71452828D01*
X170543080Y-71452828D02*
X170685937Y-71524257D01*
X170685937Y-71524257D02*
X170757366Y-71595685D01*
X170757366Y-71595685D02*
X170828794Y-71738542D01*
X170828794Y-71738542D02*
X170828794Y-71952828D01*
X170828794Y-71952828D02*
X170757366Y-72095685D01*
X170757366Y-72095685D02*
X170685937Y-72167114D01*
X170685937Y-72167114D02*
X170543080Y-72238542D01*
X170543080Y-72238542D02*
X169971651Y-72238542D01*
X171471651Y-72952828D02*
X171471651Y-71452828D01*
X172114509Y-72524257D02*
X172828795Y-72524257D01*
X171971652Y-72952828D02*
X172471652Y-71452828D01*
X172471652Y-71452828D02*
X172971652Y-72952828D01*
X149747653Y-107607971D02*
X149676225Y-107679400D01*
X149676225Y-107679400D02*
X149461939Y-107750828D01*
X149461939Y-107750828D02*
X149319082Y-107750828D01*
X149319082Y-107750828D02*
X149104796Y-107679400D01*
X149104796Y-107679400D02*
X148961939Y-107536542D01*
X148961939Y-107536542D02*
X148890510Y-107393685D01*
X148890510Y-107393685D02*
X148819082Y-107107971D01*
X148819082Y-107107971D02*
X148819082Y-106893685D01*
X148819082Y-106893685D02*
X148890510Y-106607971D01*
X148890510Y-106607971D02*
X148961939Y-106465114D01*
X148961939Y-106465114D02*
X149104796Y-106322257D01*
X149104796Y-106322257D02*
X149319082Y-106250828D01*
X149319082Y-106250828D02*
X149461939Y-106250828D01*
X149461939Y-106250828D02*
X149676225Y-106322257D01*
X149676225Y-106322257D02*
X149747653Y-106393685D01*
X150676225Y-106250828D02*
X150961939Y-106250828D01*
X150961939Y-106250828D02*
X151104796Y-106322257D01*
X151104796Y-106322257D02*
X151247653Y-106465114D01*
X151247653Y-106465114D02*
X151319082Y-106750828D01*
X151319082Y-106750828D02*
X151319082Y-107250828D01*
X151319082Y-107250828D02*
X151247653Y-107536542D01*
X151247653Y-107536542D02*
X151104796Y-107679400D01*
X151104796Y-107679400D02*
X150961939Y-107750828D01*
X150961939Y-107750828D02*
X150676225Y-107750828D01*
X150676225Y-107750828D02*
X150533368Y-107679400D01*
X150533368Y-107679400D02*
X150390510Y-107536542D01*
X150390510Y-107536542D02*
X150319082Y-107250828D01*
X150319082Y-107250828D02*
X150319082Y-106750828D01*
X150319082Y-106750828D02*
X150390510Y-106465114D01*
X150390510Y-106465114D02*
X150533368Y-106322257D01*
X150533368Y-106322257D02*
X150676225Y-106250828D01*
X151961939Y-107750828D02*
X151961939Y-106250828D01*
X151961939Y-106250828D02*
X152461939Y-107322257D01*
X152461939Y-107322257D02*
X152961939Y-106250828D01*
X152961939Y-106250828D02*
X152961939Y-107750828D01*
X153676225Y-107750828D02*
X153676225Y-106250828D01*
X153676225Y-106250828D02*
X154247654Y-106250828D01*
X154247654Y-106250828D02*
X154390511Y-106322257D01*
X154390511Y-106322257D02*
X154461940Y-106393685D01*
X154461940Y-106393685D02*
X154533368Y-106536542D01*
X154533368Y-106536542D02*
X154533368Y-106750828D01*
X154533368Y-106750828D02*
X154461940Y-106893685D01*
X154461940Y-106893685D02*
X154390511Y-106965114D01*
X154390511Y-106965114D02*
X154247654Y-107036542D01*
X154247654Y-107036542D02*
X153676225Y-107036542D01*
X155176225Y-106250828D02*
X155176225Y-107465114D01*
X155176225Y-107465114D02*
X155247654Y-107607971D01*
X155247654Y-107607971D02*
X155319083Y-107679400D01*
X155319083Y-107679400D02*
X155461940Y-107750828D01*
X155461940Y-107750828D02*
X155747654Y-107750828D01*
X155747654Y-107750828D02*
X155890511Y-107679400D01*
X155890511Y-107679400D02*
X155961940Y-107607971D01*
X155961940Y-107607971D02*
X156033368Y-107465114D01*
X156033368Y-107465114D02*
X156033368Y-106250828D01*
X156533369Y-106250828D02*
X157390512Y-106250828D01*
X156961940Y-107750828D02*
X156961940Y-106250828D01*
X157890511Y-106965114D02*
X158390511Y-106965114D01*
X158604797Y-107750828D02*
X157890511Y-107750828D01*
X157890511Y-107750828D02*
X157890511Y-106250828D01*
X157890511Y-106250828D02*
X158604797Y-106250828D01*
X160104797Y-107750828D02*
X159604797Y-107036542D01*
X159247654Y-107750828D02*
X159247654Y-106250828D01*
X159247654Y-106250828D02*
X159819083Y-106250828D01*
X159819083Y-106250828D02*
X159961940Y-106322257D01*
X159961940Y-106322257D02*
X160033369Y-106393685D01*
X160033369Y-106393685D02*
X160104797Y-106536542D01*
X160104797Y-106536542D02*
X160104797Y-106750828D01*
X160104797Y-106750828D02*
X160033369Y-106893685D01*
X160033369Y-106893685D02*
X159961940Y-106965114D01*
X159961940Y-106965114D02*
X159819083Y-107036542D01*
X159819083Y-107036542D02*
X159247654Y-107036542D01*
D12*
X149483429Y-97107924D02*
X149426286Y-97165067D01*
X149426286Y-97165067D02*
X149254858Y-97222209D01*
X149254858Y-97222209D02*
X149140572Y-97222209D01*
X149140572Y-97222209D02*
X148969143Y-97165067D01*
X148969143Y-97165067D02*
X148854858Y-97050781D01*
X148854858Y-97050781D02*
X148797715Y-96936495D01*
X148797715Y-96936495D02*
X148740572Y-96707924D01*
X148740572Y-96707924D02*
X148740572Y-96536495D01*
X148740572Y-96536495D02*
X148797715Y-96307924D01*
X148797715Y-96307924D02*
X148854858Y-96193638D01*
X148854858Y-96193638D02*
X148969143Y-96079352D01*
X148969143Y-96079352D02*
X149140572Y-96022209D01*
X149140572Y-96022209D02*
X149254858Y-96022209D01*
X149254858Y-96022209D02*
X149426286Y-96079352D01*
X149426286Y-96079352D02*
X149483429Y-96136495D01*
X150169143Y-97222209D02*
X150054858Y-97165067D01*
X150054858Y-97165067D02*
X149997715Y-97050781D01*
X149997715Y-97050781D02*
X149997715Y-96022209D01*
X150797714Y-97222209D02*
X150683429Y-97165067D01*
X150683429Y-97165067D02*
X150626286Y-97107924D01*
X150626286Y-97107924D02*
X150569143Y-96993638D01*
X150569143Y-96993638D02*
X150569143Y-96650781D01*
X150569143Y-96650781D02*
X150626286Y-96536495D01*
X150626286Y-96536495D02*
X150683429Y-96479352D01*
X150683429Y-96479352D02*
X150797714Y-96422209D01*
X150797714Y-96422209D02*
X150969143Y-96422209D01*
X150969143Y-96422209D02*
X151083429Y-96479352D01*
X151083429Y-96479352D02*
X151140572Y-96536495D01*
X151140572Y-96536495D02*
X151197714Y-96650781D01*
X151197714Y-96650781D02*
X151197714Y-96993638D01*
X151197714Y-96993638D02*
X151140572Y-97107924D01*
X151140572Y-97107924D02*
X151083429Y-97165067D01*
X151083429Y-97165067D02*
X150969143Y-97222209D01*
X150969143Y-97222209D02*
X150797714Y-97222209D01*
X151712000Y-96422209D02*
X151712000Y-97222209D01*
X151712000Y-96536495D02*
X151769143Y-96479352D01*
X151769143Y-96479352D02*
X151883428Y-96422209D01*
X151883428Y-96422209D02*
X152054857Y-96422209D01*
X152054857Y-96422209D02*
X152169143Y-96479352D01*
X152169143Y-96479352D02*
X152226286Y-96593638D01*
X152226286Y-96593638D02*
X152226286Y-97222209D01*
X153254857Y-97165067D02*
X153140571Y-97222209D01*
X153140571Y-97222209D02*
X152912000Y-97222209D01*
X152912000Y-97222209D02*
X152797714Y-97165067D01*
X152797714Y-97165067D02*
X152740571Y-97050781D01*
X152740571Y-97050781D02*
X152740571Y-96593638D01*
X152740571Y-96593638D02*
X152797714Y-96479352D01*
X152797714Y-96479352D02*
X152912000Y-96422209D01*
X152912000Y-96422209D02*
X153140571Y-96422209D01*
X153140571Y-96422209D02*
X153254857Y-96479352D01*
X153254857Y-96479352D02*
X153312000Y-96593638D01*
X153312000Y-96593638D02*
X153312000Y-96707924D01*
X153312000Y-96707924D02*
X152740571Y-96822209D01*
X154340571Y-97222209D02*
X154340571Y-96022209D01*
X154340571Y-97165067D02*
X154226285Y-97222209D01*
X154226285Y-97222209D02*
X153997713Y-97222209D01*
X153997713Y-97222209D02*
X153883428Y-97165067D01*
X153883428Y-97165067D02*
X153826285Y-97107924D01*
X153826285Y-97107924D02*
X153769142Y-96993638D01*
X153769142Y-96993638D02*
X153769142Y-96650781D01*
X153769142Y-96650781D02*
X153826285Y-96536495D01*
X153826285Y-96536495D02*
X153883428Y-96479352D01*
X153883428Y-96479352D02*
X153997713Y-96422209D01*
X153997713Y-96422209D02*
X154226285Y-96422209D01*
X154226285Y-96422209D02*
X154340571Y-96479352D01*
X155826285Y-97222209D02*
X155826285Y-96022209D01*
X155826285Y-96479352D02*
X155940571Y-96422209D01*
X155940571Y-96422209D02*
X156169142Y-96422209D01*
X156169142Y-96422209D02*
X156283428Y-96479352D01*
X156283428Y-96479352D02*
X156340571Y-96536495D01*
X156340571Y-96536495D02*
X156397713Y-96650781D01*
X156397713Y-96650781D02*
X156397713Y-96993638D01*
X156397713Y-96993638D02*
X156340571Y-97107924D01*
X156340571Y-97107924D02*
X156283428Y-97165067D01*
X156283428Y-97165067D02*
X156169142Y-97222209D01*
X156169142Y-97222209D02*
X155940571Y-97222209D01*
X155940571Y-97222209D02*
X155826285Y-97165067D01*
X156797713Y-96422209D02*
X157083427Y-97222209D01*
X157369142Y-96422209D02*
X157083427Y-97222209D01*
X157083427Y-97222209D02*
X156969142Y-97507924D01*
X156969142Y-97507924D02*
X156911999Y-97565067D01*
X156911999Y-97565067D02*
X156797713Y-97622209D01*
X158683428Y-97165067D02*
X158854857Y-97222209D01*
X158854857Y-97222209D02*
X159140571Y-97222209D01*
X159140571Y-97222209D02*
X159254857Y-97165067D01*
X159254857Y-97165067D02*
X159311999Y-97107924D01*
X159311999Y-97107924D02*
X159369142Y-96993638D01*
X159369142Y-96993638D02*
X159369142Y-96879352D01*
X159369142Y-96879352D02*
X159311999Y-96765067D01*
X159311999Y-96765067D02*
X159254857Y-96707924D01*
X159254857Y-96707924D02*
X159140571Y-96650781D01*
X159140571Y-96650781D02*
X158911999Y-96593638D01*
X158911999Y-96593638D02*
X158797714Y-96536495D01*
X158797714Y-96536495D02*
X158740571Y-96479352D01*
X158740571Y-96479352D02*
X158683428Y-96365067D01*
X158683428Y-96365067D02*
X158683428Y-96250781D01*
X158683428Y-96250781D02*
X158740571Y-96136495D01*
X158740571Y-96136495D02*
X158797714Y-96079352D01*
X158797714Y-96079352D02*
X158911999Y-96022209D01*
X158911999Y-96022209D02*
X159197714Y-96022209D01*
X159197714Y-96022209D02*
X159369142Y-96079352D01*
X159711999Y-96422209D02*
X160169142Y-96422209D01*
X159883428Y-96022209D02*
X159883428Y-97050781D01*
X159883428Y-97050781D02*
X159940571Y-97165067D01*
X159940571Y-97165067D02*
X160054856Y-97222209D01*
X160054856Y-97222209D02*
X160169142Y-97222209D01*
X161026285Y-97165067D02*
X160911999Y-97222209D01*
X160911999Y-97222209D02*
X160683428Y-97222209D01*
X160683428Y-97222209D02*
X160569142Y-97165067D01*
X160569142Y-97165067D02*
X160511999Y-97050781D01*
X160511999Y-97050781D02*
X160511999Y-96593638D01*
X160511999Y-96593638D02*
X160569142Y-96479352D01*
X160569142Y-96479352D02*
X160683428Y-96422209D01*
X160683428Y-96422209D02*
X160911999Y-96422209D01*
X160911999Y-96422209D02*
X161026285Y-96479352D01*
X161026285Y-96479352D02*
X161083428Y-96593638D01*
X161083428Y-96593638D02*
X161083428Y-96707924D01*
X161083428Y-96707924D02*
X160511999Y-96822209D01*
X161483427Y-96422209D02*
X161769141Y-97222209D01*
X161769141Y-97222209D02*
X162054856Y-96422209D01*
X162969142Y-97165067D02*
X162854856Y-97222209D01*
X162854856Y-97222209D02*
X162626285Y-97222209D01*
X162626285Y-97222209D02*
X162511999Y-97165067D01*
X162511999Y-97165067D02*
X162454856Y-97050781D01*
X162454856Y-97050781D02*
X162454856Y-96593638D01*
X162454856Y-96593638D02*
X162511999Y-96479352D01*
X162511999Y-96479352D02*
X162626285Y-96422209D01*
X162626285Y-96422209D02*
X162854856Y-96422209D01*
X162854856Y-96422209D02*
X162969142Y-96479352D01*
X162969142Y-96479352D02*
X163026285Y-96593638D01*
X163026285Y-96593638D02*
X163026285Y-96707924D01*
X163026285Y-96707924D02*
X162454856Y-96822209D01*
X164797713Y-96022209D02*
X164797713Y-96879352D01*
X164797713Y-96879352D02*
X164740570Y-97050781D01*
X164740570Y-97050781D02*
X164626284Y-97165067D01*
X164626284Y-97165067D02*
X164454856Y-97222209D01*
X164454856Y-97222209D02*
X164340570Y-97222209D01*
X165369142Y-97107924D02*
X165426285Y-97165067D01*
X165426285Y-97165067D02*
X165369142Y-97222209D01*
X165369142Y-97222209D02*
X165311999Y-97165067D01*
X165311999Y-97165067D02*
X165369142Y-97107924D01*
X165369142Y-97107924D02*
X165369142Y-97222209D01*
X167483428Y-96079352D02*
X167369143Y-96022209D01*
X167369143Y-96022209D02*
X167197714Y-96022209D01*
X167197714Y-96022209D02*
X167026285Y-96079352D01*
X167026285Y-96079352D02*
X166912000Y-96193638D01*
X166912000Y-96193638D02*
X166854857Y-96307924D01*
X166854857Y-96307924D02*
X166797714Y-96536495D01*
X166797714Y-96536495D02*
X166797714Y-96707924D01*
X166797714Y-96707924D02*
X166854857Y-96936495D01*
X166854857Y-96936495D02*
X166912000Y-97050781D01*
X166912000Y-97050781D02*
X167026285Y-97165067D01*
X167026285Y-97165067D02*
X167197714Y-97222209D01*
X167197714Y-97222209D02*
X167312000Y-97222209D01*
X167312000Y-97222209D02*
X167483428Y-97165067D01*
X167483428Y-97165067D02*
X167540571Y-97107924D01*
X167540571Y-97107924D02*
X167540571Y-96707924D01*
X167540571Y-96707924D02*
X167312000Y-96707924D01*
X168054857Y-97222209D02*
X168054857Y-96422209D01*
X168054857Y-96650781D02*
X168112000Y-96536495D01*
X168112000Y-96536495D02*
X168169143Y-96479352D01*
X168169143Y-96479352D02*
X168283428Y-96422209D01*
X168283428Y-96422209D02*
X168397714Y-96422209D01*
X169312000Y-97222209D02*
X169312000Y-96593638D01*
X169312000Y-96593638D02*
X169254857Y-96479352D01*
X169254857Y-96479352D02*
X169140571Y-96422209D01*
X169140571Y-96422209D02*
X168912000Y-96422209D01*
X168912000Y-96422209D02*
X168797714Y-96479352D01*
X169312000Y-97165067D02*
X169197714Y-97222209D01*
X169197714Y-97222209D02*
X168912000Y-97222209D01*
X168912000Y-97222209D02*
X168797714Y-97165067D01*
X168797714Y-97165067D02*
X168740571Y-97050781D01*
X168740571Y-97050781D02*
X168740571Y-96936495D01*
X168740571Y-96936495D02*
X168797714Y-96822209D01*
X168797714Y-96822209D02*
X168912000Y-96765067D01*
X168912000Y-96765067D02*
X169197714Y-96765067D01*
X169197714Y-96765067D02*
X169312000Y-96707924D01*
X169769142Y-96422209D02*
X170054856Y-97222209D01*
X170340571Y-96422209D02*
X170054856Y-97222209D01*
X170054856Y-97222209D02*
X169940571Y-97507924D01*
X169940571Y-97507924D02*
X169883428Y-97565067D01*
X169883428Y-97565067D02*
X169769142Y-97622209D01*
X149969143Y-97954142D02*
X150369143Y-99154142D01*
X150369143Y-99154142D02*
X150769143Y-97954142D01*
X151797714Y-99154142D02*
X151112000Y-99154142D01*
X151454857Y-99154142D02*
X151454857Y-97954142D01*
X151454857Y-97954142D02*
X151340571Y-98125571D01*
X151340571Y-98125571D02*
X151226286Y-98239857D01*
X151226286Y-98239857D02*
X151112000Y-98297000D01*
X152312000Y-99039857D02*
X152369143Y-99097000D01*
X152369143Y-99097000D02*
X152312000Y-99154142D01*
X152312000Y-99154142D02*
X152254857Y-99097000D01*
X152254857Y-99097000D02*
X152312000Y-99039857D01*
X152312000Y-99039857D02*
X152312000Y-99154142D01*
X153512000Y-99154142D02*
X152826286Y-99154142D01*
X153169143Y-99154142D02*
X153169143Y-97954142D01*
X153169143Y-97954142D02*
X153054857Y-98125571D01*
X153054857Y-98125571D02*
X152940572Y-98239857D01*
X152940572Y-98239857D02*
X152826286Y-98297000D01*
X154940572Y-98697000D02*
X155854858Y-98697000D01*
X157283429Y-98068428D02*
X157340572Y-98011285D01*
X157340572Y-98011285D02*
X157454858Y-97954142D01*
X157454858Y-97954142D02*
X157740572Y-97954142D01*
X157740572Y-97954142D02*
X157854858Y-98011285D01*
X157854858Y-98011285D02*
X157912000Y-98068428D01*
X157912000Y-98068428D02*
X157969143Y-98182714D01*
X157969143Y-98182714D02*
X157969143Y-98297000D01*
X157969143Y-98297000D02*
X157912000Y-98468428D01*
X157912000Y-98468428D02*
X157226286Y-99154142D01*
X157226286Y-99154142D02*
X157969143Y-99154142D01*
X158712000Y-97954142D02*
X158826286Y-97954142D01*
X158826286Y-97954142D02*
X158940572Y-98011285D01*
X158940572Y-98011285D02*
X158997715Y-98068428D01*
X158997715Y-98068428D02*
X159054857Y-98182714D01*
X159054857Y-98182714D02*
X159112000Y-98411285D01*
X159112000Y-98411285D02*
X159112000Y-98697000D01*
X159112000Y-98697000D02*
X159054857Y-98925571D01*
X159054857Y-98925571D02*
X158997715Y-99039857D01*
X158997715Y-99039857D02*
X158940572Y-99097000D01*
X158940572Y-99097000D02*
X158826286Y-99154142D01*
X158826286Y-99154142D02*
X158712000Y-99154142D01*
X158712000Y-99154142D02*
X158597715Y-99097000D01*
X158597715Y-99097000D02*
X158540572Y-99039857D01*
X158540572Y-99039857D02*
X158483429Y-98925571D01*
X158483429Y-98925571D02*
X158426286Y-98697000D01*
X158426286Y-98697000D02*
X158426286Y-98411285D01*
X158426286Y-98411285D02*
X158483429Y-98182714D01*
X158483429Y-98182714D02*
X158540572Y-98068428D01*
X158540572Y-98068428D02*
X158597715Y-98011285D01*
X158597715Y-98011285D02*
X158712000Y-97954142D01*
X159569143Y-98068428D02*
X159626286Y-98011285D01*
X159626286Y-98011285D02*
X159740572Y-97954142D01*
X159740572Y-97954142D02*
X160026286Y-97954142D01*
X160026286Y-97954142D02*
X160140572Y-98011285D01*
X160140572Y-98011285D02*
X160197714Y-98068428D01*
X160197714Y-98068428D02*
X160254857Y-98182714D01*
X160254857Y-98182714D02*
X160254857Y-98297000D01*
X160254857Y-98297000D02*
X160197714Y-98468428D01*
X160197714Y-98468428D02*
X159512000Y-99154142D01*
X159512000Y-99154142D02*
X160254857Y-99154142D01*
X161340571Y-97954142D02*
X160769143Y-97954142D01*
X160769143Y-97954142D02*
X160712000Y-98525571D01*
X160712000Y-98525571D02*
X160769143Y-98468428D01*
X160769143Y-98468428D02*
X160883429Y-98411285D01*
X160883429Y-98411285D02*
X161169143Y-98411285D01*
X161169143Y-98411285D02*
X161283429Y-98468428D01*
X161283429Y-98468428D02*
X161340571Y-98525571D01*
X161340571Y-98525571D02*
X161397714Y-98639857D01*
X161397714Y-98639857D02*
X161397714Y-98925571D01*
X161397714Y-98925571D02*
X161340571Y-99039857D01*
X161340571Y-99039857D02*
X161283429Y-99097000D01*
X161283429Y-99097000D02*
X161169143Y-99154142D01*
X161169143Y-99154142D02*
X160883429Y-99154142D01*
X160883429Y-99154142D02*
X160769143Y-99097000D01*
X160769143Y-99097000D02*
X160712000Y-99039857D01*
X161912000Y-98697000D02*
X162826286Y-98697000D01*
X163626285Y-97954142D02*
X163740571Y-97954142D01*
X163740571Y-97954142D02*
X163854857Y-98011285D01*
X163854857Y-98011285D02*
X163912000Y-98068428D01*
X163912000Y-98068428D02*
X163969142Y-98182714D01*
X163969142Y-98182714D02*
X164026285Y-98411285D01*
X164026285Y-98411285D02*
X164026285Y-98697000D01*
X164026285Y-98697000D02*
X163969142Y-98925571D01*
X163969142Y-98925571D02*
X163912000Y-99039857D01*
X163912000Y-99039857D02*
X163854857Y-99097000D01*
X163854857Y-99097000D02*
X163740571Y-99154142D01*
X163740571Y-99154142D02*
X163626285Y-99154142D01*
X163626285Y-99154142D02*
X163512000Y-99097000D01*
X163512000Y-99097000D02*
X163454857Y-99039857D01*
X163454857Y-99039857D02*
X163397714Y-98925571D01*
X163397714Y-98925571D02*
X163340571Y-98697000D01*
X163340571Y-98697000D02*
X163340571Y-98411285D01*
X163340571Y-98411285D02*
X163397714Y-98182714D01*
X163397714Y-98182714D02*
X163454857Y-98068428D01*
X163454857Y-98068428D02*
X163512000Y-98011285D01*
X163512000Y-98011285D02*
X163626285Y-97954142D01*
X165054857Y-98354142D02*
X165054857Y-99154142D01*
X164769142Y-97897000D02*
X164483428Y-98754142D01*
X164483428Y-98754142D02*
X165226285Y-98754142D01*
X165683428Y-98697000D02*
X166597714Y-98697000D01*
X167397713Y-97954142D02*
X167511999Y-97954142D01*
X167511999Y-97954142D02*
X167626285Y-98011285D01*
X167626285Y-98011285D02*
X167683428Y-98068428D01*
X167683428Y-98068428D02*
X167740570Y-98182714D01*
X167740570Y-98182714D02*
X167797713Y-98411285D01*
X167797713Y-98411285D02*
X167797713Y-98697000D01*
X167797713Y-98697000D02*
X167740570Y-98925571D01*
X167740570Y-98925571D02*
X167683428Y-99039857D01*
X167683428Y-99039857D02*
X167626285Y-99097000D01*
X167626285Y-99097000D02*
X167511999Y-99154142D01*
X167511999Y-99154142D02*
X167397713Y-99154142D01*
X167397713Y-99154142D02*
X167283428Y-99097000D01*
X167283428Y-99097000D02*
X167226285Y-99039857D01*
X167226285Y-99039857D02*
X167169142Y-98925571D01*
X167169142Y-98925571D02*
X167111999Y-98697000D01*
X167111999Y-98697000D02*
X167111999Y-98411285D01*
X167111999Y-98411285D02*
X167169142Y-98182714D01*
X167169142Y-98182714D02*
X167226285Y-98068428D01*
X167226285Y-98068428D02*
X167283428Y-98011285D01*
X167283428Y-98011285D02*
X167397713Y-97954142D01*
X168826285Y-98354142D02*
X168826285Y-99154142D01*
X168540570Y-97897000D02*
X168254856Y-98754142D01*
X168254856Y-98754142D02*
X168997713Y-98754142D01*
D11*
X163368510Y-56696828D02*
X163368510Y-55196828D01*
X164082796Y-55911114D02*
X164582796Y-55911114D01*
X164797082Y-56696828D02*
X164082796Y-56696828D01*
X164082796Y-56696828D02*
X164082796Y-55196828D01*
X164082796Y-55196828D02*
X164797082Y-55196828D01*
X165439939Y-55911114D02*
X165939939Y-55911114D01*
X166154225Y-56696828D02*
X165439939Y-56696828D01*
X165439939Y-56696828D02*
X165439939Y-55196828D01*
X165439939Y-55196828D02*
X166154225Y-55196828D01*
X166797082Y-55911114D02*
X167297082Y-55911114D01*
X167511368Y-56696828D02*
X166797082Y-56696828D01*
X166797082Y-56696828D02*
X166797082Y-55196828D01*
X166797082Y-55196828D02*
X167511368Y-55196828D01*
X169297082Y-56696828D02*
X169297082Y-55196828D01*
X169297082Y-55196828D02*
X169868511Y-55196828D01*
X169868511Y-55196828D02*
X170011368Y-55268257D01*
X170011368Y-55268257D02*
X170082797Y-55339685D01*
X170082797Y-55339685D02*
X170154225Y-55482542D01*
X170154225Y-55482542D02*
X170154225Y-55696828D01*
X170154225Y-55696828D02*
X170082797Y-55839685D01*
X170082797Y-55839685D02*
X170011368Y-55911114D01*
X170011368Y-55911114D02*
X169868511Y-55982542D01*
X169868511Y-55982542D02*
X169297082Y-55982542D01*
X171082797Y-55196828D02*
X171368511Y-55196828D01*
X171368511Y-55196828D02*
X171511368Y-55268257D01*
X171511368Y-55268257D02*
X171654225Y-55411114D01*
X171654225Y-55411114D02*
X171725654Y-55696828D01*
X171725654Y-55696828D02*
X171725654Y-56196828D01*
X171725654Y-56196828D02*
X171654225Y-56482542D01*
X171654225Y-56482542D02*
X171511368Y-56625400D01*
X171511368Y-56625400D02*
X171368511Y-56696828D01*
X171368511Y-56696828D02*
X171082797Y-56696828D01*
X171082797Y-56696828D02*
X170939940Y-56625400D01*
X170939940Y-56625400D02*
X170797082Y-56482542D01*
X170797082Y-56482542D02*
X170725654Y-56196828D01*
X170725654Y-56196828D02*
X170725654Y-55696828D01*
X170725654Y-55696828D02*
X170797082Y-55411114D01*
X170797082Y-55411114D02*
X170939940Y-55268257D01*
X170939940Y-55268257D02*
X171082797Y-55196828D01*
X173225654Y-56696828D02*
X172725654Y-55982542D01*
X172368511Y-56696828D02*
X172368511Y-55196828D01*
X172368511Y-55196828D02*
X172939940Y-55196828D01*
X172939940Y-55196828D02*
X173082797Y-55268257D01*
X173082797Y-55268257D02*
X173154226Y-55339685D01*
X173154226Y-55339685D02*
X173225654Y-55482542D01*
X173225654Y-55482542D02*
X173225654Y-55696828D01*
X173225654Y-55696828D02*
X173154226Y-55839685D01*
X173154226Y-55839685D02*
X173082797Y-55911114D01*
X173082797Y-55911114D02*
X172939940Y-55982542D01*
X172939940Y-55982542D02*
X172368511Y-55982542D01*
X173654226Y-55196828D02*
X174511369Y-55196828D01*
X174082797Y-56696828D02*
X174082797Y-55196828D01*
X134269653Y-105488828D02*
X135269653Y-105488828D01*
X135269653Y-105488828D02*
X134626796Y-106988828D01*
X136483939Y-105988828D02*
X136483939Y-106988828D01*
X136126796Y-105417400D02*
X135769653Y-106488828D01*
X135769653Y-106488828D02*
X136698224Y-106488828D01*
X137983938Y-106988828D02*
X137269652Y-106988828D01*
X137269652Y-106988828D02*
X137269652Y-105488828D01*
X138412510Y-106917400D02*
X138626796Y-106988828D01*
X138626796Y-106988828D02*
X138983938Y-106988828D01*
X138983938Y-106988828D02*
X139126796Y-106917400D01*
X139126796Y-106917400D02*
X139198224Y-106845971D01*
X139198224Y-106845971D02*
X139269653Y-106703114D01*
X139269653Y-106703114D02*
X139269653Y-106560257D01*
X139269653Y-106560257D02*
X139198224Y-106417400D01*
X139198224Y-106417400D02*
X139126796Y-106345971D01*
X139126796Y-106345971D02*
X138983938Y-106274542D01*
X138983938Y-106274542D02*
X138698224Y-106203114D01*
X138698224Y-106203114D02*
X138555367Y-106131685D01*
X138555367Y-106131685D02*
X138483938Y-106060257D01*
X138483938Y-106060257D02*
X138412510Y-105917400D01*
X138412510Y-105917400D02*
X138412510Y-105774542D01*
X138412510Y-105774542D02*
X138483938Y-105631685D01*
X138483938Y-105631685D02*
X138555367Y-105560257D01*
X138555367Y-105560257D02*
X138698224Y-105488828D01*
X138698224Y-105488828D02*
X139055367Y-105488828D01*
X139055367Y-105488828D02*
X139269653Y-105560257D01*
X139769652Y-105488828D02*
X140698224Y-105488828D01*
X140698224Y-105488828D02*
X140198224Y-106060257D01*
X140198224Y-106060257D02*
X140412509Y-106060257D01*
X140412509Y-106060257D02*
X140555367Y-106131685D01*
X140555367Y-106131685D02*
X140626795Y-106203114D01*
X140626795Y-106203114D02*
X140698224Y-106345971D01*
X140698224Y-106345971D02*
X140698224Y-106703114D01*
X140698224Y-106703114D02*
X140626795Y-106845971D01*
X140626795Y-106845971D02*
X140555367Y-106917400D01*
X140555367Y-106917400D02*
X140412509Y-106988828D01*
X140412509Y-106988828D02*
X139983938Y-106988828D01*
X139983938Y-106988828D02*
X139841081Y-106917400D01*
X139841081Y-106917400D02*
X139769652Y-106845971D01*
X141626795Y-105488828D02*
X141769652Y-105488828D01*
X141769652Y-105488828D02*
X141912509Y-105560257D01*
X141912509Y-105560257D02*
X141983938Y-105631685D01*
X141983938Y-105631685D02*
X142055366Y-105774542D01*
X142055366Y-105774542D02*
X142126795Y-106060257D01*
X142126795Y-106060257D02*
X142126795Y-106417400D01*
X142126795Y-106417400D02*
X142055366Y-106703114D01*
X142055366Y-106703114D02*
X141983938Y-106845971D01*
X141983938Y-106845971D02*
X141912509Y-106917400D01*
X141912509Y-106917400D02*
X141769652Y-106988828D01*
X141769652Y-106988828D02*
X141626795Y-106988828D01*
X141626795Y-106988828D02*
X141483938Y-106917400D01*
X141483938Y-106917400D02*
X141412509Y-106845971D01*
X141412509Y-106845971D02*
X141341080Y-106703114D01*
X141341080Y-106703114D02*
X141269652Y-106417400D01*
X141269652Y-106417400D02*
X141269652Y-106060257D01*
X141269652Y-106060257D02*
X141341080Y-105774542D01*
X141341080Y-105774542D02*
X141412509Y-105631685D01*
X141412509Y-105631685D02*
X141483938Y-105560257D01*
X141483938Y-105560257D02*
X141626795Y-105488828D01*
X183950828Y-76963203D02*
X183950828Y-77677489D01*
X183950828Y-77677489D02*
X182450828Y-77677489D01*
X183950828Y-76463203D02*
X182450828Y-76463203D01*
X183950828Y-75748917D02*
X182450828Y-75748917D01*
X182450828Y-75748917D02*
X183950828Y-74891774D01*
X183950828Y-74891774D02*
X182450828Y-74891774D01*
X183950828Y-74177488D02*
X182450828Y-74177488D01*
X183950828Y-73320345D02*
X183093685Y-73963202D01*
X182450828Y-73320345D02*
X183307971Y-74177488D01*
X183950828Y-71534631D02*
X182450828Y-71534631D01*
X182450828Y-71534631D02*
X182450828Y-70963202D01*
X182450828Y-70963202D02*
X182522257Y-70820345D01*
X182522257Y-70820345D02*
X182593685Y-70748916D01*
X182593685Y-70748916D02*
X182736542Y-70677488D01*
X182736542Y-70677488D02*
X182950828Y-70677488D01*
X182950828Y-70677488D02*
X183093685Y-70748916D01*
X183093685Y-70748916D02*
X183165114Y-70820345D01*
X183165114Y-70820345D02*
X183236542Y-70963202D01*
X183236542Y-70963202D02*
X183236542Y-71534631D01*
X182450828Y-69748916D02*
X182450828Y-69463202D01*
X182450828Y-69463202D02*
X182522257Y-69320345D01*
X182522257Y-69320345D02*
X182665114Y-69177488D01*
X182665114Y-69177488D02*
X182950828Y-69106059D01*
X182950828Y-69106059D02*
X183450828Y-69106059D01*
X183450828Y-69106059D02*
X183736542Y-69177488D01*
X183736542Y-69177488D02*
X183879400Y-69320345D01*
X183879400Y-69320345D02*
X183950828Y-69463202D01*
X183950828Y-69463202D02*
X183950828Y-69748916D01*
X183950828Y-69748916D02*
X183879400Y-69891774D01*
X183879400Y-69891774D02*
X183736542Y-70034631D01*
X183736542Y-70034631D02*
X183450828Y-70106059D01*
X183450828Y-70106059D02*
X182950828Y-70106059D01*
X182950828Y-70106059D02*
X182665114Y-70034631D01*
X182665114Y-70034631D02*
X182522257Y-69891774D01*
X182522257Y-69891774D02*
X182450828Y-69748916D01*
X183950828Y-67606059D02*
X183236542Y-68106059D01*
X183950828Y-68463202D02*
X182450828Y-68463202D01*
X182450828Y-68463202D02*
X182450828Y-67891773D01*
X182450828Y-67891773D02*
X182522257Y-67748916D01*
X182522257Y-67748916D02*
X182593685Y-67677487D01*
X182593685Y-67677487D02*
X182736542Y-67606059D01*
X182736542Y-67606059D02*
X182950828Y-67606059D01*
X182950828Y-67606059D02*
X183093685Y-67677487D01*
X183093685Y-67677487D02*
X183165114Y-67748916D01*
X183165114Y-67748916D02*
X183236542Y-67891773D01*
X183236542Y-67891773D02*
X183236542Y-68463202D01*
X182450828Y-67177487D02*
X182450828Y-66320345D01*
X183950828Y-66748916D02*
X182450828Y-66748916D01*
D10*
X184969363Y-94380207D02*
X184921744Y-94332588D01*
X184921744Y-94332588D02*
X184874124Y-94189731D01*
X184874124Y-94189731D02*
X184874124Y-94094493D01*
X184874124Y-94094493D02*
X184921744Y-93951636D01*
X184921744Y-93951636D02*
X185016982Y-93856398D01*
X185016982Y-93856398D02*
X185112220Y-93808779D01*
X185112220Y-93808779D02*
X185302696Y-93761160D01*
X185302696Y-93761160D02*
X185445553Y-93761160D01*
X185445553Y-93761160D02*
X185636029Y-93808779D01*
X185636029Y-93808779D02*
X185731267Y-93856398D01*
X185731267Y-93856398D02*
X185826505Y-93951636D01*
X185826505Y-93951636D02*
X185874124Y-94094493D01*
X185874124Y-94094493D02*
X185874124Y-94189731D01*
X185874124Y-94189731D02*
X185826505Y-94332588D01*
X185826505Y-94332588D02*
X185778886Y-94380207D01*
X185874124Y-95237350D02*
X185874124Y-95046874D01*
X185874124Y-95046874D02*
X185826505Y-94951636D01*
X185826505Y-94951636D02*
X185778886Y-94904017D01*
X185778886Y-94904017D02*
X185636029Y-94808779D01*
X185636029Y-94808779D02*
X185445553Y-94761160D01*
X185445553Y-94761160D02*
X185064601Y-94761160D01*
X185064601Y-94761160D02*
X184969363Y-94808779D01*
X184969363Y-94808779D02*
X184921744Y-94856398D01*
X184921744Y-94856398D02*
X184874124Y-94951636D01*
X184874124Y-94951636D02*
X184874124Y-95142112D01*
X184874124Y-95142112D02*
X184921744Y-95237350D01*
X184921744Y-95237350D02*
X184969363Y-95284969D01*
X184969363Y-95284969D02*
X185064601Y-95332588D01*
X185064601Y-95332588D02*
X185302696Y-95332588D01*
X185302696Y-95332588D02*
X185397934Y-95284969D01*
X185397934Y-95284969D02*
X185445553Y-95237350D01*
X185445553Y-95237350D02*
X185493172Y-95142112D01*
X185493172Y-95142112D02*
X185493172Y-94951636D01*
X185493172Y-94951636D02*
X185445553Y-94856398D01*
X185445553Y-94856398D02*
X185397934Y-94808779D01*
X185397934Y-94808779D02*
X185302696Y-94761160D01*
X185540791Y-96189731D02*
X184874124Y-96189731D01*
X185921744Y-95951636D02*
X185207458Y-95713541D01*
X185207458Y-95713541D02*
X185207458Y-96332588D01*
X184874124Y-97951636D02*
X184874124Y-97475446D01*
X184874124Y-97475446D02*
X185874124Y-97475446D01*
X184874124Y-98284970D02*
X185874124Y-98284970D01*
X184874124Y-98761160D02*
X185874124Y-98761160D01*
X185874124Y-98761160D02*
X184874124Y-99332588D01*
X184874124Y-99332588D02*
X185874124Y-99332588D01*
X184874124Y-99808779D02*
X185874124Y-99808779D01*
X184874124Y-100380207D02*
X185445553Y-99951636D01*
X185874124Y-100380207D02*
X185302696Y-99808779D01*
X184874124Y-101570684D02*
X185874124Y-101570684D01*
X184874124Y-102046874D02*
X185874124Y-102046874D01*
X184921744Y-103237350D02*
X184874124Y-103380207D01*
X184874124Y-103380207D02*
X184874124Y-103618302D01*
X184874124Y-103618302D02*
X184921744Y-103713540D01*
X184921744Y-103713540D02*
X184969363Y-103761159D01*
X184969363Y-103761159D02*
X185064601Y-103808778D01*
X185064601Y-103808778D02*
X185159839Y-103808778D01*
X185159839Y-103808778D02*
X185255077Y-103761159D01*
X185255077Y-103761159D02*
X185302696Y-103713540D01*
X185302696Y-103713540D02*
X185350315Y-103618302D01*
X185350315Y-103618302D02*
X185397934Y-103427826D01*
X185397934Y-103427826D02*
X185445553Y-103332588D01*
X185445553Y-103332588D02*
X185493172Y-103284969D01*
X185493172Y-103284969D02*
X185588410Y-103237350D01*
X185588410Y-103237350D02*
X185683648Y-103237350D01*
X185683648Y-103237350D02*
X185778886Y-103284969D01*
X185778886Y-103284969D02*
X185826505Y-103332588D01*
X185826505Y-103332588D02*
X185874124Y-103427826D01*
X185874124Y-103427826D02*
X185874124Y-103665921D01*
X185874124Y-103665921D02*
X185826505Y-103808778D01*
X184874124Y-104237350D02*
X185540791Y-104237350D01*
X185874124Y-104237350D02*
X185826505Y-104189731D01*
X185826505Y-104189731D02*
X185778886Y-104237350D01*
X185778886Y-104237350D02*
X185826505Y-104284969D01*
X185826505Y-104284969D02*
X185874124Y-104237350D01*
X185874124Y-104237350D02*
X185778886Y-104237350D01*
X184874124Y-105142111D02*
X185874124Y-105142111D01*
X184921744Y-105142111D02*
X184874124Y-105046873D01*
X184874124Y-105046873D02*
X184874124Y-104856397D01*
X184874124Y-104856397D02*
X184921744Y-104761159D01*
X184921744Y-104761159D02*
X184969363Y-104713540D01*
X184969363Y-104713540D02*
X185064601Y-104665921D01*
X185064601Y-104665921D02*
X185350315Y-104665921D01*
X185350315Y-104665921D02*
X185445553Y-104713540D01*
X185445553Y-104713540D02*
X185493172Y-104761159D01*
X185493172Y-104761159D02*
X185540791Y-104856397D01*
X185540791Y-104856397D02*
X185540791Y-105046873D01*
X185540791Y-105046873D02*
X185493172Y-105142111D01*
X184921744Y-105999254D02*
X184874124Y-105904016D01*
X184874124Y-105904016D02*
X184874124Y-105713540D01*
X184874124Y-105713540D02*
X184921744Y-105618302D01*
X184921744Y-105618302D02*
X185016982Y-105570683D01*
X185016982Y-105570683D02*
X185397934Y-105570683D01*
X185397934Y-105570683D02*
X185493172Y-105618302D01*
X185493172Y-105618302D02*
X185540791Y-105713540D01*
X185540791Y-105713540D02*
X185540791Y-105904016D01*
X185540791Y-105904016D02*
X185493172Y-105999254D01*
X185493172Y-105999254D02*
X185397934Y-106046873D01*
X185397934Y-106046873D02*
X185302696Y-106046873D01*
X185302696Y-106046873D02*
X185207458Y-105570683D01*
X185159839Y-107189731D02*
X185159839Y-107665921D01*
X184874124Y-107094493D02*
X185874124Y-107427826D01*
X185874124Y-107427826D02*
X184874124Y-107761159D01*
X183359419Y-94380207D02*
X183311800Y-94332588D01*
X183311800Y-94332588D02*
X183264180Y-94189731D01*
X183264180Y-94189731D02*
X183264180Y-94094493D01*
X183264180Y-94094493D02*
X183311800Y-93951636D01*
X183311800Y-93951636D02*
X183407038Y-93856398D01*
X183407038Y-93856398D02*
X183502276Y-93808779D01*
X183502276Y-93808779D02*
X183692752Y-93761160D01*
X183692752Y-93761160D02*
X183835609Y-93761160D01*
X183835609Y-93761160D02*
X184026085Y-93808779D01*
X184026085Y-93808779D02*
X184121323Y-93856398D01*
X184121323Y-93856398D02*
X184216561Y-93951636D01*
X184216561Y-93951636D02*
X184264180Y-94094493D01*
X184264180Y-94094493D02*
X184264180Y-94189731D01*
X184264180Y-94189731D02*
X184216561Y-94332588D01*
X184216561Y-94332588D02*
X184168942Y-94380207D01*
X183264180Y-94951636D02*
X183311800Y-94856398D01*
X183311800Y-94856398D02*
X183359419Y-94808779D01*
X183359419Y-94808779D02*
X183454657Y-94761160D01*
X183454657Y-94761160D02*
X183740371Y-94761160D01*
X183740371Y-94761160D02*
X183835609Y-94808779D01*
X183835609Y-94808779D02*
X183883228Y-94856398D01*
X183883228Y-94856398D02*
X183930847Y-94951636D01*
X183930847Y-94951636D02*
X183930847Y-95094493D01*
X183930847Y-95094493D02*
X183883228Y-95189731D01*
X183883228Y-95189731D02*
X183835609Y-95237350D01*
X183835609Y-95237350D02*
X183740371Y-95284969D01*
X183740371Y-95284969D02*
X183454657Y-95284969D01*
X183454657Y-95284969D02*
X183359419Y-95237350D01*
X183359419Y-95237350D02*
X183311800Y-95189731D01*
X183311800Y-95189731D02*
X183264180Y-95094493D01*
X183264180Y-95094493D02*
X183264180Y-94951636D01*
X183930847Y-95713541D02*
X182930847Y-95713541D01*
X183883228Y-95713541D02*
X183930847Y-95808779D01*
X183930847Y-95808779D02*
X183930847Y-95999255D01*
X183930847Y-95999255D02*
X183883228Y-96094493D01*
X183883228Y-96094493D02*
X183835609Y-96142112D01*
X183835609Y-96142112D02*
X183740371Y-96189731D01*
X183740371Y-96189731D02*
X183454657Y-96189731D01*
X183454657Y-96189731D02*
X183359419Y-96142112D01*
X183359419Y-96142112D02*
X183311800Y-96094493D01*
X183311800Y-96094493D02*
X183264180Y-95999255D01*
X183264180Y-95999255D02*
X183264180Y-95808779D01*
X183264180Y-95808779D02*
X183311800Y-95713541D01*
X183930847Y-96523065D02*
X183264180Y-96761160D01*
X183930847Y-96999255D02*
X183264180Y-96761160D01*
X183264180Y-96761160D02*
X183026085Y-96665922D01*
X183026085Y-96665922D02*
X182978466Y-96618303D01*
X182978466Y-96618303D02*
X182930847Y-96523065D01*
X183264180Y-97380208D02*
X183930847Y-97380208D01*
X183740371Y-97380208D02*
X183835609Y-97427827D01*
X183835609Y-97427827D02*
X183883228Y-97475446D01*
X183883228Y-97475446D02*
X183930847Y-97570684D01*
X183930847Y-97570684D02*
X183930847Y-97665922D01*
X183264180Y-97999256D02*
X183930847Y-97999256D01*
X184264180Y-97999256D02*
X184216561Y-97951637D01*
X184216561Y-97951637D02*
X184168942Y-97999256D01*
X184168942Y-97999256D02*
X184216561Y-98046875D01*
X184216561Y-98046875D02*
X184264180Y-97999256D01*
X184264180Y-97999256D02*
X184168942Y-97999256D01*
X183930847Y-98904017D02*
X183121323Y-98904017D01*
X183121323Y-98904017D02*
X183026085Y-98856398D01*
X183026085Y-98856398D02*
X182978466Y-98808779D01*
X182978466Y-98808779D02*
X182930847Y-98713541D01*
X182930847Y-98713541D02*
X182930847Y-98570684D01*
X182930847Y-98570684D02*
X182978466Y-98475446D01*
X183311800Y-98904017D02*
X183264180Y-98808779D01*
X183264180Y-98808779D02*
X183264180Y-98618303D01*
X183264180Y-98618303D02*
X183311800Y-98523065D01*
X183311800Y-98523065D02*
X183359419Y-98475446D01*
X183359419Y-98475446D02*
X183454657Y-98427827D01*
X183454657Y-98427827D02*
X183740371Y-98427827D01*
X183740371Y-98427827D02*
X183835609Y-98475446D01*
X183835609Y-98475446D02*
X183883228Y-98523065D01*
X183883228Y-98523065D02*
X183930847Y-98618303D01*
X183930847Y-98618303D02*
X183930847Y-98808779D01*
X183930847Y-98808779D02*
X183883228Y-98904017D01*
X183264180Y-99380208D02*
X184264180Y-99380208D01*
X183264180Y-99808779D02*
X183787990Y-99808779D01*
X183787990Y-99808779D02*
X183883228Y-99761160D01*
X183883228Y-99761160D02*
X183930847Y-99665922D01*
X183930847Y-99665922D02*
X183930847Y-99523065D01*
X183930847Y-99523065D02*
X183883228Y-99427827D01*
X183883228Y-99427827D02*
X183835609Y-99380208D01*
X183930847Y-100142113D02*
X183930847Y-100523065D01*
X184264180Y-100284970D02*
X183407038Y-100284970D01*
X183407038Y-100284970D02*
X183311800Y-100332589D01*
X183311800Y-100332589D02*
X183264180Y-100427827D01*
X183264180Y-100427827D02*
X183264180Y-100523065D01*
X183264180Y-102142113D02*
X183264180Y-101570685D01*
X183264180Y-101856399D02*
X184264180Y-101856399D01*
X184264180Y-101856399D02*
X184121323Y-101761161D01*
X184121323Y-101761161D02*
X184026085Y-101665923D01*
X184026085Y-101665923D02*
X183978466Y-101570685D01*
X183264180Y-102618304D02*
X183264180Y-102808780D01*
X183264180Y-102808780D02*
X183311800Y-102904018D01*
X183311800Y-102904018D02*
X183359419Y-102951637D01*
X183359419Y-102951637D02*
X183502276Y-103046875D01*
X183502276Y-103046875D02*
X183692752Y-103094494D01*
X183692752Y-103094494D02*
X184073704Y-103094494D01*
X184073704Y-103094494D02*
X184168942Y-103046875D01*
X184168942Y-103046875D02*
X184216561Y-102999256D01*
X184216561Y-102999256D02*
X184264180Y-102904018D01*
X184264180Y-102904018D02*
X184264180Y-102713542D01*
X184264180Y-102713542D02*
X184216561Y-102618304D01*
X184216561Y-102618304D02*
X184168942Y-102570685D01*
X184168942Y-102570685D02*
X184073704Y-102523066D01*
X184073704Y-102523066D02*
X183835609Y-102523066D01*
X183835609Y-102523066D02*
X183740371Y-102570685D01*
X183740371Y-102570685D02*
X183692752Y-102618304D01*
X183692752Y-102618304D02*
X183645133Y-102713542D01*
X183645133Y-102713542D02*
X183645133Y-102904018D01*
X183645133Y-102904018D02*
X183692752Y-102999256D01*
X183692752Y-102999256D02*
X183740371Y-103046875D01*
X183740371Y-103046875D02*
X183835609Y-103094494D01*
X183835609Y-103665923D02*
X183883228Y-103570685D01*
X183883228Y-103570685D02*
X183930847Y-103523066D01*
X183930847Y-103523066D02*
X184026085Y-103475447D01*
X184026085Y-103475447D02*
X184073704Y-103475447D01*
X184073704Y-103475447D02*
X184168942Y-103523066D01*
X184168942Y-103523066D02*
X184216561Y-103570685D01*
X184216561Y-103570685D02*
X184264180Y-103665923D01*
X184264180Y-103665923D02*
X184264180Y-103856399D01*
X184264180Y-103856399D02*
X184216561Y-103951637D01*
X184216561Y-103951637D02*
X184168942Y-103999256D01*
X184168942Y-103999256D02*
X184073704Y-104046875D01*
X184073704Y-104046875D02*
X184026085Y-104046875D01*
X184026085Y-104046875D02*
X183930847Y-103999256D01*
X183930847Y-103999256D02*
X183883228Y-103951637D01*
X183883228Y-103951637D02*
X183835609Y-103856399D01*
X183835609Y-103856399D02*
X183835609Y-103665923D01*
X183835609Y-103665923D02*
X183787990Y-103570685D01*
X183787990Y-103570685D02*
X183740371Y-103523066D01*
X183740371Y-103523066D02*
X183645133Y-103475447D01*
X183645133Y-103475447D02*
X183454657Y-103475447D01*
X183454657Y-103475447D02*
X183359419Y-103523066D01*
X183359419Y-103523066D02*
X183311800Y-103570685D01*
X183311800Y-103570685D02*
X183264180Y-103665923D01*
X183264180Y-103665923D02*
X183264180Y-103856399D01*
X183264180Y-103856399D02*
X183311800Y-103951637D01*
X183311800Y-103951637D02*
X183359419Y-103999256D01*
X183359419Y-103999256D02*
X183454657Y-104046875D01*
X183454657Y-104046875D02*
X183645133Y-104046875D01*
X183645133Y-104046875D02*
X183740371Y-103999256D01*
X183740371Y-103999256D02*
X183787990Y-103951637D01*
X183787990Y-103951637D02*
X183835609Y-103856399D01*
X183930847Y-104904018D02*
X183264180Y-104904018D01*
X184311800Y-104665923D02*
X183597514Y-104427828D01*
X183597514Y-104427828D02*
X183597514Y-105046875D01*
X183264180Y-106761161D02*
X183740371Y-106427828D01*
X183264180Y-106189733D02*
X184264180Y-106189733D01*
X184264180Y-106189733D02*
X184264180Y-106570685D01*
X184264180Y-106570685D02*
X184216561Y-106665923D01*
X184216561Y-106665923D02*
X184168942Y-106713542D01*
X184168942Y-106713542D02*
X184073704Y-106761161D01*
X184073704Y-106761161D02*
X183930847Y-106761161D01*
X183930847Y-106761161D02*
X183835609Y-106713542D01*
X183835609Y-106713542D02*
X183787990Y-106665923D01*
X183787990Y-106665923D02*
X183740371Y-106570685D01*
X183740371Y-106570685D02*
X183740371Y-106189733D01*
X184264180Y-107046876D02*
X184264180Y-107618304D01*
X183264180Y-107332590D02*
X184264180Y-107332590D01*
X183359419Y-108523066D02*
X183311800Y-108475447D01*
X183311800Y-108475447D02*
X183264180Y-108332590D01*
X183264180Y-108332590D02*
X183264180Y-108237352D01*
X183264180Y-108237352D02*
X183311800Y-108094495D01*
X183311800Y-108094495D02*
X183407038Y-107999257D01*
X183407038Y-107999257D02*
X183502276Y-107951638D01*
X183502276Y-107951638D02*
X183692752Y-107904019D01*
X183692752Y-107904019D02*
X183835609Y-107904019D01*
X183835609Y-107904019D02*
X184026085Y-107951638D01*
X184026085Y-107951638D02*
X184121323Y-107999257D01*
X184121323Y-107999257D02*
X184216561Y-108094495D01*
X184216561Y-108094495D02*
X184264180Y-108237352D01*
X184264180Y-108237352D02*
X184264180Y-108332590D01*
X184264180Y-108332590D02*
X184216561Y-108475447D01*
X184216561Y-108475447D02*
X184168942Y-108523066D01*
D13*
X147791518Y-94933952D02*
X147648661Y-95053000D01*
X147648661Y-95053000D02*
X147220089Y-95172047D01*
X147220089Y-95172047D02*
X146934375Y-95172047D01*
X146934375Y-95172047D02*
X146505804Y-95053000D01*
X146505804Y-95053000D02*
X146220089Y-94814904D01*
X146220089Y-94814904D02*
X146077232Y-94576809D01*
X146077232Y-94576809D02*
X145934375Y-94100619D01*
X145934375Y-94100619D02*
X145934375Y-93743476D01*
X145934375Y-93743476D02*
X146077232Y-93267285D01*
X146077232Y-93267285D02*
X146220089Y-93029190D01*
X146220089Y-93029190D02*
X146505804Y-92791095D01*
X146505804Y-92791095D02*
X146934375Y-92672047D01*
X146934375Y-92672047D02*
X147220089Y-92672047D01*
X147220089Y-92672047D02*
X147648661Y-92791095D01*
X147648661Y-92791095D02*
X147791518Y-92910142D01*
X150362947Y-92672047D02*
X149791518Y-92672047D01*
X149791518Y-92672047D02*
X149505804Y-92791095D01*
X149505804Y-92791095D02*
X149362947Y-92910142D01*
X149362947Y-92910142D02*
X149077232Y-93267285D01*
X149077232Y-93267285D02*
X148934375Y-93743476D01*
X148934375Y-93743476D02*
X148934375Y-94695857D01*
X148934375Y-94695857D02*
X149077232Y-94933952D01*
X149077232Y-94933952D02*
X149220089Y-95053000D01*
X149220089Y-95053000D02*
X149505804Y-95172047D01*
X149505804Y-95172047D02*
X150077232Y-95172047D01*
X150077232Y-95172047D02*
X150362947Y-95053000D01*
X150362947Y-95053000D02*
X150505804Y-94933952D01*
X150505804Y-94933952D02*
X150648661Y-94695857D01*
X150648661Y-94695857D02*
X150648661Y-94100619D01*
X150648661Y-94100619D02*
X150505804Y-93862523D01*
X150505804Y-93862523D02*
X150362947Y-93743476D01*
X150362947Y-93743476D02*
X150077232Y-93624428D01*
X150077232Y-93624428D02*
X149505804Y-93624428D01*
X149505804Y-93624428D02*
X149220089Y-93743476D01*
X149220089Y-93743476D02*
X149077232Y-93862523D01*
X149077232Y-93862523D02*
X148934375Y-94100619D01*
X153220090Y-93505380D02*
X153220090Y-95172047D01*
X152505804Y-92553000D02*
X151791518Y-94338714D01*
X151791518Y-94338714D02*
X153648661Y-94338714D01*
X158505804Y-95172047D02*
X157077232Y-95172047D01*
X157077232Y-95172047D02*
X157077232Y-92672047D01*
X159505803Y-95172047D02*
X159505803Y-92672047D01*
X160934374Y-95172047D02*
X160934374Y-92672047D01*
X160934374Y-92672047D02*
X162648660Y-95172047D01*
X162648660Y-95172047D02*
X162648660Y-92672047D01*
X164077231Y-95172047D02*
X164077231Y-92672047D01*
X165791517Y-95172047D02*
X164505803Y-93743476D01*
X165791517Y-92672047D02*
X164077231Y-94100619D01*
X167077231Y-94219666D02*
X169362946Y-94219666D01*
X170791517Y-95172047D02*
X170791517Y-92672047D01*
X172220088Y-95172047D02*
X172220088Y-92672047D01*
D10*
X138009333Y-66748819D02*
X137676000Y-66272628D01*
X137437905Y-66748819D02*
X137437905Y-65748819D01*
X137437905Y-65748819D02*
X137818857Y-65748819D01*
X137818857Y-65748819D02*
X137914095Y-65796438D01*
X137914095Y-65796438D02*
X137961714Y-65844057D01*
X137961714Y-65844057D02*
X138009333Y-65939295D01*
X138009333Y-65939295D02*
X138009333Y-66082152D01*
X138009333Y-66082152D02*
X137961714Y-66177390D01*
X137961714Y-66177390D02*
X137914095Y-66225009D01*
X137914095Y-66225009D02*
X137818857Y-66272628D01*
X137818857Y-66272628D02*
X137437905Y-66272628D01*
X138390286Y-65844057D02*
X138437905Y-65796438D01*
X138437905Y-65796438D02*
X138533143Y-65748819D01*
X138533143Y-65748819D02*
X138771238Y-65748819D01*
X138771238Y-65748819D02*
X138866476Y-65796438D01*
X138866476Y-65796438D02*
X138914095Y-65844057D01*
X138914095Y-65844057D02*
X138961714Y-65939295D01*
X138961714Y-65939295D02*
X138961714Y-66034533D01*
X138961714Y-66034533D02*
X138914095Y-66177390D01*
X138914095Y-66177390D02*
X138342667Y-66748819D01*
X138342667Y-66748819D02*
X138961714Y-66748819D01*
X157821333Y-66875819D02*
X157488000Y-66399628D01*
X157249905Y-66875819D02*
X157249905Y-65875819D01*
X157249905Y-65875819D02*
X157630857Y-65875819D01*
X157630857Y-65875819D02*
X157726095Y-65923438D01*
X157726095Y-65923438D02*
X157773714Y-65971057D01*
X157773714Y-65971057D02*
X157821333Y-66066295D01*
X157821333Y-66066295D02*
X157821333Y-66209152D01*
X157821333Y-66209152D02*
X157773714Y-66304390D01*
X157773714Y-66304390D02*
X157726095Y-66352009D01*
X157726095Y-66352009D02*
X157630857Y-66399628D01*
X157630857Y-66399628D02*
X157249905Y-66399628D01*
X158678476Y-65875819D02*
X158488000Y-65875819D01*
X158488000Y-65875819D02*
X158392762Y-65923438D01*
X158392762Y-65923438D02*
X158345143Y-65971057D01*
X158345143Y-65971057D02*
X158249905Y-66113914D01*
X158249905Y-66113914D02*
X158202286Y-66304390D01*
X158202286Y-66304390D02*
X158202286Y-66685342D01*
X158202286Y-66685342D02*
X158249905Y-66780580D01*
X158249905Y-66780580D02*
X158297524Y-66828200D01*
X158297524Y-66828200D02*
X158392762Y-66875819D01*
X158392762Y-66875819D02*
X158583238Y-66875819D01*
X158583238Y-66875819D02*
X158678476Y-66828200D01*
X158678476Y-66828200D02*
X158726095Y-66780580D01*
X158726095Y-66780580D02*
X158773714Y-66685342D01*
X158773714Y-66685342D02*
X158773714Y-66447247D01*
X158773714Y-66447247D02*
X158726095Y-66352009D01*
X158726095Y-66352009D02*
X158678476Y-66304390D01*
X158678476Y-66304390D02*
X158583238Y-66256771D01*
X158583238Y-66256771D02*
X158392762Y-66256771D01*
X158392762Y-66256771D02*
X158297524Y-66304390D01*
X158297524Y-66304390D02*
X158249905Y-66352009D01*
X158249905Y-66352009D02*
X158202286Y-66447247D01*
X145883333Y-66748819D02*
X145550000Y-66272628D01*
X145311905Y-66748819D02*
X145311905Y-65748819D01*
X145311905Y-65748819D02*
X145692857Y-65748819D01*
X145692857Y-65748819D02*
X145788095Y-65796438D01*
X145788095Y-65796438D02*
X145835714Y-65844057D01*
X145835714Y-65844057D02*
X145883333Y-65939295D01*
X145883333Y-65939295D02*
X145883333Y-66082152D01*
X145883333Y-66082152D02*
X145835714Y-66177390D01*
X145835714Y-66177390D02*
X145788095Y-66225009D01*
X145788095Y-66225009D02*
X145692857Y-66272628D01*
X145692857Y-66272628D02*
X145311905Y-66272628D01*
X146216667Y-65748819D02*
X146835714Y-65748819D01*
X146835714Y-65748819D02*
X146502381Y-66129771D01*
X146502381Y-66129771D02*
X146645238Y-66129771D01*
X146645238Y-66129771D02*
X146740476Y-66177390D01*
X146740476Y-66177390D02*
X146788095Y-66225009D01*
X146788095Y-66225009D02*
X146835714Y-66320247D01*
X146835714Y-66320247D02*
X146835714Y-66558342D01*
X146835714Y-66558342D02*
X146788095Y-66653580D01*
X146788095Y-66653580D02*
X146740476Y-66701200D01*
X146740476Y-66701200D02*
X146645238Y-66748819D01*
X146645238Y-66748819D02*
X146359524Y-66748819D01*
X146359524Y-66748819D02*
X146264286Y-66701200D01*
X146264286Y-66701200D02*
X146216667Y-66653580D01*
X149947333Y-66748819D02*
X149614000Y-66272628D01*
X149375905Y-66748819D02*
X149375905Y-65748819D01*
X149375905Y-65748819D02*
X149756857Y-65748819D01*
X149756857Y-65748819D02*
X149852095Y-65796438D01*
X149852095Y-65796438D02*
X149899714Y-65844057D01*
X149899714Y-65844057D02*
X149947333Y-65939295D01*
X149947333Y-65939295D02*
X149947333Y-66082152D01*
X149947333Y-66082152D02*
X149899714Y-66177390D01*
X149899714Y-66177390D02*
X149852095Y-66225009D01*
X149852095Y-66225009D02*
X149756857Y-66272628D01*
X149756857Y-66272628D02*
X149375905Y-66272628D01*
X150804476Y-66082152D02*
X150804476Y-66748819D01*
X150566381Y-65701200D02*
X150328286Y-66415485D01*
X150328286Y-66415485D02*
X150947333Y-66415485D01*
X154011333Y-66748819D02*
X153678000Y-66272628D01*
X153439905Y-66748819D02*
X153439905Y-65748819D01*
X153439905Y-65748819D02*
X153820857Y-65748819D01*
X153820857Y-65748819D02*
X153916095Y-65796438D01*
X153916095Y-65796438D02*
X153963714Y-65844057D01*
X153963714Y-65844057D02*
X154011333Y-65939295D01*
X154011333Y-65939295D02*
X154011333Y-66082152D01*
X154011333Y-66082152D02*
X153963714Y-66177390D01*
X153963714Y-66177390D02*
X153916095Y-66225009D01*
X153916095Y-66225009D02*
X153820857Y-66272628D01*
X153820857Y-66272628D02*
X153439905Y-66272628D01*
X154916095Y-65748819D02*
X154439905Y-65748819D01*
X154439905Y-65748819D02*
X154392286Y-66225009D01*
X154392286Y-66225009D02*
X154439905Y-66177390D01*
X154439905Y-66177390D02*
X154535143Y-66129771D01*
X154535143Y-66129771D02*
X154773238Y-66129771D01*
X154773238Y-66129771D02*
X154868476Y-66177390D01*
X154868476Y-66177390D02*
X154916095Y-66225009D01*
X154916095Y-66225009D02*
X154963714Y-66320247D01*
X154963714Y-66320247D02*
X154963714Y-66558342D01*
X154963714Y-66558342D02*
X154916095Y-66653580D01*
X154916095Y-66653580D02*
X154868476Y-66701200D01*
X154868476Y-66701200D02*
X154773238Y-66748819D01*
X154773238Y-66748819D02*
X154535143Y-66748819D01*
X154535143Y-66748819D02*
X154439905Y-66701200D01*
X154439905Y-66701200D02*
X154392286Y-66653580D01*
X133945333Y-66748819D02*
X133612000Y-66272628D01*
X133373905Y-66748819D02*
X133373905Y-65748819D01*
X133373905Y-65748819D02*
X133754857Y-65748819D01*
X133754857Y-65748819D02*
X133850095Y-65796438D01*
X133850095Y-65796438D02*
X133897714Y-65844057D01*
X133897714Y-65844057D02*
X133945333Y-65939295D01*
X133945333Y-65939295D02*
X133945333Y-66082152D01*
X133945333Y-66082152D02*
X133897714Y-66177390D01*
X133897714Y-66177390D02*
X133850095Y-66225009D01*
X133850095Y-66225009D02*
X133754857Y-66272628D01*
X133754857Y-66272628D02*
X133373905Y-66272628D01*
X134897714Y-66748819D02*
X134326286Y-66748819D01*
X134612000Y-66748819D02*
X134612000Y-65748819D01*
X134612000Y-65748819D02*
X134516762Y-65891676D01*
X134516762Y-65891676D02*
X134421524Y-65986914D01*
X134421524Y-65986914D02*
X134326286Y-66034533D01*
D14*
%TO.C,U2*%
X124146000Y-97318000D02*
X124146000Y-98568000D01*
X124146000Y-100568000D02*
X124146000Y-101818000D01*
X124146000Y-101818000D02*
X142046000Y-101818000D01*
X142046000Y-97318000D02*
X124146000Y-97318000D01*
X142046000Y-101818000D02*
X142046000Y-97318000D01*
X124146000Y-98568000D02*
G75*
G02*
X124146000Y-100568000I0J-1000000D01*
G01*
%TO.C,R2*%
X137080000Y-58890000D02*
X137080000Y-62730000D01*
X137080000Y-62730000D02*
X138920000Y-62730000D01*
X138000000Y-57940000D02*
X138000000Y-58890000D01*
X138000000Y-63680000D02*
X138000000Y-62730000D01*
X138920000Y-58890000D02*
X137080000Y-58890000D01*
X138920000Y-62730000D02*
X138920000Y-58890000D01*
%TO.C,U1*%
X126178000Y-75836000D02*
X126178000Y-88756000D01*
X126178000Y-88756000D02*
X177098000Y-88756000D01*
X177098000Y-75836000D02*
X126178000Y-75836000D01*
X177098000Y-81296000D02*
X177098000Y-75836000D01*
X177098000Y-88756000D02*
X177098000Y-83296000D01*
X177098000Y-83296000D02*
G75*
G02*
X177098000Y-81296000I0J1000000D01*
G01*
%TO.C,R6*%
X157080000Y-58890000D02*
X157080000Y-62730000D01*
X157080000Y-62730000D02*
X158920000Y-62730000D01*
X158000000Y-57940000D02*
X158000000Y-58890000D01*
X158000000Y-63680000D02*
X158000000Y-62730000D01*
X158920000Y-58890000D02*
X157080000Y-58890000D01*
X158920000Y-62730000D02*
X158920000Y-58890000D01*
%TO.C,R3*%
X145080000Y-58890000D02*
X145080000Y-62730000D01*
X145080000Y-62730000D02*
X146920000Y-62730000D01*
X146000000Y-57940000D02*
X146000000Y-58890000D01*
X146000000Y-63680000D02*
X146000000Y-62730000D01*
X146920000Y-58890000D02*
X145080000Y-58890000D01*
X146920000Y-62730000D02*
X146920000Y-58890000D01*
%TO.C,R4*%
X149080000Y-58890000D02*
X149080000Y-62730000D01*
X149080000Y-62730000D02*
X150920000Y-62730000D01*
X150000000Y-57940000D02*
X150000000Y-58890000D01*
X150000000Y-63680000D02*
X150000000Y-62730000D01*
X150920000Y-58890000D02*
X149080000Y-58890000D01*
X150920000Y-62730000D02*
X150920000Y-58890000D01*
%TO.C,R5*%
X153080000Y-58890000D02*
X153080000Y-62730000D01*
X153080000Y-62730000D02*
X154920000Y-62730000D01*
X154000000Y-57940000D02*
X154000000Y-58890000D01*
X154000000Y-63680000D02*
X154000000Y-62730000D01*
X154920000Y-58890000D02*
X153080000Y-58890000D01*
X154920000Y-62730000D02*
X154920000Y-58890000D01*
%TO.C,R1*%
X133080000Y-58890000D02*
X133080000Y-62730000D01*
X133080000Y-62730000D02*
X134920000Y-62730000D01*
X134000000Y-57940000D02*
X134000000Y-58890000D01*
X134000000Y-63680000D02*
X134000000Y-62730000D01*
X134920000Y-58890000D02*
X133080000Y-58890000D01*
X134920000Y-62730000D02*
X134920000Y-58890000D01*
%TD*%
M02*
