M48
; DRILL file {KiCad 9.0.0} date 2025-04-04T09:07:04-0400
; FORMAT={-:-/ absolute / inch / decimal}
; #@! TF.CreationDate,2025-04-04T09:07:04-04:00
; #@! TF.GenerationSoftware,Kicad,Pcbnew,9.0.0
; #@! TF.FileFunction,Plated,1,2,PTH
FMAT,2
INCH
; #@! TA.AperFunction,Plated,PTH,ViaDrill
T1C0.0157
; #@! TA.AperFunction,Plated,PTH,ComponentDrill
T2C0.0276
; #@! TA.AperFunction,Plated,PTH,ComponentDrill
T3C0.0315
; #@! TA.AperFunction,Plated,PTH,ComponentDrill
T4C0.0394
%
G90
G05
T1
X4.89Y-3.93
X5.1191Y-2.16
X5.76Y-3.46
X6.1417Y-2.4409
X6.31Y-2.23
X6.46Y-2.74
X6.489Y-2.5807
X6.96Y-2.45
X7.0472Y-4.2428
X7.09Y-3.38
X7.24Y-2.5398
X7.24Y-3.1398
T2
X5.09Y-3.66
X5.09Y-3.96
X5.11Y-3.19
X5.15Y-3.4
X5.2756Y-2.2441
X5.2756Y-2.5441
X5.32Y-3.28
X5.41Y-3.19
X5.4331Y-2.2441
X5.4331Y-2.5441
X5.45Y-3.4
X5.62Y-3.28
X5.748Y-2.2441
X5.748Y-2.5441
X5.9055Y-2.2441
X5.9055Y-2.5441
X6.063Y-2.2441
X6.063Y-2.5441
X6.2205Y-2.2441
X6.2205Y-2.5441
T3
X4.94Y-3.77
X4.94Y-4.07
X4.97Y-3.1
X5.02Y-2.94
X5.02Y-3.54
X5.04Y-3.77
X5.04Y-4.07
X5.0684Y-3.1
X5.12Y-2.94
X5.12Y-3.54
X5.14Y-3.77
X5.14Y-4.07
X5.22Y-2.75
X5.22Y-2.94
X5.22Y-3.05
X5.22Y-3.54
X5.24Y-3.77
X5.24Y-4.07
X5.32Y-2.75
X5.32Y-2.94
X5.32Y-3.05
X5.32Y-3.54
X5.34Y-3.77
X5.34Y-4.07
X5.42Y-2.75
X5.42Y-2.94
X5.42Y-3.05
X5.42Y-3.54
X5.44Y-3.77
X5.44Y-4.07
X5.52Y-2.75
X5.52Y-2.94
X5.52Y-3.05
X5.52Y-3.54
X5.54Y-3.77
X5.54Y-4.07
X5.62Y-2.75
X5.62Y-2.94
X5.62Y-3.05
X5.62Y-3.38
X5.62Y-3.54
X5.62Y-3.98
X5.72Y-2.75
X5.72Y-2.94
X5.72Y-3.05
X5.72Y-3.38
X5.72Y-3.54
X5.72Y-3.98
X5.82Y-2.75
X5.82Y-2.94
X5.82Y-3.05
X5.82Y-3.38
X5.82Y-3.54
X5.82Y-3.98
X5.92Y-2.94
X5.92Y-3.38
X5.92Y-3.54
X5.92Y-3.98
X6.02Y-2.94
X6.02Y-3.38
X6.02Y-3.54
X6.02Y-3.98
X6.12Y-2.94
X6.12Y-3.38
X6.12Y-3.54
X6.12Y-3.98
X6.22Y-2.94
X6.22Y-3.38
X6.22Y-3.54
X6.22Y-3.98
X6.32Y-2.94
X6.32Y-3.38
X6.32Y-3.54
X6.32Y-3.98
X6.42Y-2.94
X6.42Y-3.38
X6.42Y-3.54
X6.42Y-3.98
X6.52Y-2.94
X6.52Y-3.38
X6.52Y-3.54
X6.52Y-3.98
X6.62Y-2.94
X6.62Y-3.38
X6.62Y-3.54
X6.62Y-3.98
X6.72Y-2.94
X6.72Y-3.38
X6.72Y-3.54
X6.72Y-3.98
X6.82Y-2.94
X6.82Y-3.38
X6.82Y-3.54
X6.82Y-3.98
X6.92Y-2.94
X6.92Y-3.38
X6.92Y-3.54
X6.92Y-3.98
T4
X5.14Y-4.17
X5.22Y-3.28
M30
