%TF.GenerationSoftware,KiCad,Pcbnew,9.0.0*%
%TF.CreationDate,2025-04-04T09:07:06-04:00*%
%TF.ProjectId,RTC-Link2,5254432d-4c69-46e6-9b32-2e6b69636164,1.1*%
%TF.SameCoordinates,Original*%
%TF.FileFunction,Legend,Bot*%
%TF.FilePolarity,Positive*%
%FSLAX46Y46*%
G04 Gerber Fmt 4.6, Leading zero omitted, Abs format (unit mm)*
G04 Created by KiCad (PCBNEW 9.0.0) date 2025-04-04 09:07:06*
%MOMM*%
%LPD*%
G01*
G04 APERTURE LIST*
%ADD10C,0.150000*%
%ADD11C,0.300000*%
%ADD12C,0.120000*%
G04 APERTURE END LIST*
D10*
X127829887Y-105946009D02*
X128163220Y-105946009D01*
X128163220Y-106469819D02*
X128163220Y-105469819D01*
X128163220Y-105469819D02*
X127687030Y-105469819D01*
X126829887Y-106469819D02*
X127306077Y-106469819D01*
X127306077Y-106469819D02*
X127306077Y-105469819D01*
X126306077Y-105993628D02*
X126306077Y-106469819D01*
X126639410Y-105469819D02*
X126306077Y-105993628D01*
X126306077Y-105993628D02*
X125972744Y-105469819D01*
X125448934Y-105469819D02*
X125258458Y-105469819D01*
X125258458Y-105469819D02*
X125163220Y-105517438D01*
X125163220Y-105517438D02*
X125067982Y-105612676D01*
X125067982Y-105612676D02*
X125020363Y-105803152D01*
X125020363Y-105803152D02*
X125020363Y-106136485D01*
X125020363Y-106136485D02*
X125067982Y-106326961D01*
X125067982Y-106326961D02*
X125163220Y-106422200D01*
X125163220Y-106422200D02*
X125258458Y-106469819D01*
X125258458Y-106469819D02*
X125448934Y-106469819D01*
X125448934Y-106469819D02*
X125544172Y-106422200D01*
X125544172Y-106422200D02*
X125639410Y-106326961D01*
X125639410Y-106326961D02*
X125687029Y-106136485D01*
X125687029Y-106136485D02*
X125687029Y-105803152D01*
X125687029Y-105803152D02*
X125639410Y-105612676D01*
X125639410Y-105612676D02*
X125544172Y-105517438D01*
X125544172Y-105517438D02*
X125448934Y-105469819D01*
X124591791Y-105469819D02*
X124591791Y-106279342D01*
X124591791Y-106279342D02*
X124544172Y-106374580D01*
X124544172Y-106374580D02*
X124496553Y-106422200D01*
X124496553Y-106422200D02*
X124401315Y-106469819D01*
X124401315Y-106469819D02*
X124210839Y-106469819D01*
X124210839Y-106469819D02*
X124115601Y-106422200D01*
X124115601Y-106422200D02*
X124067982Y-106374580D01*
X124067982Y-106374580D02*
X124020363Y-106279342D01*
X124020363Y-106279342D02*
X124020363Y-105469819D01*
X123687029Y-105469819D02*
X123115601Y-105469819D01*
X123401315Y-106469819D02*
X123401315Y-105469819D01*
X122829886Y-105565057D02*
X122782267Y-105517438D01*
X122782267Y-105517438D02*
X122687029Y-105469819D01*
X122687029Y-105469819D02*
X122448934Y-105469819D01*
X122448934Y-105469819D02*
X122353696Y-105517438D01*
X122353696Y-105517438D02*
X122306077Y-105565057D01*
X122306077Y-105565057D02*
X122258458Y-105660295D01*
X122258458Y-105660295D02*
X122258458Y-105755533D01*
X122258458Y-105755533D02*
X122306077Y-105898390D01*
X122306077Y-105898390D02*
X122877505Y-106469819D01*
X122877505Y-106469819D02*
X122258458Y-106469819D01*
X130629887Y-83246009D02*
X130963220Y-83246009D01*
X130963220Y-83769819D02*
X130963220Y-82769819D01*
X130963220Y-82769819D02*
X130487030Y-82769819D01*
X129629887Y-83769819D02*
X130106077Y-83769819D01*
X130106077Y-83769819D02*
X130106077Y-82769819D01*
X129106077Y-83293628D02*
X129106077Y-83769819D01*
X129439410Y-82769819D02*
X129106077Y-83293628D01*
X129106077Y-83293628D02*
X128772744Y-82769819D01*
X128248934Y-82769819D02*
X128058458Y-82769819D01*
X128058458Y-82769819D02*
X127963220Y-82817438D01*
X127963220Y-82817438D02*
X127867982Y-82912676D01*
X127867982Y-82912676D02*
X127820363Y-83103152D01*
X127820363Y-83103152D02*
X127820363Y-83436485D01*
X127820363Y-83436485D02*
X127867982Y-83626961D01*
X127867982Y-83626961D02*
X127963220Y-83722200D01*
X127963220Y-83722200D02*
X128058458Y-83769819D01*
X128058458Y-83769819D02*
X128248934Y-83769819D01*
X128248934Y-83769819D02*
X128344172Y-83722200D01*
X128344172Y-83722200D02*
X128439410Y-83626961D01*
X128439410Y-83626961D02*
X128487029Y-83436485D01*
X128487029Y-83436485D02*
X128487029Y-83103152D01*
X128487029Y-83103152D02*
X128439410Y-82912676D01*
X128439410Y-82912676D02*
X128344172Y-82817438D01*
X128344172Y-82817438D02*
X128248934Y-82769819D01*
X127391791Y-82769819D02*
X127391791Y-83579342D01*
X127391791Y-83579342D02*
X127344172Y-83674580D01*
X127344172Y-83674580D02*
X127296553Y-83722200D01*
X127296553Y-83722200D02*
X127201315Y-83769819D01*
X127201315Y-83769819D02*
X127010839Y-83769819D01*
X127010839Y-83769819D02*
X126915601Y-83722200D01*
X126915601Y-83722200D02*
X126867982Y-83674580D01*
X126867982Y-83674580D02*
X126820363Y-83579342D01*
X126820363Y-83579342D02*
X126820363Y-82769819D01*
X126487029Y-82769819D02*
X125915601Y-82769819D01*
X126201315Y-83769819D02*
X126201315Y-82769819D01*
X125058458Y-83769819D02*
X125629886Y-83769819D01*
X125344172Y-83769819D02*
X125344172Y-82769819D01*
X125344172Y-82769819D02*
X125439410Y-82912676D01*
X125439410Y-82912676D02*
X125534648Y-83007914D01*
X125534648Y-83007914D02*
X125629886Y-83055533D01*
D11*
X157830346Y-69166828D02*
X156830346Y-69166828D01*
X156830346Y-69166828D02*
X157473203Y-70666828D01*
X155616061Y-69666828D02*
X155616061Y-70666828D01*
X155973203Y-69095400D02*
X156330346Y-70166828D01*
X156330346Y-70166828D02*
X155401775Y-70166828D01*
X154116061Y-70666828D02*
X154830347Y-70666828D01*
X154830347Y-70666828D02*
X154830347Y-69166828D01*
X153687489Y-70595400D02*
X153473204Y-70666828D01*
X153473204Y-70666828D02*
X153116061Y-70666828D01*
X153116061Y-70666828D02*
X152973204Y-70595400D01*
X152973204Y-70595400D02*
X152901775Y-70523971D01*
X152901775Y-70523971D02*
X152830346Y-70381114D01*
X152830346Y-70381114D02*
X152830346Y-70238257D01*
X152830346Y-70238257D02*
X152901775Y-70095400D01*
X152901775Y-70095400D02*
X152973204Y-70023971D01*
X152973204Y-70023971D02*
X153116061Y-69952542D01*
X153116061Y-69952542D02*
X153401775Y-69881114D01*
X153401775Y-69881114D02*
X153544632Y-69809685D01*
X153544632Y-69809685D02*
X153616061Y-69738257D01*
X153616061Y-69738257D02*
X153687489Y-69595400D01*
X153687489Y-69595400D02*
X153687489Y-69452542D01*
X153687489Y-69452542D02*
X153616061Y-69309685D01*
X153616061Y-69309685D02*
X153544632Y-69238257D01*
X153544632Y-69238257D02*
X153401775Y-69166828D01*
X153401775Y-69166828D02*
X153044632Y-69166828D01*
X153044632Y-69166828D02*
X152830346Y-69238257D01*
X151901775Y-69166828D02*
X151758918Y-69166828D01*
X151758918Y-69166828D02*
X151616061Y-69238257D01*
X151616061Y-69238257D02*
X151544633Y-69309685D01*
X151544633Y-69309685D02*
X151473204Y-69452542D01*
X151473204Y-69452542D02*
X151401775Y-69738257D01*
X151401775Y-69738257D02*
X151401775Y-70095400D01*
X151401775Y-70095400D02*
X151473204Y-70381114D01*
X151473204Y-70381114D02*
X151544633Y-70523971D01*
X151544633Y-70523971D02*
X151616061Y-70595400D01*
X151616061Y-70595400D02*
X151758918Y-70666828D01*
X151758918Y-70666828D02*
X151901775Y-70666828D01*
X151901775Y-70666828D02*
X152044633Y-70595400D01*
X152044633Y-70595400D02*
X152116061Y-70523971D01*
X152116061Y-70523971D02*
X152187490Y-70381114D01*
X152187490Y-70381114D02*
X152258918Y-70095400D01*
X152258918Y-70095400D02*
X152258918Y-69738257D01*
X152258918Y-69738257D02*
X152187490Y-69452542D01*
X152187490Y-69452542D02*
X152116061Y-69309685D01*
X152116061Y-69309685D02*
X152044633Y-69238257D01*
X152044633Y-69238257D02*
X151901775Y-69166828D01*
X150473204Y-69166828D02*
X150330347Y-69166828D01*
X150330347Y-69166828D02*
X150187490Y-69238257D01*
X150187490Y-69238257D02*
X150116062Y-69309685D01*
X150116062Y-69309685D02*
X150044633Y-69452542D01*
X150044633Y-69452542D02*
X149973204Y-69738257D01*
X149973204Y-69738257D02*
X149973204Y-70095400D01*
X149973204Y-70095400D02*
X150044633Y-70381114D01*
X150044633Y-70381114D02*
X150116062Y-70523971D01*
X150116062Y-70523971D02*
X150187490Y-70595400D01*
X150187490Y-70595400D02*
X150330347Y-70666828D01*
X150330347Y-70666828D02*
X150473204Y-70666828D01*
X150473204Y-70666828D02*
X150616062Y-70595400D01*
X150616062Y-70595400D02*
X150687490Y-70523971D01*
X150687490Y-70523971D02*
X150758919Y-70381114D01*
X150758919Y-70381114D02*
X150830347Y-70095400D01*
X150830347Y-70095400D02*
X150830347Y-69738257D01*
X150830347Y-69738257D02*
X150758919Y-69452542D01*
X150758919Y-69452542D02*
X150687490Y-69309685D01*
X150687490Y-69309685D02*
X150616062Y-69238257D01*
X150616062Y-69238257D02*
X150473204Y-69166828D01*
X177062917Y-103091685D02*
X176991489Y-103020257D01*
X176991489Y-103020257D02*
X176848632Y-102948828D01*
X176848632Y-102948828D02*
X176491489Y-102948828D01*
X176491489Y-102948828D02*
X176348632Y-103020257D01*
X176348632Y-103020257D02*
X176277203Y-103091685D01*
X176277203Y-103091685D02*
X176205774Y-103234542D01*
X176205774Y-103234542D02*
X176205774Y-103377400D01*
X176205774Y-103377400D02*
X176277203Y-103591685D01*
X176277203Y-103591685D02*
X177134346Y-104448828D01*
X177134346Y-104448828D02*
X176205774Y-104448828D01*
X175705775Y-102948828D02*
X174705775Y-102948828D01*
X174705775Y-102948828D02*
X175348632Y-104448828D01*
X173277204Y-104305971D02*
X173348632Y-104377400D01*
X173348632Y-104377400D02*
X173562918Y-104448828D01*
X173562918Y-104448828D02*
X173705775Y-104448828D01*
X173705775Y-104448828D02*
X173920061Y-104377400D01*
X173920061Y-104377400D02*
X174062918Y-104234542D01*
X174062918Y-104234542D02*
X174134347Y-104091685D01*
X174134347Y-104091685D02*
X174205775Y-103805971D01*
X174205775Y-103805971D02*
X174205775Y-103591685D01*
X174205775Y-103591685D02*
X174134347Y-103305971D01*
X174134347Y-103305971D02*
X174062918Y-103163114D01*
X174062918Y-103163114D02*
X173920061Y-103020257D01*
X173920061Y-103020257D02*
X173705775Y-102948828D01*
X173705775Y-102948828D02*
X173562918Y-102948828D01*
X173562918Y-102948828D02*
X173348632Y-103020257D01*
X173348632Y-103020257D02*
X173277204Y-103091685D01*
X171991490Y-102948828D02*
X172277204Y-102948828D01*
X172277204Y-102948828D02*
X172420061Y-103020257D01*
X172420061Y-103020257D02*
X172491490Y-103091685D01*
X172491490Y-103091685D02*
X172634347Y-103305971D01*
X172634347Y-103305971D02*
X172705775Y-103591685D01*
X172705775Y-103591685D02*
X172705775Y-104163114D01*
X172705775Y-104163114D02*
X172634347Y-104305971D01*
X172634347Y-104305971D02*
X172562918Y-104377400D01*
X172562918Y-104377400D02*
X172420061Y-104448828D01*
X172420061Y-104448828D02*
X172134347Y-104448828D01*
X172134347Y-104448828D02*
X171991490Y-104377400D01*
X171991490Y-104377400D02*
X171920061Y-104305971D01*
X171920061Y-104305971D02*
X171848632Y-104163114D01*
X171848632Y-104163114D02*
X171848632Y-103805971D01*
X171848632Y-103805971D02*
X171920061Y-103663114D01*
X171920061Y-103663114D02*
X171991490Y-103591685D01*
X171991490Y-103591685D02*
X172134347Y-103520257D01*
X172134347Y-103520257D02*
X172420061Y-103520257D01*
X172420061Y-103520257D02*
X172562918Y-103591685D01*
X172562918Y-103591685D02*
X172634347Y-103663114D01*
X172634347Y-103663114D02*
X172705775Y-103805971D01*
X170562919Y-103448828D02*
X170562919Y-104448828D01*
X170920061Y-102877400D02*
X171277204Y-103948828D01*
X171277204Y-103948828D02*
X170348633Y-103948828D01*
D10*
X184715363Y-107676792D02*
X184667744Y-107724411D01*
X184667744Y-107724411D02*
X184620124Y-107867268D01*
X184620124Y-107867268D02*
X184620124Y-107962506D01*
X184620124Y-107962506D02*
X184667744Y-108105363D01*
X184667744Y-108105363D02*
X184762982Y-108200601D01*
X184762982Y-108200601D02*
X184858220Y-108248220D01*
X184858220Y-108248220D02*
X185048696Y-108295839D01*
X185048696Y-108295839D02*
X185191553Y-108295839D01*
X185191553Y-108295839D02*
X185382029Y-108248220D01*
X185382029Y-108248220D02*
X185477267Y-108200601D01*
X185477267Y-108200601D02*
X185572505Y-108105363D01*
X185572505Y-108105363D02*
X185620124Y-107962506D01*
X185620124Y-107962506D02*
X185620124Y-107867268D01*
X185620124Y-107867268D02*
X185572505Y-107724411D01*
X185572505Y-107724411D02*
X185524886Y-107676792D01*
X185620124Y-106819649D02*
X185620124Y-107010125D01*
X185620124Y-107010125D02*
X185572505Y-107105363D01*
X185572505Y-107105363D02*
X185524886Y-107152982D01*
X185524886Y-107152982D02*
X185382029Y-107248220D01*
X185382029Y-107248220D02*
X185191553Y-107295839D01*
X185191553Y-107295839D02*
X184810601Y-107295839D01*
X184810601Y-107295839D02*
X184715363Y-107248220D01*
X184715363Y-107248220D02*
X184667744Y-107200601D01*
X184667744Y-107200601D02*
X184620124Y-107105363D01*
X184620124Y-107105363D02*
X184620124Y-106914887D01*
X184620124Y-106914887D02*
X184667744Y-106819649D01*
X184667744Y-106819649D02*
X184715363Y-106772030D01*
X184715363Y-106772030D02*
X184810601Y-106724411D01*
X184810601Y-106724411D02*
X185048696Y-106724411D01*
X185048696Y-106724411D02*
X185143934Y-106772030D01*
X185143934Y-106772030D02*
X185191553Y-106819649D01*
X185191553Y-106819649D02*
X185239172Y-106914887D01*
X185239172Y-106914887D02*
X185239172Y-107105363D01*
X185239172Y-107105363D02*
X185191553Y-107200601D01*
X185191553Y-107200601D02*
X185143934Y-107248220D01*
X185143934Y-107248220D02*
X185048696Y-107295839D01*
X185286791Y-105867268D02*
X184620124Y-105867268D01*
X185667744Y-106105363D02*
X184953458Y-106343458D01*
X184953458Y-106343458D02*
X184953458Y-105724411D01*
X184620124Y-104105363D02*
X184620124Y-104581553D01*
X184620124Y-104581553D02*
X185620124Y-104581553D01*
X184620124Y-103772029D02*
X185620124Y-103772029D01*
X184620124Y-103295839D02*
X185620124Y-103295839D01*
X185620124Y-103295839D02*
X184620124Y-102724411D01*
X184620124Y-102724411D02*
X185620124Y-102724411D01*
X184620124Y-102248220D02*
X185620124Y-102248220D01*
X184620124Y-101676792D02*
X185191553Y-102105363D01*
X185620124Y-101676792D02*
X185048696Y-102248220D01*
X184620124Y-100486315D02*
X185620124Y-100486315D01*
X184620124Y-100010125D02*
X185620124Y-100010125D01*
X184667744Y-98819649D02*
X184620124Y-98676792D01*
X184620124Y-98676792D02*
X184620124Y-98438697D01*
X184620124Y-98438697D02*
X184667744Y-98343459D01*
X184667744Y-98343459D02*
X184715363Y-98295840D01*
X184715363Y-98295840D02*
X184810601Y-98248221D01*
X184810601Y-98248221D02*
X184905839Y-98248221D01*
X184905839Y-98248221D02*
X185001077Y-98295840D01*
X185001077Y-98295840D02*
X185048696Y-98343459D01*
X185048696Y-98343459D02*
X185096315Y-98438697D01*
X185096315Y-98438697D02*
X185143934Y-98629173D01*
X185143934Y-98629173D02*
X185191553Y-98724411D01*
X185191553Y-98724411D02*
X185239172Y-98772030D01*
X185239172Y-98772030D02*
X185334410Y-98819649D01*
X185334410Y-98819649D02*
X185429648Y-98819649D01*
X185429648Y-98819649D02*
X185524886Y-98772030D01*
X185524886Y-98772030D02*
X185572505Y-98724411D01*
X185572505Y-98724411D02*
X185620124Y-98629173D01*
X185620124Y-98629173D02*
X185620124Y-98391078D01*
X185620124Y-98391078D02*
X185572505Y-98248221D01*
X184620124Y-97819649D02*
X185286791Y-97819649D01*
X185620124Y-97819649D02*
X185572505Y-97867268D01*
X185572505Y-97867268D02*
X185524886Y-97819649D01*
X185524886Y-97819649D02*
X185572505Y-97772030D01*
X185572505Y-97772030D02*
X185620124Y-97819649D01*
X185620124Y-97819649D02*
X185524886Y-97819649D01*
X184620124Y-96914888D02*
X185620124Y-96914888D01*
X184667744Y-96914888D02*
X184620124Y-97010126D01*
X184620124Y-97010126D02*
X184620124Y-97200602D01*
X184620124Y-97200602D02*
X184667744Y-97295840D01*
X184667744Y-97295840D02*
X184715363Y-97343459D01*
X184715363Y-97343459D02*
X184810601Y-97391078D01*
X184810601Y-97391078D02*
X185096315Y-97391078D01*
X185096315Y-97391078D02*
X185191553Y-97343459D01*
X185191553Y-97343459D02*
X185239172Y-97295840D01*
X185239172Y-97295840D02*
X185286791Y-97200602D01*
X185286791Y-97200602D02*
X185286791Y-97010126D01*
X185286791Y-97010126D02*
X185239172Y-96914888D01*
X184667744Y-96057745D02*
X184620124Y-96152983D01*
X184620124Y-96152983D02*
X184620124Y-96343459D01*
X184620124Y-96343459D02*
X184667744Y-96438697D01*
X184667744Y-96438697D02*
X184762982Y-96486316D01*
X184762982Y-96486316D02*
X185143934Y-96486316D01*
X185143934Y-96486316D02*
X185239172Y-96438697D01*
X185239172Y-96438697D02*
X185286791Y-96343459D01*
X185286791Y-96343459D02*
X185286791Y-96152983D01*
X185286791Y-96152983D02*
X185239172Y-96057745D01*
X185239172Y-96057745D02*
X185143934Y-96010126D01*
X185143934Y-96010126D02*
X185048696Y-96010126D01*
X185048696Y-96010126D02*
X184953458Y-96486316D01*
X185143934Y-94486316D02*
X185096315Y-94343459D01*
X185096315Y-94343459D02*
X185048696Y-94295840D01*
X185048696Y-94295840D02*
X184953458Y-94248221D01*
X184953458Y-94248221D02*
X184810601Y-94248221D01*
X184810601Y-94248221D02*
X184715363Y-94295840D01*
X184715363Y-94295840D02*
X184667744Y-94343459D01*
X184667744Y-94343459D02*
X184620124Y-94438697D01*
X184620124Y-94438697D02*
X184620124Y-94819649D01*
X184620124Y-94819649D02*
X185620124Y-94819649D01*
X185620124Y-94819649D02*
X185620124Y-94486316D01*
X185620124Y-94486316D02*
X185572505Y-94391078D01*
X185572505Y-94391078D02*
X185524886Y-94343459D01*
X185524886Y-94343459D02*
X185429648Y-94295840D01*
X185429648Y-94295840D02*
X185334410Y-94295840D01*
X185334410Y-94295840D02*
X185239172Y-94343459D01*
X185239172Y-94343459D02*
X185191553Y-94391078D01*
X185191553Y-94391078D02*
X185143934Y-94486316D01*
X185143934Y-94486316D02*
X185143934Y-94819649D01*
X183914942Y-108295839D02*
X183962561Y-108248220D01*
X183962561Y-108248220D02*
X184010180Y-108152982D01*
X184010180Y-108152982D02*
X184010180Y-107914887D01*
X184010180Y-107914887D02*
X183962561Y-107819649D01*
X183962561Y-107819649D02*
X183914942Y-107772030D01*
X183914942Y-107772030D02*
X183819704Y-107724411D01*
X183819704Y-107724411D02*
X183724466Y-107724411D01*
X183724466Y-107724411D02*
X183581609Y-107772030D01*
X183581609Y-107772030D02*
X183010180Y-108343458D01*
X183010180Y-108343458D02*
X183010180Y-107724411D01*
X183914942Y-107343458D02*
X183962561Y-107295839D01*
X183962561Y-107295839D02*
X184010180Y-107200601D01*
X184010180Y-107200601D02*
X184010180Y-106962506D01*
X184010180Y-106962506D02*
X183962561Y-106867268D01*
X183962561Y-106867268D02*
X183914942Y-106819649D01*
X183914942Y-106819649D02*
X183819704Y-106772030D01*
X183819704Y-106772030D02*
X183724466Y-106772030D01*
X183724466Y-106772030D02*
X183581609Y-106819649D01*
X183581609Y-106819649D02*
X183010180Y-107391077D01*
X183010180Y-107391077D02*
X183010180Y-106772030D01*
X184057800Y-105629173D02*
X182772085Y-106486315D01*
X184010180Y-105105363D02*
X184010180Y-105010125D01*
X184010180Y-105010125D02*
X183962561Y-104914887D01*
X183962561Y-104914887D02*
X183914942Y-104867268D01*
X183914942Y-104867268D02*
X183819704Y-104819649D01*
X183819704Y-104819649D02*
X183629228Y-104772030D01*
X183629228Y-104772030D02*
X183391133Y-104772030D01*
X183391133Y-104772030D02*
X183200657Y-104819649D01*
X183200657Y-104819649D02*
X183105419Y-104867268D01*
X183105419Y-104867268D02*
X183057800Y-104914887D01*
X183057800Y-104914887D02*
X183010180Y-105010125D01*
X183010180Y-105010125D02*
X183010180Y-105105363D01*
X183010180Y-105105363D02*
X183057800Y-105200601D01*
X183057800Y-105200601D02*
X183105419Y-105248220D01*
X183105419Y-105248220D02*
X183200657Y-105295839D01*
X183200657Y-105295839D02*
X183391133Y-105343458D01*
X183391133Y-105343458D02*
X183629228Y-105343458D01*
X183629228Y-105343458D02*
X183819704Y-105295839D01*
X183819704Y-105295839D02*
X183914942Y-105248220D01*
X183914942Y-105248220D02*
X183962561Y-105200601D01*
X183962561Y-105200601D02*
X184010180Y-105105363D01*
X184010180Y-103867268D02*
X184010180Y-104343458D01*
X184010180Y-104343458D02*
X183533990Y-104391077D01*
X183533990Y-104391077D02*
X183581609Y-104343458D01*
X183581609Y-104343458D02*
X183629228Y-104248220D01*
X183629228Y-104248220D02*
X183629228Y-104010125D01*
X183629228Y-104010125D02*
X183581609Y-103914887D01*
X183581609Y-103914887D02*
X183533990Y-103867268D01*
X183533990Y-103867268D02*
X183438752Y-103819649D01*
X183438752Y-103819649D02*
X183200657Y-103819649D01*
X183200657Y-103819649D02*
X183105419Y-103867268D01*
X183105419Y-103867268D02*
X183057800Y-103914887D01*
X183057800Y-103914887D02*
X183010180Y-104010125D01*
X183010180Y-104010125D02*
X183010180Y-104248220D01*
X183010180Y-104248220D02*
X183057800Y-104343458D01*
X183057800Y-104343458D02*
X183105419Y-104391077D01*
X184057800Y-102676792D02*
X182772085Y-103533934D01*
X183581609Y-102200601D02*
X183629228Y-102295839D01*
X183629228Y-102295839D02*
X183676847Y-102343458D01*
X183676847Y-102343458D02*
X183772085Y-102391077D01*
X183772085Y-102391077D02*
X183819704Y-102391077D01*
X183819704Y-102391077D02*
X183914942Y-102343458D01*
X183914942Y-102343458D02*
X183962561Y-102295839D01*
X183962561Y-102295839D02*
X184010180Y-102200601D01*
X184010180Y-102200601D02*
X184010180Y-102010125D01*
X184010180Y-102010125D02*
X183962561Y-101914887D01*
X183962561Y-101914887D02*
X183914942Y-101867268D01*
X183914942Y-101867268D02*
X183819704Y-101819649D01*
X183819704Y-101819649D02*
X183772085Y-101819649D01*
X183772085Y-101819649D02*
X183676847Y-101867268D01*
X183676847Y-101867268D02*
X183629228Y-101914887D01*
X183629228Y-101914887D02*
X183581609Y-102010125D01*
X183581609Y-102010125D02*
X183581609Y-102200601D01*
X183581609Y-102200601D02*
X183533990Y-102295839D01*
X183533990Y-102295839D02*
X183486371Y-102343458D01*
X183486371Y-102343458D02*
X183391133Y-102391077D01*
X183391133Y-102391077D02*
X183200657Y-102391077D01*
X183200657Y-102391077D02*
X183105419Y-102343458D01*
X183105419Y-102343458D02*
X183057800Y-102295839D01*
X183057800Y-102295839D02*
X183010180Y-102200601D01*
X183010180Y-102200601D02*
X183010180Y-102010125D01*
X183010180Y-102010125D02*
X183057800Y-101914887D01*
X183057800Y-101914887D02*
X183105419Y-101867268D01*
X183105419Y-101867268D02*
X183200657Y-101819649D01*
X183200657Y-101819649D02*
X183391133Y-101819649D01*
X183391133Y-101819649D02*
X183486371Y-101867268D01*
X183486371Y-101867268D02*
X183533990Y-101914887D01*
X183533990Y-101914887D02*
X183581609Y-102010125D01*
X183676847Y-100962506D02*
X183010180Y-100962506D01*
X184057800Y-101200601D02*
X183343514Y-101438696D01*
X183343514Y-101438696D02*
X183343514Y-100819649D01*
X132722857Y-93418819D02*
X133056190Y-92942628D01*
X133294285Y-93418819D02*
X133294285Y-92418819D01*
X133294285Y-92418819D02*
X132913333Y-92418819D01*
X132913333Y-92418819D02*
X132818095Y-92466438D01*
X132818095Y-92466438D02*
X132770476Y-92514057D01*
X132770476Y-92514057D02*
X132722857Y-92609295D01*
X132722857Y-92609295D02*
X132722857Y-92752152D01*
X132722857Y-92752152D02*
X132770476Y-92847390D01*
X132770476Y-92847390D02*
X132818095Y-92895009D01*
X132818095Y-92895009D02*
X132913333Y-92942628D01*
X132913333Y-92942628D02*
X133294285Y-92942628D01*
X131770476Y-93418819D02*
X132341904Y-93418819D01*
X132056190Y-93418819D02*
X132056190Y-92418819D01*
X132056190Y-92418819D02*
X132151428Y-92561676D01*
X132151428Y-92561676D02*
X132246666Y-92656914D01*
X132246666Y-92656914D02*
X132341904Y-92704533D01*
X131151428Y-92418819D02*
X131056190Y-92418819D01*
X131056190Y-92418819D02*
X130960952Y-92466438D01*
X130960952Y-92466438D02*
X130913333Y-92514057D01*
X130913333Y-92514057D02*
X130865714Y-92609295D01*
X130865714Y-92609295D02*
X130818095Y-92799771D01*
X130818095Y-92799771D02*
X130818095Y-93037866D01*
X130818095Y-93037866D02*
X130865714Y-93228342D01*
X130865714Y-93228342D02*
X130913333Y-93323580D01*
X130913333Y-93323580D02*
X130960952Y-93371200D01*
X130960952Y-93371200D02*
X131056190Y-93418819D01*
X131056190Y-93418819D02*
X131151428Y-93418819D01*
X131151428Y-93418819D02*
X131246666Y-93371200D01*
X131246666Y-93371200D02*
X131294285Y-93323580D01*
X131294285Y-93323580D02*
X131341904Y-93228342D01*
X131341904Y-93228342D02*
X131389523Y-93037866D01*
X131389523Y-93037866D02*
X131389523Y-92799771D01*
X131389523Y-92799771D02*
X131341904Y-92609295D01*
X131341904Y-92609295D02*
X131294285Y-92514057D01*
X131294285Y-92514057D02*
X131246666Y-92466438D01*
X131246666Y-92466438D02*
X131151428Y-92418819D01*
X139872819Y-92710095D02*
X140682342Y-92710095D01*
X140682342Y-92710095D02*
X140777580Y-92757714D01*
X140777580Y-92757714D02*
X140825200Y-92805333D01*
X140825200Y-92805333D02*
X140872819Y-92900571D01*
X140872819Y-92900571D02*
X140872819Y-93091047D01*
X140872819Y-93091047D02*
X140825200Y-93186285D01*
X140825200Y-93186285D02*
X140777580Y-93233904D01*
X140777580Y-93233904D02*
X140682342Y-93281523D01*
X140682342Y-93281523D02*
X139872819Y-93281523D01*
X140206152Y-94186285D02*
X140872819Y-94186285D01*
X139825200Y-93948190D02*
X140539485Y-93710095D01*
X140539485Y-93710095D02*
X140539485Y-94329142D01*
X127654666Y-76849580D02*
X127702285Y-76897200D01*
X127702285Y-76897200D02*
X127845142Y-76944819D01*
X127845142Y-76944819D02*
X127940380Y-76944819D01*
X127940380Y-76944819D02*
X128083237Y-76897200D01*
X128083237Y-76897200D02*
X128178475Y-76801961D01*
X128178475Y-76801961D02*
X128226094Y-76706723D01*
X128226094Y-76706723D02*
X128273713Y-76516247D01*
X128273713Y-76516247D02*
X128273713Y-76373390D01*
X128273713Y-76373390D02*
X128226094Y-76182914D01*
X128226094Y-76182914D02*
X128178475Y-76087676D01*
X128178475Y-76087676D02*
X128083237Y-75992438D01*
X128083237Y-75992438D02*
X127940380Y-75944819D01*
X127940380Y-75944819D02*
X127845142Y-75944819D01*
X127845142Y-75944819D02*
X127702285Y-75992438D01*
X127702285Y-75992438D02*
X127654666Y-76040057D01*
X126702285Y-76944819D02*
X127273713Y-76944819D01*
X126987999Y-76944819D02*
X126987999Y-75944819D01*
X126987999Y-75944819D02*
X127083237Y-76087676D01*
X127083237Y-76087676D02*
X127178475Y-76182914D01*
X127178475Y-76182914D02*
X127273713Y-76230533D01*
X127674666Y-81480819D02*
X128007999Y-81004628D01*
X128246094Y-81480819D02*
X128246094Y-80480819D01*
X128246094Y-80480819D02*
X127865142Y-80480819D01*
X127865142Y-80480819D02*
X127769904Y-80528438D01*
X127769904Y-80528438D02*
X127722285Y-80576057D01*
X127722285Y-80576057D02*
X127674666Y-80671295D01*
X127674666Y-80671295D02*
X127674666Y-80814152D01*
X127674666Y-80814152D02*
X127722285Y-80909390D01*
X127722285Y-80909390D02*
X127769904Y-80957009D01*
X127769904Y-80957009D02*
X127865142Y-81004628D01*
X127865142Y-81004628D02*
X128246094Y-81004628D01*
X127341332Y-80480819D02*
X126674666Y-80480819D01*
X126674666Y-80480819D02*
X127103237Y-81480819D01*
X128349333Y-107150819D02*
X128349333Y-107865104D01*
X128349333Y-107865104D02*
X128396952Y-108007961D01*
X128396952Y-108007961D02*
X128492190Y-108103200D01*
X128492190Y-108103200D02*
X128635047Y-108150819D01*
X128635047Y-108150819D02*
X128730285Y-108150819D01*
X127920761Y-107246057D02*
X127873142Y-107198438D01*
X127873142Y-107198438D02*
X127777904Y-107150819D01*
X127777904Y-107150819D02*
X127539809Y-107150819D01*
X127539809Y-107150819D02*
X127444571Y-107198438D01*
X127444571Y-107198438D02*
X127396952Y-107246057D01*
X127396952Y-107246057D02*
X127349333Y-107341295D01*
X127349333Y-107341295D02*
X127349333Y-107436533D01*
X127349333Y-107436533D02*
X127396952Y-107579390D01*
X127396952Y-107579390D02*
X127968380Y-108150819D01*
X127968380Y-108150819D02*
X127349333Y-108150819D01*
X128690666Y-86814819D02*
X129023999Y-86338628D01*
X129262094Y-86814819D02*
X129262094Y-85814819D01*
X129262094Y-85814819D02*
X128881142Y-85814819D01*
X128881142Y-85814819D02*
X128785904Y-85862438D01*
X128785904Y-85862438D02*
X128738285Y-85910057D01*
X128738285Y-85910057D02*
X128690666Y-86005295D01*
X128690666Y-86005295D02*
X128690666Y-86148152D01*
X128690666Y-86148152D02*
X128738285Y-86243390D01*
X128738285Y-86243390D02*
X128785904Y-86291009D01*
X128785904Y-86291009D02*
X128881142Y-86338628D01*
X128881142Y-86338628D02*
X129262094Y-86338628D01*
X128214475Y-86814819D02*
X128023999Y-86814819D01*
X128023999Y-86814819D02*
X127928761Y-86767200D01*
X127928761Y-86767200D02*
X127881142Y-86719580D01*
X127881142Y-86719580D02*
X127785904Y-86576723D01*
X127785904Y-86576723D02*
X127738285Y-86386247D01*
X127738285Y-86386247D02*
X127738285Y-86005295D01*
X127738285Y-86005295D02*
X127785904Y-85910057D01*
X127785904Y-85910057D02*
X127833523Y-85862438D01*
X127833523Y-85862438D02*
X127928761Y-85814819D01*
X127928761Y-85814819D02*
X128119237Y-85814819D01*
X128119237Y-85814819D02*
X128214475Y-85862438D01*
X128214475Y-85862438D02*
X128262094Y-85910057D01*
X128262094Y-85910057D02*
X128309713Y-86005295D01*
X128309713Y-86005295D02*
X128309713Y-86243390D01*
X128309713Y-86243390D02*
X128262094Y-86338628D01*
X128262094Y-86338628D02*
X128214475Y-86386247D01*
X128214475Y-86386247D02*
X128119237Y-86433866D01*
X128119237Y-86433866D02*
X127928761Y-86433866D01*
X127928761Y-86433866D02*
X127833523Y-86386247D01*
X127833523Y-86386247D02*
X127785904Y-86338628D01*
X127785904Y-86338628D02*
X127738285Y-86243390D01*
X145454666Y-83766819D02*
X145787999Y-83290628D01*
X146026094Y-83766819D02*
X146026094Y-82766819D01*
X146026094Y-82766819D02*
X145645142Y-82766819D01*
X145645142Y-82766819D02*
X145549904Y-82814438D01*
X145549904Y-82814438D02*
X145502285Y-82862057D01*
X145502285Y-82862057D02*
X145454666Y-82957295D01*
X145454666Y-82957295D02*
X145454666Y-83100152D01*
X145454666Y-83100152D02*
X145502285Y-83195390D01*
X145502285Y-83195390D02*
X145549904Y-83243009D01*
X145549904Y-83243009D02*
X145645142Y-83290628D01*
X145645142Y-83290628D02*
X146026094Y-83290628D01*
X144883237Y-83195390D02*
X144978475Y-83147771D01*
X144978475Y-83147771D02*
X145026094Y-83100152D01*
X145026094Y-83100152D02*
X145073713Y-83004914D01*
X145073713Y-83004914D02*
X145073713Y-82957295D01*
X145073713Y-82957295D02*
X145026094Y-82862057D01*
X145026094Y-82862057D02*
X144978475Y-82814438D01*
X144978475Y-82814438D02*
X144883237Y-82766819D01*
X144883237Y-82766819D02*
X144692761Y-82766819D01*
X144692761Y-82766819D02*
X144597523Y-82814438D01*
X144597523Y-82814438D02*
X144549904Y-82862057D01*
X144549904Y-82862057D02*
X144502285Y-82957295D01*
X144502285Y-82957295D02*
X144502285Y-83004914D01*
X144502285Y-83004914D02*
X144549904Y-83100152D01*
X144549904Y-83100152D02*
X144597523Y-83147771D01*
X144597523Y-83147771D02*
X144692761Y-83195390D01*
X144692761Y-83195390D02*
X144883237Y-83195390D01*
X144883237Y-83195390D02*
X144978475Y-83243009D01*
X144978475Y-83243009D02*
X145026094Y-83290628D01*
X145026094Y-83290628D02*
X145073713Y-83385866D01*
X145073713Y-83385866D02*
X145073713Y-83576342D01*
X145073713Y-83576342D02*
X145026094Y-83671580D01*
X145026094Y-83671580D02*
X144978475Y-83719200D01*
X144978475Y-83719200D02*
X144883237Y-83766819D01*
X144883237Y-83766819D02*
X144692761Y-83766819D01*
X144692761Y-83766819D02*
X144597523Y-83719200D01*
X144597523Y-83719200D02*
X144549904Y-83671580D01*
X144549904Y-83671580D02*
X144502285Y-83576342D01*
X144502285Y-83576342D02*
X144502285Y-83385866D01*
X144502285Y-83385866D02*
X144549904Y-83290628D01*
X144549904Y-83290628D02*
X144597523Y-83243009D01*
X144597523Y-83243009D02*
X144692761Y-83195390D01*
X129712819Y-72898095D02*
X130522342Y-72898095D01*
X130522342Y-72898095D02*
X130617580Y-72945714D01*
X130617580Y-72945714D02*
X130665200Y-72993333D01*
X130665200Y-72993333D02*
X130712819Y-73088571D01*
X130712819Y-73088571D02*
X130712819Y-73279047D01*
X130712819Y-73279047D02*
X130665200Y-73374285D01*
X130665200Y-73374285D02*
X130617580Y-73421904D01*
X130617580Y-73421904D02*
X130522342Y-73469523D01*
X130522342Y-73469523D02*
X129712819Y-73469523D01*
X129712819Y-73850476D02*
X129712819Y-74469523D01*
X129712819Y-74469523D02*
X130093771Y-74136190D01*
X130093771Y-74136190D02*
X130093771Y-74279047D01*
X130093771Y-74279047D02*
X130141390Y-74374285D01*
X130141390Y-74374285D02*
X130189009Y-74421904D01*
X130189009Y-74421904D02*
X130284247Y-74469523D01*
X130284247Y-74469523D02*
X130522342Y-74469523D01*
X130522342Y-74469523D02*
X130617580Y-74421904D01*
X130617580Y-74421904D02*
X130665200Y-74374285D01*
X130665200Y-74374285D02*
X130712819Y-74279047D01*
X130712819Y-74279047D02*
X130712819Y-73993333D01*
X130712819Y-73993333D02*
X130665200Y-73898095D01*
X130665200Y-73898095D02*
X130617580Y-73850476D01*
D12*
%TO.C,R10*%
X128366000Y-94854000D02*
X130206000Y-94854000D01*
X128366000Y-98694000D02*
X128366000Y-94854000D01*
X129286000Y-93904000D02*
X129286000Y-94854000D01*
X129286000Y-99644000D02*
X129286000Y-98694000D01*
X130206000Y-94854000D02*
X130206000Y-98694000D01*
X130206000Y-98694000D02*
X128366000Y-98694000D01*
%TO.C,U4*%
X141418000Y-87012000D02*
X177098000Y-87012000D01*
X141418000Y-92472000D02*
X141418000Y-87012000D01*
X141418000Y-99932000D02*
X141418000Y-94472000D01*
X177098000Y-87012000D02*
X177098000Y-99932000D01*
X177098000Y-99932000D02*
X141418000Y-99932000D01*
X141418000Y-92472000D02*
G75*
G02*
X141418000Y-94472000I0J-1000000D01*
G01*
%TO.C,C1*%
X125868000Y-77620000D02*
X125868000Y-77685000D01*
X125868000Y-79795000D02*
X125868000Y-79860000D01*
X129108000Y-77620000D02*
X125868000Y-77620000D01*
X129108000Y-77620000D02*
X129108000Y-77685000D01*
X129108000Y-79795000D02*
X129108000Y-79860000D01*
X129108000Y-79860000D02*
X125868000Y-79860000D01*
%TO.C,J3*%
X131258000Y-84582000D02*
X131258000Y-84642000D01*
X133918000Y-81982000D02*
X132588000Y-81982000D01*
X133918000Y-83312000D02*
X133918000Y-81982000D01*
X133918000Y-84582000D02*
X131258000Y-84582000D01*
X133918000Y-84582000D02*
X133918000Y-84642000D01*
X133918000Y-84642000D02*
X131258000Y-84642000D01*
%TO.C,R7*%
X130734000Y-81026000D02*
X131684000Y-81026000D01*
X131684000Y-80106000D02*
X135524000Y-80106000D01*
X131684000Y-81946000D02*
X131684000Y-80106000D01*
X135524000Y-80106000D02*
X135524000Y-81946000D01*
X135524000Y-81946000D02*
X131684000Y-81946000D01*
X136474000Y-81026000D02*
X135524000Y-81026000D01*
%TO.C,J2*%
X129226000Y-107188000D02*
X129226000Y-107248000D01*
X131886000Y-104588000D02*
X130556000Y-104588000D01*
X131886000Y-105918000D02*
X131886000Y-104588000D01*
X131886000Y-107188000D02*
X129226000Y-107188000D01*
X131886000Y-107188000D02*
X131886000Y-107248000D01*
X131886000Y-107248000D02*
X129226000Y-107248000D01*
%TO.C,R9*%
X131750000Y-86360000D02*
X132700000Y-86360000D01*
X132700000Y-85440000D02*
X136540000Y-85440000D01*
X132700000Y-87280000D02*
X132700000Y-85440000D01*
X136540000Y-85440000D02*
X136540000Y-87280000D01*
X136540000Y-87280000D02*
X132700000Y-87280000D01*
X137490000Y-86360000D02*
X136540000Y-86360000D01*
%TO.C,R8*%
X136068000Y-83312000D02*
X137018000Y-83312000D01*
X137018000Y-82392000D02*
X140858000Y-82392000D01*
X137018000Y-84232000D02*
X137018000Y-82392000D01*
X140858000Y-82392000D02*
X140858000Y-84232000D01*
X140858000Y-84232000D02*
X137018000Y-84232000D01*
X141808000Y-83312000D02*
X140858000Y-83312000D01*
%TO.C,U3*%
X131258000Y-71410000D02*
X149158000Y-71410000D01*
X131258000Y-72660000D02*
X131258000Y-71410000D01*
X131258000Y-75910000D02*
X131258000Y-74660000D01*
X149158000Y-71410000D02*
X149158000Y-75910000D01*
X149158000Y-75910000D02*
X131258000Y-75910000D01*
X131258000Y-72660000D02*
G75*
G02*
X131258000Y-74660000I0J-1000000D01*
G01*
%TD*%
M02*
