%TF.GenerationSoftware,KiCad,Pcbnew,9.0.0*%
%TF.CreationDate,2025-04-04T12:39:40-04:00*%
%TF.ProjectId,RTC-Link2p,5254432d-4c69-46e6-9b32-702e6b696361,rev?*%
%TF.SameCoordinates,Original*%
%TF.FileFunction,Profile,NP*%
%FSLAX46Y46*%
G04 Gerber Fmt 4.6, Leading zero omitted, Abs format (unit mm)*
G04 Created by KiCad (PCBNEW 9.0.0) date 2025-04-04 12:39:40*
%MOMM*%
%LPD*%
G01*
G04 APERTURE LIST*
%TA.AperFunction,Profile*%
%ADD10C,0.100000*%
%TD*%
G04 APERTURE END LIST*
D10*
X123300000Y-116900000D02*
X123825000Y-117475000D01*
X123825000Y-117475000D02*
X180340000Y-117475000D01*
X168325000Y-53150000D02*
X168325000Y-45600000D01*
X123300000Y-55600000D02*
X126200000Y-55600000D01*
X127475000Y-45600000D02*
X139300000Y-45600000D01*
X183262742Y-62248528D02*
X181000000Y-61400000D01*
X183262742Y-62248528D02*
X183200000Y-81500000D01*
X177800000Y-46900000D02*
X177800000Y-55600000D01*
X139300000Y-45600000D02*
X139300000Y-53375000D01*
X177800000Y-55600000D02*
X181000000Y-55600000D01*
X166875000Y-53150000D02*
X168325000Y-53150000D01*
X181000000Y-55600000D02*
X181000000Y-61400000D01*
X123300000Y-55600000D02*
X123300000Y-108900000D01*
X168325000Y-45600000D02*
X176550000Y-45625000D01*
X176550000Y-45625000D02*
X177800000Y-46900000D01*
X180340000Y-117475000D02*
X180915000Y-116950000D01*
X180915000Y-116950000D02*
X180975000Y-116205000D01*
X123300000Y-116900000D02*
X123300000Y-108900000D01*
X166875000Y-45600000D02*
X166875000Y-53150000D01*
X140600000Y-45600000D02*
X166875000Y-45600000D01*
X139300000Y-53375000D02*
X140575000Y-53375000D01*
X181000000Y-82500000D02*
X183200000Y-81500000D01*
X126200000Y-46850000D02*
X127475000Y-45600000D01*
X140575000Y-53375000D02*
X140600000Y-45600000D01*
X126200000Y-55600000D02*
X126200000Y-46850000D01*
X180975000Y-116205000D02*
X181000000Y-82500000D01*
M02*
