%TF.GenerationSoftware,KiCad,Pcbnew,9.0.0*%
%TF.CreationDate,2025-04-04T12:39:39-04:00*%
%TF.ProjectId,RTC-Link2p,5254432d-4c69-46e6-9b32-702e6b696361,rev?*%
%TF.SameCoordinates,Original*%
%TF.FileFunction,Copper,L1,Top*%
%TF.FilePolarity,Positive*%
%FSLAX46Y46*%
G04 Gerber Fmt 4.6, Leading zero omitted, Abs format (unit mm)*
G04 Created by KiCad (PCBNEW 9.0.0) date 2025-04-04 12:39:39*
%MOMM*%
%LPD*%
G01*
G04 APERTURE LIST*
%TA.AperFunction,ComponentPad*%
%ADD10C,1.400000*%
%TD*%
%TA.AperFunction,ComponentPad*%
%ADD11O,1.400000X1.400000*%
%TD*%
%TA.AperFunction,ComponentPad*%
%ADD12R,1.600000X2.400000*%
%TD*%
%TA.AperFunction,ComponentPad*%
%ADD13O,1.600000X2.400000*%
%TD*%
%TA.AperFunction,ComponentPad*%
%ADD14R,1.600000X1.600000*%
%TD*%
%TA.AperFunction,ComponentPad*%
%ADD15O,1.600000X1.600000*%
%TD*%
%TA.AperFunction,ConnectorPad*%
%ADD16R,1.524000X7.620000*%
%TD*%
%TA.AperFunction,ComponentPad*%
%ADD17R,1.700000X1.700000*%
%TD*%
%TA.AperFunction,ComponentPad*%
%ADD18O,1.700000X1.700000*%
%TD*%
%TA.AperFunction,ComponentPad*%
%ADD19C,1.600000*%
%TD*%
%TA.AperFunction,ComponentPad*%
%ADD20R,1.422400X1.422400*%
%TD*%
%TA.AperFunction,ComponentPad*%
%ADD21C,1.422400*%
%TD*%
%TA.AperFunction,ConnectorPad*%
%ADD22R,2.286000X8.000000*%
%TD*%
%TA.AperFunction,ViaPad*%
%ADD23C,0.800000*%
%TD*%
%TA.AperFunction,Conductor*%
%ADD24C,1.000000*%
%TD*%
%TA.AperFunction,Conductor*%
%ADD25C,0.300000*%
%TD*%
%TA.AperFunction,Conductor*%
%ADD26C,0.250000*%
%TD*%
G04 APERTURE END LIST*
D10*
%TO.P,R10,1*%
%TO.N,5V*%
X149250000Y-88250000D03*
D11*
%TO.P,R10,2*%
%TO.N,Net-(J2-Pin_1)*%
X149250000Y-95870000D03*
%TD*%
D12*
%TO.P,U2,1*%
%TO.N,R{slash}~{W}*%
X129260000Y-103460000D03*
D13*
%TO.P,U2,2*%
%TO.N,Net-(U2-Pad2)*%
X131800000Y-103460000D03*
%TO.P,U2,3*%
%TO.N,Net-(J2-Pin_1)*%
X134340000Y-103460000D03*
%TO.P,U2,4*%
%TO.N,A15*%
X136880000Y-103460000D03*
%TO.P,U2,5*%
%TO.N,A14*%
X139420000Y-103460000D03*
%TO.P,U2,6*%
%TO.N,A13*%
X141960000Y-103460000D03*
%TO.P,U2,7,GND*%
%TO.N,GND*%
X144500000Y-103460000D03*
%TO.P,U2,8*%
%TO.N,~{GAME}*%
X144500000Y-95840000D03*
%TO.P,U2,9*%
%TO.N,N/C*%
X141960000Y-95840000D03*
%TO.P,U2,10*%
X139420000Y-95840000D03*
%TO.P,U2,11*%
%TO.N,Net-(U2-Pad11)*%
X136880000Y-95840000D03*
%TO.P,U2,12*%
%TO.N,5V*%
X134340000Y-95840000D03*
%TO.P,U2,13*%
%TO.N,N/C*%
X131800000Y-95840000D03*
%TO.P,U2,14,VCC*%
%TO.N,5V*%
X129260000Y-95840000D03*
%TD*%
D14*
%TO.P,U1,1,VSS*%
%TO.N,GND*%
X174925000Y-63165000D03*
D15*
%TO.P,U1,2,PA0*%
%TO.N,PA0*%
X172385000Y-63165000D03*
%TO.P,U1,3,PA1*%
%TO.N,PA1*%
X169845000Y-63165000D03*
%TO.P,U1,4,PA2*%
%TO.N,PA2*%
X167305000Y-63165000D03*
%TO.P,U1,5,PA3*%
%TO.N,PA3*%
X164765000Y-63165000D03*
%TO.P,U1,6,PA4*%
%TO.N,PA4*%
X162225000Y-63165000D03*
%TO.P,U1,7,PA5*%
%TO.N,PA5*%
X159685000Y-63165000D03*
%TO.P,U1,8,PA6*%
%TO.N,PA6*%
X157145000Y-63165000D03*
%TO.P,U1,9,PA7*%
%TO.N,PA7*%
X154605000Y-63165000D03*
%TO.P,U1,10,PB0*%
%TO.N,PB0*%
X152065000Y-63165000D03*
%TO.P,U1,11,PB1*%
%TO.N,PB1*%
X149525000Y-63165000D03*
%TO.P,U1,12,PB2*%
%TO.N,PB2*%
X146985000Y-63165000D03*
%TO.P,U1,13,PB3*%
%TO.N,PB3*%
X144445000Y-63165000D03*
%TO.P,U1,14,PB4*%
%TO.N,PB4*%
X141905000Y-63165000D03*
%TO.P,U1,15,PB5*%
%TO.N,PB5*%
X139365000Y-63165000D03*
%TO.P,U1,16,PB6*%
%TO.N,PB6*%
X136825000Y-63165000D03*
%TO.P,U1,17,PB7*%
%TO.N,PB7*%
X134285000Y-63165000D03*
%TO.P,U1,18,CB1*%
%TO.N,unconnected-(U1-CB1-Pad18)*%
X131745000Y-63165000D03*
%TO.P,U1,19,CB2*%
%TO.N,unconnected-(U1-CB2-Pad19)*%
X129205000Y-63165000D03*
%TO.P,U1,20,VCC*%
%TO.N,5V*%
X126665000Y-63165000D03*
%TO.P,U1,21,R/~{W}*%
%TO.N,R{slash}~{W}*%
X126665000Y-78405000D03*
%TO.P,U1,22,CS0*%
%TO.N,5V*%
X129205000Y-78405000D03*
%TO.P,U1,23,~{CS2}*%
%TO.N,~{IO1}*%
X131745000Y-78405000D03*
%TO.P,U1,24,CS1*%
%TO.N,5V*%
X134285000Y-78405000D03*
%TO.P,U1,25,ENABLE*%
%TO.N,PHI2*%
X136825000Y-78405000D03*
%TO.P,U1,26,D7*%
%TO.N,D7*%
X139365000Y-78405000D03*
%TO.P,U1,27,D6*%
%TO.N,D6*%
X141905000Y-78405000D03*
%TO.P,U1,28,D5*%
%TO.N,D5*%
X144445000Y-78405000D03*
%TO.P,U1,29,D4*%
%TO.N,D4*%
X146985000Y-78405000D03*
%TO.P,U1,30,D3*%
%TO.N,D3*%
X149525000Y-78405000D03*
%TO.P,U1,31,D2*%
%TO.N,D2*%
X152065000Y-78405000D03*
%TO.P,U1,32,D1*%
%TO.N,D1*%
X154605000Y-78405000D03*
%TO.P,U1,33,D0*%
%TO.N,D0*%
X157145000Y-78405000D03*
%TO.P,U1,34,~{RESET}*%
%TO.N,~{RESET}*%
X159685000Y-78405000D03*
%TO.P,U1,35,RS1*%
%TO.N,A1*%
X162225000Y-78405000D03*
%TO.P,U1,36,RS0*%
%TO.N,A0*%
X164765000Y-78405000D03*
%TO.P,U1,37,~{IRQB}*%
%TO.N,unconnected-(U1-~{IRQB}-Pad37)*%
X167305000Y-78405000D03*
%TO.P,U1,38,~{IRQA}*%
%TO.N,unconnected-(U1-~{IRQA}-Pad38)*%
X169845000Y-78405000D03*
%TO.P,U1,39,CA2*%
%TO.N,CA2*%
X172385000Y-78405000D03*
%TO.P,U1,40,CA1*%
%TO.N,CA1*%
X174925000Y-78405000D03*
%TD*%
D16*
%TO.P,P1,1,GND*%
%TO.N,GND*%
X125660000Y-113000000D03*
%TO.P,P1,2,+5V*%
%TO.N,5V*%
X128200000Y-113000000D03*
%TO.P,P1,3,+5V*%
X130740000Y-113000000D03*
%TO.P,P1,4,~{IRQ}*%
%TO.N,~{IRQ}*%
X133280000Y-113000000D03*
%TO.P,P1,5,R/~{W}*%
%TO.N,R{slash}~{W}*%
X135820000Y-113000000D03*
%TO.P,P1,6,DOTCLK*%
%TO.N,unconnected-(P1-DOTCLK-Pad6)*%
X138360000Y-113000000D03*
%TO.P,P1,7,~{I/O1}*%
%TO.N,~{IO1}*%
X140900000Y-113000000D03*
%TO.P,P1,8,~{GAME}*%
%TO.N,~{GAME}*%
X143440000Y-113000000D03*
%TO.P,P1,9,~{EXROM}*%
%TO.N,unconnected-(P1-~{EXROM}-Pad9)*%
X145980000Y-113000000D03*
%TO.P,P1,10,~{I/O2}*%
%TO.N,unconnected-(P1-~{I{slash}O2}-Pad10)*%
X148520000Y-113000000D03*
%TO.P,P1,11,~{ROML}*%
%TO.N,unconnected-(P1-~{ROML}-Pad11)*%
X151060000Y-113000000D03*
%TO.P,P1,12,BA*%
%TO.N,unconnected-(P1-BA-Pad12)*%
X153600000Y-113000000D03*
%TO.P,P1,13,~{DMA}*%
%TO.N,unconnected-(P1-~{DMA}-Pad13)*%
X156140000Y-113000000D03*
%TO.P,P1,14,D7*%
%TO.N,D7*%
X158680000Y-113000000D03*
%TO.P,P1,15,D6*%
%TO.N,D6*%
X161220000Y-113000000D03*
%TO.P,P1,16,D5*%
%TO.N,D5*%
X163760000Y-113000000D03*
%TO.P,P1,17,D4*%
%TO.N,D4*%
X166300000Y-113000000D03*
%TO.P,P1,18,D3*%
%TO.N,D3*%
X168840000Y-113000000D03*
%TO.P,P1,19,D2*%
%TO.N,D2*%
X171380000Y-113000000D03*
%TO.P,P1,20,D1*%
%TO.N,D1*%
X173920000Y-113000000D03*
%TO.P,P1,21,D0*%
%TO.N,D0*%
X176460000Y-113000000D03*
%TO.P,P1,22,GND*%
%TO.N,GND*%
X179000000Y-113000000D03*
%TD*%
D17*
%TO.P,J4,1,Pin_1*%
%TO.N,GND*%
X149301200Y-104622600D03*
D18*
%TO.P,J4,2,Pin_2*%
%TO.N,Net-(J4-Pin_2)*%
X151841200Y-104622600D03*
%TO.P,J4,3,Pin_3*%
%TO.N,5V*%
X154381200Y-104622600D03*
%TD*%
D17*
%TO.P,J3,1,Pin_1*%
%TO.N,Net-(J3-Pin_1)*%
X154250000Y-99245000D03*
%TD*%
D19*
%TO.P,C1,1*%
%TO.N,5V*%
X129100000Y-59100000D03*
%TO.P,C1,2*%
%TO.N,GND*%
X126600000Y-59100000D03*
%TD*%
D10*
%TO.P,R7,1*%
%TO.N,5V*%
X151750000Y-88250000D03*
D11*
%TO.P,R7,2*%
%TO.N,Net-(J3-Pin_1)*%
X151750000Y-95870000D03*
%TD*%
D14*
%TO.P,RN1,1,common*%
%TO.N,5V*%
X135559800Y-57835800D03*
D15*
%TO.P,RN1,2,R1*%
%TO.N,CA2*%
X138099800Y-57835800D03*
%TO.P,RN1,3,R2*%
%TO.N,PB2*%
X140639800Y-57835800D03*
%TO.P,RN1,4,R3*%
%TO.N,PB7*%
X143179800Y-57835800D03*
%TO.P,RN1,5,R4*%
%TO.N,PB6*%
X145719800Y-57835800D03*
%TO.P,RN1,6,R5*%
%TO.N,PB5*%
X148259800Y-57835800D03*
%TO.P,RN1,7,R6*%
%TO.N,PB4*%
X150799800Y-57835800D03*
%TD*%
D17*
%TO.P,J1,1,Pin_1*%
%TO.N,GND*%
X181100000Y-79400000D03*
D18*
%TO.P,J1,2,Pin_2*%
X178560000Y-79400000D03*
%TO.P,J1,3,Pin_3*%
%TO.N,PA7*%
X181100000Y-76860000D03*
%TO.P,J1,4,Pin_4*%
%TO.N,CA1*%
X178560000Y-76860000D03*
%TO.P,J1,5,Pin_5*%
%TO.N,PA5*%
X181100000Y-74320000D03*
%TO.P,J1,6,Pin_6*%
%TO.N,PA6*%
X178560000Y-74320000D03*
%TO.P,J1,7,Pin_7*%
%TO.N,PA3*%
X181100000Y-71780000D03*
%TO.P,J1,8,Pin_8*%
%TO.N,PA4*%
X178560000Y-71780000D03*
%TO.P,J1,9,Pin_9*%
%TO.N,PA1*%
X181100000Y-69240000D03*
%TO.P,J1,10,Pin_10*%
%TO.N,PA2*%
X178560000Y-69240000D03*
%TO.P,J1,11,Pin_11*%
%TO.N,PB1*%
X181100000Y-66700000D03*
%TO.P,J1,12,Pin_12*%
%TO.N,PA0*%
X178560000Y-66700000D03*
%TO.P,J1,13,Pin_13*%
%TO.N,GND*%
X181100000Y-64160000D03*
%TO.P,J1,14,Pin_14*%
X178560000Y-64160000D03*
%TD*%
D20*
%TO.P,U5,1,NC*%
%TO.N,unconnected-(U5-NC-Pad1)*%
X166235000Y-98830000D03*
D21*
%TO.P,U5,2,A15*%
%TO.N,GND*%
X168775000Y-101370000D03*
%TO.P,U5,3,A12*%
%TO.N,PB0*%
X168775000Y-98830000D03*
%TO.P,U5,4,A7*%
%TO.N,A7*%
X171315000Y-101370000D03*
%TO.P,U5,5,A6*%
%TO.N,A6*%
X173855000Y-98830000D03*
%TO.P,U5,6,A5*%
%TO.N,A5*%
X171315000Y-98830000D03*
%TO.P,U5,7,A4*%
%TO.N,A4*%
X173855000Y-96290000D03*
%TO.P,U5,8,A3*%
%TO.N,A3*%
X171315000Y-96290000D03*
%TO.P,U5,9,A2*%
%TO.N,A2*%
X173855000Y-93750000D03*
%TO.P,U5,10,A1*%
%TO.N,A1*%
X171315000Y-93750000D03*
%TO.P,U5,11,A0*%
%TO.N,A0*%
X173855000Y-91210000D03*
%TO.P,U5,12,NC*%
%TO.N,unconnected-(U5-NC-Pad12)*%
X171315000Y-91210000D03*
%TO.P,U5,13,O0*%
%TO.N,D0*%
X173855000Y-88670000D03*
%TO.P,U5,14,O1*%
%TO.N,D1*%
X171315000Y-86130000D03*
%TO.P,U5,15,O2*%
%TO.N,D2*%
X171315000Y-88670000D03*
%TO.P,U5,16,GND*%
%TO.N,GND*%
X168775000Y-86130000D03*
%TO.P,U5,17,NC*%
%TO.N,unconnected-(U5-NC-Pad17)*%
X168775000Y-88670000D03*
%TO.P,U5,18,O3*%
%TO.N,D3*%
X166235000Y-86130000D03*
%TO.P,U5,19,O4*%
%TO.N,D4*%
X166235000Y-88670000D03*
%TO.P,U5,20,O5*%
%TO.N,D5*%
X163695000Y-86130000D03*
%TO.P,U5,21,O6*%
%TO.N,D6*%
X161155000Y-88670000D03*
%TO.P,U5,22,O7*%
%TO.N,D7*%
X163695000Y-88670000D03*
%TO.P,U5,23,~{CE}*%
%TO.N,~{GAME}*%
X161155000Y-91210000D03*
%TO.P,U5,24,A10*%
%TO.N,A10*%
X163695000Y-91210000D03*
%TO.P,U5,25,~{OE}/VPP*%
%TO.N,~{GAME}*%
X161155000Y-93750000D03*
%TO.P,U5,26,NC*%
%TO.N,unconnected-(U5-NC-Pad26)*%
X163695000Y-93750000D03*
%TO.P,U5,27,A11*%
%TO.N,A11*%
X161155000Y-96290000D03*
%TO.P,U5,28,A9*%
%TO.N,A9*%
X163695000Y-96290000D03*
%TO.P,U5,29,A8*%
%TO.N,A8*%
X161155000Y-98830000D03*
%TO.P,U5,30,A13*%
%TO.N,Net-(J4-Pin_2)*%
X163695000Y-101370000D03*
%TO.P,U5,31,A14*%
%TO.N,GND*%
X163695000Y-98830000D03*
%TO.P,U5,32,VCC*%
%TO.N,5V*%
X166235000Y-101370000D03*
%TD*%
D19*
%TO.P,C2,1*%
%TO.N,5V*%
X147200000Y-83900000D03*
%TO.P,C2,2*%
%TO.N,GND*%
X147200000Y-86400000D03*
%TD*%
D17*
%TO.P,J2,1,Pin_1*%
%TO.N,Net-(J2-Pin_1)*%
X149750000Y-99245000D03*
%TD*%
D22*
%TO.P,CN1,1*%
%TO.N,PA0*%
X173585000Y-50200000D03*
%TO.P,CN1,2*%
%TO.N,PA1*%
X169625000Y-50200000D03*
%TO.P,CN1,3*%
%TO.N,PA2*%
X165665000Y-50200000D03*
%TO.P,CN1,4*%
%TO.N,PA3*%
X161705000Y-50200000D03*
%TO.P,CN1,5*%
%TO.N,PB4*%
X157745000Y-50200000D03*
%TO.P,CN1,6*%
%TO.N,PB5*%
X153785000Y-50200000D03*
%TO.P,CN1,7*%
%TO.N,PB6*%
X149825000Y-50200000D03*
%TO.P,CN1,8*%
%TO.N,PB7*%
X145865000Y-50200000D03*
%TO.P,CN1,9*%
%TO.N,PB3*%
X141905000Y-50200000D03*
%TO.P,CN1,10*%
%TO.N,PB2*%
X137945000Y-50200000D03*
%TO.P,CN1,11*%
%TO.N,CA2*%
X133985000Y-50200000D03*
%TO.P,CN1,12*%
%TO.N,GND*%
X130025000Y-50200000D03*
%TD*%
D10*
%TO.P,R9,1*%
%TO.N,5V*%
X156750000Y-88250000D03*
D11*
%TO.P,R9,2*%
%TO.N,PB0*%
X156750000Y-95870000D03*
%TD*%
D10*
%TO.P,R8,1*%
%TO.N,5V*%
X154250000Y-88250000D03*
D11*
%TO.P,R8,2*%
%TO.N,Net-(J3-Pin_1)*%
X154250000Y-95870000D03*
%TD*%
D12*
%TO.P,U3,1*%
%TO.N,unconnected-(U3-Pad1)*%
X129260000Y-91460000D03*
D13*
%TO.P,U3,2*%
%TO.N,unconnected-(U3-Pad2)*%
X131800000Y-91460000D03*
%TO.P,U3,3*%
%TO.N,unconnected-(U3-Pad3)*%
X134340000Y-91460000D03*
%TO.P,U3,4*%
%TO.N,A12*%
X136880000Y-91460000D03*
%TO.P,U3,5*%
X139420000Y-91460000D03*
%TO.P,U3,6*%
%TO.N,Net-(U2-Pad11)*%
X141960000Y-91460000D03*
%TO.P,U3,7,GND*%
%TO.N,GND*%
X144500000Y-91460000D03*
%TO.P,U3,8*%
%TO.N,Net-(U2-Pad2)*%
X144500000Y-83840000D03*
%TO.P,U3,9*%
%TO.N,PB0*%
X141960000Y-83840000D03*
%TO.P,U3,10*%
%TO.N,Net-(U3-Pad10)*%
X139420000Y-83840000D03*
%TO.P,U3,11*%
X136880000Y-83840000D03*
%TO.P,U3,12*%
%TO.N,Net-(J3-Pin_1)*%
X134340000Y-83840000D03*
%TO.P,U3,13*%
X131800000Y-83840000D03*
%TO.P,U3,14,VCC*%
%TO.N,5V*%
X129260000Y-83840000D03*
%TD*%
D23*
%TO.N,GND*%
X125200000Y-89000000D03*
X179000000Y-108000000D03*
X158500000Y-56750000D03*
X130302000Y-54864000D03*
X128600000Y-88960000D03*
X125660000Y-107750000D03*
%TO.N,5V*%
X160985200Y-86868000D03*
%TO.N,D7*%
X159461200Y-88976200D03*
%TO.N,D2*%
X176200000Y-105500000D03*
X177000000Y-93200000D03*
%TO.N,D1*%
X177100000Y-106500000D03*
X177038000Y-91389200D03*
%TO.N,D0*%
X177038500Y-89788500D03*
X177775000Y-107475000D03*
%TO.N,A12*%
X141542200Y-100748400D03*
%TO.N,A11*%
X149047200Y-107848400D03*
X152450800Y-107924600D03*
%TO.N,PA0*%
X172948600Y-58394600D03*
%TO.N,PA1*%
X169621200Y-58470800D03*
%TO.N,PA2*%
X167305000Y-58470800D03*
%TO.N,PA3*%
X164765000Y-58496200D03*
%TO.N,PB0*%
X162329182Y-80723418D03*
X152300000Y-84250000D03*
%TO.N,~{IO1}*%
X128960000Y-98160000D03*
%TO.N,~{GAME}*%
X143260000Y-100355400D03*
%TO.N,Net-(J4-Pin_2)*%
X158692600Y-106248200D03*
%TD*%
D24*
%TO.N,5V*%
X158546800Y-102387400D02*
X158546800Y-93446600D01*
%TO.N,GND*%
X174904400Y-61250000D02*
X178587400Y-61250000D01*
D25*
X182600000Y-78816800D02*
X182016800Y-79400000D01*
D24*
X146253200Y-99898200D02*
X144500000Y-101651400D01*
X128500000Y-89000000D02*
X125200000Y-89000000D01*
X144500000Y-91460000D02*
X146253200Y-93213200D01*
X176530000Y-103200000D02*
X178943200Y-103200000D01*
X144500000Y-91460000D02*
X144500000Y-89100000D01*
X130025000Y-54587000D02*
X130025000Y-50200000D01*
D25*
X182600000Y-65660000D02*
X182600000Y-78816800D01*
D24*
X158500000Y-56750000D02*
X163000000Y-61250000D01*
X178485800Y-81610200D02*
X178560000Y-81536000D01*
D25*
X181100000Y-64160000D02*
X182600000Y-65660000D01*
D24*
X179000000Y-108000000D02*
X179000000Y-103600000D01*
X179730400Y-82092800D02*
X181100000Y-80723200D01*
D25*
X125660000Y-107660000D02*
X125660000Y-107750000D01*
D24*
X179131400Y-61250000D02*
X181100000Y-63218600D01*
X168775000Y-102328600D02*
X168775000Y-101370000D01*
X178560000Y-61277400D02*
X178587400Y-61250000D01*
X181100000Y-63218600D02*
X181100000Y-64160000D01*
X174925000Y-61270600D02*
X174925000Y-63165000D01*
X178560000Y-81536000D02*
X178560000Y-79400000D01*
X174904400Y-61250000D02*
X174925000Y-61270600D01*
X178587400Y-61250000D02*
X179131400Y-61250000D01*
X179171600Y-100888800D02*
X179171600Y-82651600D01*
X181100000Y-80723200D02*
X181100000Y-79400000D01*
X144500000Y-101651400D02*
X144500000Y-103460000D01*
X168775000Y-84564600D02*
X171246800Y-82092800D01*
X178485800Y-82092800D02*
X178485800Y-81610200D01*
X146253200Y-93213200D02*
X146253200Y-99898200D01*
X179171600Y-82651600D02*
X179730400Y-82092800D01*
X178560000Y-64160000D02*
X178560000Y-61277400D01*
X168775000Y-86130000D02*
X168775000Y-84564600D01*
X174305400Y-61250000D02*
X174904400Y-61250000D01*
X163000000Y-61250000D02*
X174305400Y-61250000D01*
X171246800Y-82092800D02*
X178485800Y-82092800D01*
X144500000Y-89100000D02*
X147200000Y-86400000D01*
X176530000Y-103200000D02*
X169646400Y-103200000D01*
X179171600Y-100888800D02*
X179171600Y-103428400D01*
X130302000Y-54864000D02*
X130025000Y-54587000D01*
D25*
X182016800Y-79400000D02*
X181100000Y-79400000D01*
D24*
X179171600Y-103428400D02*
X179000000Y-103600000D01*
X169646400Y-103200000D02*
X168775000Y-102328600D01*
X178943200Y-103200000D02*
X179171600Y-103428400D01*
X125660000Y-107660000D02*
X125660000Y-113000000D01*
X178485800Y-82092800D02*
X179730400Y-82092800D01*
X179000000Y-113000000D02*
X179000000Y-108000000D01*
D26*
%TO.N,CA2*%
X138099800Y-64008000D02*
X139881800Y-65790000D01*
X133985000Y-50200000D02*
X133985000Y-55085000D01*
X134300000Y-55400000D02*
X136756200Y-55400000D01*
X138240000Y-56883800D02*
X138240000Y-57800000D01*
X154232800Y-65790000D02*
X164942800Y-76500000D01*
X164942800Y-76500000D02*
X170480000Y-76500000D01*
X139881800Y-65790000D02*
X154232800Y-65790000D01*
X136756200Y-55400000D02*
X138240000Y-56883800D01*
X133985000Y-55085000D02*
X134300000Y-55400000D01*
X170480000Y-76500000D02*
X172385000Y-78405000D01*
X138099800Y-57940200D02*
X138099800Y-64008000D01*
X138240000Y-57800000D02*
X138099800Y-57940200D01*
D25*
%TO.N,CA1*%
X177015000Y-78405000D02*
X178560000Y-76860000D01*
X174925000Y-78405000D02*
X177015000Y-78405000D01*
D24*
%TO.N,5V*%
X124010200Y-81600000D02*
X124000000Y-81610200D01*
X130000000Y-81600000D02*
X129133600Y-81600000D01*
X133193000Y-57835800D02*
X135559800Y-57835800D01*
X134400000Y-81600000D02*
X144957800Y-81600000D01*
X158546800Y-93446600D02*
X156750000Y-91649800D01*
X129260000Y-81726400D02*
X129260000Y-83840000D01*
X124000000Y-96000000D02*
X124000000Y-84000000D01*
X130000000Y-81600000D02*
X134400000Y-81600000D01*
X124000000Y-103019600D02*
X124000000Y-96000000D01*
X150325000Y-88232400D02*
X150342600Y-88250000D01*
X134400000Y-81600000D02*
X134285000Y-81485000D01*
X124000000Y-81610200D02*
X124000000Y-84000000D01*
X124000000Y-64439800D02*
X124000000Y-81610200D01*
X154250000Y-88250000D02*
X156750000Y-88250000D01*
D25*
X158132000Y-86868000D02*
X156750000Y-88250000D01*
D24*
X150342600Y-88250000D02*
X151750000Y-88250000D01*
X150325000Y-83888400D02*
X150313400Y-83900000D01*
X150313400Y-83900000D02*
X148013400Y-81600000D01*
X129205000Y-81528600D02*
X129205000Y-78405000D01*
X128200000Y-108200000D02*
X129700000Y-108200000D01*
X124160000Y-95840000D02*
X129260000Y-95840000D01*
X129100000Y-59825200D02*
X126665000Y-62260200D01*
X134285000Y-81485000D02*
X134285000Y-78405000D01*
X151750000Y-88250000D02*
X154250000Y-88250000D01*
X124000000Y-96000000D02*
X124160000Y-95840000D01*
X128200000Y-107219600D02*
X124000000Y-103019600D01*
X126665000Y-62260200D02*
X126665000Y-63165000D01*
X147200000Y-81720000D02*
X147320000Y-81600000D01*
X156260800Y-104622600D02*
X154381200Y-104622600D01*
D25*
X160985200Y-86868000D02*
X158132000Y-86868000D01*
D24*
X158546800Y-102387400D02*
X156286200Y-104648000D01*
X156286200Y-104648000D02*
X156260800Y-104622600D01*
X147200000Y-83900000D02*
X147200000Y-81720000D01*
X129100000Y-59100000D02*
X129100000Y-59825200D01*
X148013400Y-81600000D02*
X147320000Y-81600000D01*
X129133600Y-81600000D02*
X124010200Y-81600000D01*
X125274800Y-63165000D02*
X124000000Y-64439800D01*
X150325000Y-83888400D02*
X150325000Y-88232400D01*
X128200000Y-108200000D02*
X128200000Y-107219600D01*
X126665000Y-63165000D02*
X125274800Y-63165000D01*
X131857200Y-59100000D02*
X129100000Y-59100000D01*
X156750000Y-91649800D02*
X156750000Y-88250000D01*
X129133600Y-81600000D02*
X129260000Y-81726400D01*
X130740000Y-109240000D02*
X130740000Y-113000000D01*
X129133600Y-81600000D02*
X129205000Y-81528600D01*
X144957800Y-81600000D02*
X147320000Y-81600000D01*
X128200000Y-113000000D02*
X128200000Y-108200000D01*
X133157200Y-57800000D02*
X133193000Y-57835800D01*
X133157200Y-57800000D02*
X131857200Y-59100000D01*
X129700000Y-108200000D02*
X130740000Y-109240000D01*
X149250000Y-88250000D02*
X150342600Y-88250000D01*
D26*
%TO.N,D7*%
X159417600Y-106647400D02*
X158680000Y-107385000D01*
X158680000Y-107385000D02*
X158680000Y-113000000D01*
X159417600Y-89019800D02*
X159417600Y-106647400D01*
X159461200Y-88976200D02*
X159417600Y-89019800D01*
%TO.N,D6*%
X161155000Y-89625305D02*
X161155000Y-88670000D01*
X159867600Y-102867600D02*
X159867600Y-90912705D01*
X161220000Y-113000000D02*
X161220000Y-104220000D01*
X161220000Y-104220000D02*
X159867600Y-102867600D01*
X159867600Y-90912705D02*
X161155000Y-89625305D01*
%TO.N,D5*%
X162433000Y-87350600D02*
X162407600Y-87376000D01*
X162407600Y-87376000D02*
X162407600Y-105257600D01*
X163695000Y-86130000D02*
X162474400Y-87350600D01*
X162474400Y-87350600D02*
X162433000Y-87350600D01*
X162407600Y-105257600D02*
X163760000Y-106610000D01*
X163760000Y-106610000D02*
X163760000Y-113000000D01*
%TO.N,D4*%
X165173800Y-105029000D02*
X166300000Y-106155200D01*
D25*
X164947600Y-89957400D02*
X166235000Y-88670000D01*
X165173800Y-105029000D02*
X164947600Y-104802800D01*
D26*
X166300000Y-106155200D02*
X166300000Y-113000000D01*
D25*
X164947600Y-104802800D02*
X164947600Y-89957400D01*
D26*
%TO.N,D3*%
X166235000Y-86130000D02*
X167513000Y-87408000D01*
X168840000Y-105822600D02*
X168840000Y-113000000D01*
X167513000Y-87408000D02*
X167513000Y-104495600D01*
X167513000Y-104495600D02*
X168840000Y-105822600D01*
D25*
%TO.N,D2*%
X171315000Y-88670000D02*
X171315000Y-88993600D01*
D26*
X177000000Y-93200000D02*
X176300000Y-92500000D01*
X171380000Y-113000000D02*
X171380000Y-108620000D01*
X171700000Y-108300000D02*
X172025000Y-107975000D01*
D25*
X172593000Y-90271600D02*
X172593000Y-91770200D01*
D26*
X172025000Y-107975000D02*
X174500000Y-105500000D01*
D25*
X171315000Y-88993600D02*
X172593000Y-90271600D01*
D26*
X174500000Y-105500000D02*
X176200000Y-105500000D01*
D25*
X172593000Y-91770200D02*
X173322800Y-92500000D01*
X173322800Y-92500000D02*
X176300000Y-92500000D01*
D26*
X171380000Y-108620000D02*
X171700000Y-108300000D01*
D25*
%TO.N,D1*%
X172593000Y-89204800D02*
X172593000Y-87408000D01*
X173920000Y-113000000D02*
X173920000Y-107980000D01*
X173329600Y-89941400D02*
X172593000Y-89204800D01*
X174800000Y-107100000D02*
X175400000Y-106500000D01*
X172593000Y-87408000D02*
X171315000Y-86130000D01*
X173920000Y-107980000D02*
X174800000Y-107100000D01*
X175400000Y-106500000D02*
X177100000Y-106500000D01*
X175590200Y-89941400D02*
X173329600Y-89941400D01*
X177038000Y-91389200D02*
X175590200Y-89941400D01*
D26*
%TO.N,D0*%
X176460000Y-108790000D02*
X177775000Y-107475000D01*
X176460000Y-113000000D02*
X176460000Y-108790000D01*
X177038500Y-89788500D02*
X175920000Y-88670000D01*
X175920000Y-88670000D02*
X173855000Y-88670000D01*
D25*
%TO.N,A12*%
X136880000Y-91460000D02*
X139420000Y-91460000D01*
X141542200Y-100748400D02*
X140690600Y-99896800D01*
X140690600Y-94691200D02*
X139420000Y-93420600D01*
X139420000Y-93420600D02*
X139420000Y-91460000D01*
X140690600Y-99896800D02*
X140690600Y-94691200D01*
%TO.N,A11*%
X152349200Y-107823000D02*
X152450800Y-107924600D01*
X149072600Y-107823000D02*
X152349200Y-107823000D01*
X149047200Y-107848400D02*
X149072600Y-107823000D01*
%TO.N,PA0*%
X172948600Y-58394600D02*
X173585000Y-57758200D01*
X175920000Y-66700000D02*
X178560000Y-66700000D01*
X173585000Y-57758200D02*
X173585000Y-50200000D01*
X172385000Y-63165000D02*
X175920000Y-66700000D01*
%TO.N,PA1*%
X174720000Y-68040000D02*
X169845000Y-63165000D01*
X169625000Y-58467000D02*
X169625000Y-50200000D01*
X169621200Y-58470800D02*
X169625000Y-58467000D01*
X181100000Y-69240000D02*
X179900000Y-68040000D01*
X179900000Y-68040000D02*
X174720000Y-68040000D01*
D26*
%TO.N,PA2*%
X167305000Y-58470800D02*
X165665000Y-56830800D01*
X165665000Y-56830800D02*
X165665000Y-50200000D01*
D25*
X173380000Y-69240000D02*
X167305000Y-63165000D01*
X178560000Y-69240000D02*
X173380000Y-69240000D01*
%TO.N,PA3*%
X181100000Y-71780000D02*
X179820000Y-70500000D01*
D26*
X164765000Y-57765000D02*
X161705000Y-54705000D01*
X164765000Y-58496200D02*
X164765000Y-57765000D01*
D25*
X179820000Y-70500000D02*
X172100000Y-70500000D01*
X172100000Y-70500000D02*
X164765000Y-63165000D01*
D26*
X161705000Y-54705000D02*
X161705000Y-50200000D01*
D25*
%TO.N,PA4*%
X178560000Y-71780000D02*
X170840000Y-71780000D01*
X170840000Y-71780000D02*
X162225000Y-63165000D01*
%TO.N,PA5*%
X169500000Y-72980000D02*
X159685000Y-63165000D01*
X181100000Y-74320000D02*
X179760000Y-72980000D01*
X179760000Y-72980000D02*
X169500000Y-72980000D01*
%TO.N,PA6*%
X178560000Y-74320000D02*
X168300000Y-74320000D01*
X168300000Y-74320000D02*
X157145000Y-63165000D01*
D26*
%TO.N,PB0*%
X170000000Y-90223000D02*
X168750000Y-91473000D01*
D25*
X166241200Y-84250000D02*
X167500000Y-85508800D01*
D26*
X168750000Y-97500000D02*
X168775000Y-97525000D01*
X168750000Y-91473000D02*
X168750000Y-97500000D01*
D25*
X167500000Y-86702600D02*
X168198800Y-87401400D01*
X162329182Y-80723418D02*
X165855764Y-84250000D01*
D26*
X168775000Y-97525000D02*
X168775000Y-98830000D01*
D25*
X165855764Y-84250000D02*
X166241200Y-84250000D01*
X167500000Y-85508800D02*
X167500000Y-86702600D01*
X168198800Y-87401400D02*
X169401400Y-87401400D01*
X169401400Y-87401400D02*
X170000000Y-88000000D01*
D26*
X170000000Y-88000000D02*
X170000000Y-90223000D01*
D25*
X165855764Y-84250000D02*
X152300000Y-84250000D01*
D26*
%TO.N,PB2*%
X140780000Y-57772800D02*
X140780000Y-57800000D01*
D25*
X145360000Y-64790000D02*
X141800000Y-64790000D01*
D26*
X137945000Y-54937800D02*
X140780000Y-57772800D01*
X141574200Y-64790000D02*
X141800000Y-64790000D01*
D25*
X146985000Y-63165000D02*
X145360000Y-64790000D01*
D26*
X140639800Y-63855600D02*
X141574200Y-64790000D01*
X140780000Y-57800000D02*
X140639800Y-57940200D01*
X140639800Y-57940200D02*
X140639800Y-63855600D01*
X137945000Y-50200000D02*
X137945000Y-54937800D01*
D25*
%TO.N,PB3*%
X141884400Y-50220600D02*
X141884400Y-60604400D01*
X141905000Y-50200000D02*
X141884400Y-50220600D01*
X141884400Y-60604400D02*
X144445000Y-63165000D01*
D26*
%TO.N,PB4*%
X157745000Y-55255000D02*
X157745000Y-50200000D01*
X155200000Y-57800000D02*
X150940000Y-57800000D01*
X157745000Y-55255000D02*
X155200000Y-57800000D01*
%TO.N,PB5*%
X152600000Y-56300000D02*
X149900000Y-56300000D01*
X149900000Y-56300000D02*
X148400000Y-57800000D01*
X153785000Y-50200000D02*
X153785000Y-55115000D01*
X153785000Y-55115000D02*
X152600000Y-56300000D01*
D25*
%TO.N,PB6*%
X149825000Y-55075000D02*
X149200000Y-55700000D01*
X149825000Y-50200000D02*
X149825000Y-55075000D01*
X149200000Y-55700000D02*
X147960000Y-55700000D01*
X147960000Y-55700000D02*
X145860000Y-57800000D01*
%TO.N,PB7*%
X145865000Y-50200000D02*
X145865000Y-55255000D01*
X145865000Y-55255000D02*
X143320000Y-57800000D01*
%TO.N,PA7*%
X181100000Y-76860000D02*
X179900000Y-75660000D01*
X179900000Y-75660000D02*
X167100000Y-75660000D01*
X167100000Y-75660000D02*
X154605000Y-63165000D01*
%TO.N,R{slash}~{W}*%
X129260000Y-104760000D02*
X129260000Y-103460000D01*
X134408600Y-106908600D02*
X131408600Y-106908600D01*
X135820000Y-113000000D02*
X135820000Y-108320000D01*
X131408600Y-106908600D02*
X129260000Y-104760000D01*
X135820000Y-108320000D02*
X134408600Y-106908600D01*
%TO.N,~{IO1}*%
X132105400Y-106197400D02*
X130505200Y-104597200D01*
X130505200Y-99705200D02*
X128960000Y-98160000D01*
X140900000Y-113000000D02*
X140900000Y-108210200D01*
X130505200Y-104597200D02*
X130505200Y-99705200D01*
X140900000Y-108210200D02*
X138887200Y-106197400D01*
X138887200Y-106197400D02*
X132105400Y-106197400D01*
%TO.N,~{GAME}*%
X143260000Y-100355400D02*
X143281400Y-100355400D01*
X143440000Y-106040000D02*
X143440000Y-113000000D01*
X144500000Y-99136800D02*
X144500000Y-95840000D01*
X143281400Y-100355400D02*
X144500000Y-99136800D01*
X143260000Y-100355400D02*
X143260000Y-105860000D01*
X143260000Y-105860000D02*
X143440000Y-106040000D01*
%TO.N,Net-(U2-Pad2)*%
X133070600Y-98653600D02*
X131775200Y-99949000D01*
X134950000Y-88160000D02*
X133070600Y-90039400D01*
X131775200Y-103435200D02*
X131800000Y-103460000D01*
X131775200Y-99949000D02*
X131775200Y-103435200D01*
X144500000Y-86120000D02*
X142460000Y-88160000D01*
X133070600Y-90039400D02*
X133070600Y-98653600D01*
X142460000Y-88160000D02*
X134950000Y-88160000D01*
X144500000Y-83840000D02*
X144500000Y-86120000D01*
D24*
%TO.N,Net-(U3-Pad10)*%
X136880000Y-83840000D02*
X139420000Y-83840000D01*
%TO.N,Net-(J3-Pin_1)*%
X134340000Y-83840000D02*
X131800000Y-83840000D01*
D25*
%TO.N,Net-(J4-Pin_2)*%
X158692600Y-106248200D02*
X152501600Y-106248200D01*
X151840000Y-105586600D02*
X151841200Y-105585400D01*
X151841200Y-105585400D02*
X151841200Y-104622600D01*
X152501600Y-106248200D02*
X151840000Y-105586600D01*
%TD*%
M02*
