M48
; DRILL file {KiCad 9.0.0} date 2025-04-04T12:39:38-0400
; FORMAT={-:-/ absolute / inch / decimal}
; #@! TF.CreationDate,2025-04-04T12:39:38-04:00
; #@! TF.GenerationSoftware,Kicad,Pcbnew,9.0.0
; #@! TF.FileFunction,Plated,1,2,PTH
FMAT,2
INCH
; #@! TA.AperFunction,Plated,PTH,ViaDrill
T1C0.0157
; #@! TA.AperFunction,Plated,PTH,ComponentDrill
T2C0.0276
; #@! TA.AperFunction,Plated,PTH,ComponentDrill
T3C0.0315
; #@! TA.AperFunction,Plated,PTH,ComponentDrill
T4C0.0394
%
G90
G05
T1
X4.9291Y-3.5039
X4.9472Y-4.2421
X5.063Y-3.5024
X5.0772Y-3.8646
X5.13Y-2.16
X5.5725Y-3.9665
X5.6402Y-3.951
X5.868Y-4.246
X5.9961Y-3.3169
X6.002Y-4.249
X6.2402Y-2.2343
X6.2477Y-4.183
X6.278Y-3.503
X6.338Y-3.42
X6.3909Y-3.1781
X6.4868Y-2.303
X6.5868Y-2.302
X6.678Y-2.302
X6.809Y-2.299
X6.937Y-4.1535
X6.9685Y-3.6693
X6.97Y-3.598
X6.97Y-3.535
X6.9724Y-4.1929
X6.999Y-4.2313
X7.0472Y-4.252
T2
X5.876Y-3.4744
X5.876Y-3.7744
X5.9744Y-3.4744
X5.9744Y-3.7744
X6.0728Y-3.4744
X6.0728Y-3.7744
X6.1713Y-3.4744
X6.1713Y-3.7744
T3
X4.9843Y-2.3268
X4.9868Y-2.4868
X4.9868Y-3.0868
X5.0827Y-2.3268
X5.0868Y-2.4868
X5.0868Y-3.0868
X5.089Y-3.3008
X5.089Y-3.6008
X5.089Y-3.7732
X5.089Y-4.0732
X5.1868Y-2.4868
X5.1868Y-3.0868
X5.189Y-3.3008
X5.189Y-3.6008
X5.189Y-3.7732
X5.189Y-4.0732
X5.2868Y-2.4868
X5.2868Y-3.0868
X5.289Y-3.3008
X5.289Y-3.6008
X5.289Y-3.7732
X5.289Y-4.0732
X5.337Y-2.277
X5.3868Y-2.4868
X5.3868Y-3.0868
X5.389Y-3.3008
X5.389Y-3.6008
X5.389Y-3.7732
X5.389Y-4.0732
X5.437Y-2.277
X5.4868Y-2.4868
X5.4868Y-3.0868
X5.489Y-3.3008
X5.489Y-3.6008
X5.489Y-3.7732
X5.489Y-4.0732
X5.537Y-2.277
X5.5868Y-2.4868
X5.5868Y-3.0868
X5.589Y-3.3008
X5.589Y-3.6008
X5.589Y-3.7732
X5.589Y-4.0732
X5.637Y-2.277
X5.6868Y-2.4868
X5.6868Y-3.0868
X5.689Y-3.3008
X5.689Y-3.6008
X5.689Y-3.7732
X5.689Y-4.0732
X5.737Y-2.277
X5.7868Y-2.4868
X5.7868Y-3.0868
X5.7953Y-3.3031
X5.7953Y-3.4016
X5.837Y-2.277
X5.8868Y-2.4868
X5.8868Y-3.0868
X5.937Y-2.277
X5.9868Y-2.4868
X5.9868Y-3.0868
X6.0868Y-2.4868
X6.0868Y-3.0868
X6.1868Y-2.4868
X6.1868Y-3.0868
X6.2868Y-2.4868
X6.2868Y-3.0868
X6.3447Y-3.4909
X6.3447Y-3.5909
X6.3447Y-3.6909
X6.3447Y-3.7909
X6.3447Y-3.8909
X6.3868Y-2.4868
X6.3868Y-3.0868
X6.4447Y-3.3909
X6.4447Y-3.4909
X6.4447Y-3.5909
X6.4447Y-3.6909
X6.4447Y-3.7909
X6.4447Y-3.8909
X6.4447Y-3.9909
X6.4868Y-2.4868
X6.4868Y-3.0868
X6.5447Y-3.3909
X6.5447Y-3.4909
X6.5447Y-3.8909
X6.5447Y-3.9909
X6.5868Y-2.4868
X6.5868Y-3.0868
X6.6447Y-3.3909
X6.6447Y-3.4909
X6.6447Y-3.8909
X6.6447Y-3.9909
X6.6868Y-2.4868
X6.6868Y-3.0868
X6.7447Y-3.3909
X6.7447Y-3.4909
X6.7447Y-3.5909
X6.7447Y-3.6909
X6.7447Y-3.7909
X6.7447Y-3.8909
X6.7447Y-3.9909
X6.7868Y-2.4868
X6.7868Y-3.0868
X6.8447Y-3.4909
X6.8447Y-3.5909
X6.8447Y-3.6909
X6.8447Y-3.7909
X6.8447Y-3.8909
X6.8868Y-2.4868
X6.8868Y-3.0868
T4
X5.878Y-4.119
X5.8957Y-3.9073
X5.978Y-4.119
X6.0728Y-3.9073
X6.078Y-4.119
X7.0299Y-2.526
X7.0299Y-2.626
X7.0299Y-2.726
X7.0299Y-2.826
X7.0299Y-2.926
X7.0299Y-3.026
X7.0299Y-3.126
X7.1299Y-2.526
X7.1299Y-2.626
X7.1299Y-2.726
X7.1299Y-2.826
X7.1299Y-2.926
X7.1299Y-3.026
X7.1299Y-3.126
M30
