%TF.GenerationSoftware,KiCad,Pcbnew,9.0.0*%
%TF.CreationDate,2025-04-04T12:39:40-04:00*%
%TF.ProjectId,RTC-Link2p,5254432d-4c69-46e6-9b32-702e6b696361,rev?*%
%TF.SameCoordinates,Original*%
%TF.FileFunction,Soldermask,Bot*%
%TF.FilePolarity,Negative*%
%FSLAX46Y46*%
G04 Gerber Fmt 4.6, Leading zero omitted, Abs format (unit mm)*
G04 Created by KiCad (PCBNEW 9.0.0) date 2025-04-04 12:39:40*
%MOMM*%
%LPD*%
G01*
G04 APERTURE LIST*
%ADD10C,0.150000*%
%ADD11C,1.400000*%
%ADD12O,1.400000X1.400000*%
%ADD13R,1.600000X2.400000*%
%ADD14O,1.600000X2.400000*%
%ADD15R,1.600000X1.600000*%
%ADD16O,1.600000X1.600000*%
%ADD17R,1.524000X7.620000*%
%ADD18R,1.700000X1.700000*%
%ADD19O,1.700000X1.700000*%
%ADD20C,1.600000*%
%ADD21R,1.422400X1.422400*%
%ADD22C,1.422400*%
%ADD23R,2.286000X8.000000*%
G04 APERTURE END LIST*
D10*
X126300000Y-45700000D02*
X177800000Y-45700000D01*
X177800000Y-54600000D01*
X126300000Y-54600000D01*
X126300000Y-45700000D01*
G36*
X126300000Y-45700000D02*
G01*
X177800000Y-45700000D01*
X177800000Y-54600000D01*
X126300000Y-54600000D01*
X126300000Y-45700000D01*
G37*
X123300000Y-108900000D02*
X181000000Y-108900000D01*
X181000000Y-117500000D01*
X123300000Y-117500000D01*
X123300000Y-108900000D01*
G36*
X123300000Y-108900000D02*
G01*
X181000000Y-108900000D01*
X181000000Y-117500000D01*
X123300000Y-117500000D01*
X123300000Y-108900000D01*
G37*
D11*
%TO.C,R10*%
X149250000Y-88250000D03*
D12*
X149250000Y-95870000D03*
%TD*%
D13*
%TO.C,U2*%
X129260000Y-103460000D03*
D14*
X131800000Y-103460000D03*
X134340000Y-103460000D03*
X136880000Y-103460000D03*
X139420000Y-103460000D03*
X141960000Y-103460000D03*
X144500000Y-103460000D03*
X144500000Y-95840000D03*
X141960000Y-95840000D03*
X139420000Y-95840000D03*
X136880000Y-95840000D03*
X134340000Y-95840000D03*
X131800000Y-95840000D03*
X129260000Y-95840000D03*
%TD*%
D15*
%TO.C,U1*%
X174925000Y-63165000D03*
D16*
X172385000Y-63165000D03*
X169845000Y-63165000D03*
X167305000Y-63165000D03*
X164765000Y-63165000D03*
X162225000Y-63165000D03*
X159685000Y-63165000D03*
X157145000Y-63165000D03*
X154605000Y-63165000D03*
X152065000Y-63165000D03*
X149525000Y-63165000D03*
X146985000Y-63165000D03*
X144445000Y-63165000D03*
X141905000Y-63165000D03*
X139365000Y-63165000D03*
X136825000Y-63165000D03*
X134285000Y-63165000D03*
X131745000Y-63165000D03*
X129205000Y-63165000D03*
X126665000Y-63165000D03*
X126665000Y-78405000D03*
X129205000Y-78405000D03*
X131745000Y-78405000D03*
X134285000Y-78405000D03*
X136825000Y-78405000D03*
X139365000Y-78405000D03*
X141905000Y-78405000D03*
X144445000Y-78405000D03*
X146985000Y-78405000D03*
X149525000Y-78405000D03*
X152065000Y-78405000D03*
X154605000Y-78405000D03*
X157145000Y-78405000D03*
X159685000Y-78405000D03*
X162225000Y-78405000D03*
X164765000Y-78405000D03*
X167305000Y-78405000D03*
X169845000Y-78405000D03*
X172385000Y-78405000D03*
X174925000Y-78405000D03*
%TD*%
D17*
%TO.C,P1*%
X125660000Y-113000000D03*
X128200000Y-113000000D03*
X130740000Y-113000000D03*
X133280000Y-113000000D03*
X135820000Y-113000000D03*
X138360000Y-113000000D03*
X140900000Y-113000000D03*
X143440000Y-113000000D03*
X145980000Y-113000000D03*
X148520000Y-113000000D03*
X151060000Y-113000000D03*
X153600000Y-113000000D03*
X156140000Y-113000000D03*
X158680000Y-113000000D03*
X161220000Y-113000000D03*
X163760000Y-113000000D03*
X166300000Y-113000000D03*
X168840000Y-113000000D03*
X171380000Y-113000000D03*
X173920000Y-113000000D03*
X176460000Y-113000000D03*
X179000000Y-113000000D03*
X125660000Y-113000000D03*
X128200000Y-113000000D03*
X130740000Y-113000000D03*
X133280000Y-113000000D03*
X135820000Y-113000000D03*
X138360000Y-113000000D03*
X140900000Y-113000000D03*
X143440000Y-113000000D03*
X145980000Y-113000000D03*
X148520000Y-113000000D03*
X151060000Y-113000000D03*
X153600000Y-113000000D03*
X156140000Y-113000000D03*
X158680000Y-113000000D03*
X161220000Y-113000000D03*
X163760000Y-113000000D03*
X166300000Y-113000000D03*
X168840000Y-113000000D03*
X171380000Y-113000000D03*
X173920000Y-113000000D03*
X176460000Y-113000000D03*
X179000000Y-113000000D03*
%TD*%
D18*
%TO.C,J4*%
X149301200Y-104622600D03*
D19*
X151841200Y-104622600D03*
X154381200Y-104622600D03*
%TD*%
D18*
%TO.C,J3*%
X154250000Y-99245000D03*
%TD*%
D20*
%TO.C,C1*%
X129100000Y-59100000D03*
X126600000Y-59100000D03*
%TD*%
D11*
%TO.C,R7*%
X151750000Y-88250000D03*
D12*
X151750000Y-95870000D03*
%TD*%
D15*
%TO.C,RN1*%
X135559800Y-57835800D03*
D16*
X138099800Y-57835800D03*
X140639800Y-57835800D03*
X143179800Y-57835800D03*
X145719800Y-57835800D03*
X148259800Y-57835800D03*
X150799800Y-57835800D03*
%TD*%
D18*
%TO.C,J1*%
X181100000Y-79400000D03*
D19*
X178560000Y-79400000D03*
X181100000Y-76860000D03*
X178560000Y-76860000D03*
X181100000Y-74320000D03*
X178560000Y-74320000D03*
X181100000Y-71780000D03*
X178560000Y-71780000D03*
X181100000Y-69240000D03*
X178560000Y-69240000D03*
X181100000Y-66700000D03*
X178560000Y-66700000D03*
X181100000Y-64160000D03*
X178560000Y-64160000D03*
%TD*%
D21*
%TO.C,U5*%
X166235000Y-98830000D03*
D22*
X168775000Y-101370000D03*
X168775000Y-98830000D03*
X171315000Y-101370000D03*
X173855000Y-98830000D03*
X171315000Y-98830000D03*
X173855000Y-96290000D03*
X171315000Y-96290000D03*
X173855000Y-93750000D03*
X171315000Y-93750000D03*
X173855000Y-91210000D03*
X171315000Y-91210000D03*
X173855000Y-88670000D03*
X171315000Y-86130000D03*
X171315000Y-88670000D03*
X168775000Y-86130000D03*
X168775000Y-88670000D03*
X166235000Y-86130000D03*
X166235000Y-88670000D03*
X163695000Y-86130000D03*
X161155000Y-88670000D03*
X163695000Y-88670000D03*
X161155000Y-91210000D03*
X163695000Y-91210000D03*
X161155000Y-93750000D03*
X163695000Y-93750000D03*
X161155000Y-96290000D03*
X163695000Y-96290000D03*
X161155000Y-98830000D03*
X163695000Y-101370000D03*
X163695000Y-98830000D03*
X166235000Y-101370000D03*
%TD*%
D20*
%TO.C,C2*%
X147200000Y-83900000D03*
X147200000Y-86400000D03*
%TD*%
D18*
%TO.C,J2*%
X149750000Y-99245000D03*
%TD*%
D23*
%TO.C,CN1*%
X173585000Y-50200000D03*
X169625000Y-50200000D03*
X165665000Y-50200000D03*
X161705000Y-50200000D03*
X157745000Y-50200000D03*
X153785000Y-50200000D03*
X149825000Y-50200000D03*
X145865000Y-50200000D03*
X141905000Y-50200000D03*
X137945000Y-50200000D03*
X133985000Y-50200000D03*
X130025000Y-50200000D03*
%TD*%
D11*
%TO.C,R9*%
X156750000Y-88250000D03*
D12*
X156750000Y-95870000D03*
%TD*%
D11*
%TO.C,R8*%
X154250000Y-88250000D03*
D12*
X154250000Y-95870000D03*
%TD*%
D13*
%TO.C,U3*%
X129260000Y-91460000D03*
D14*
X131800000Y-91460000D03*
X134340000Y-91460000D03*
X136880000Y-91460000D03*
X139420000Y-91460000D03*
X141960000Y-91460000D03*
X144500000Y-91460000D03*
X144500000Y-83840000D03*
X141960000Y-83840000D03*
X139420000Y-83840000D03*
X136880000Y-83840000D03*
X134340000Y-83840000D03*
X131800000Y-83840000D03*
X129260000Y-83840000D03*
%TD*%
M02*
