%TF.GenerationSoftware,KiCad,Pcbnew,8.0.4*%
%TF.CreationDate,2024-08-11T23:39:21-04:00*%
%TF.ProjectId,RTC-Link2p,5254432d-4c69-46e6-9b32-702e6b696361,rev?*%
%TF.SameCoordinates,Original*%
%TF.FileFunction,Copper,L2,Bot*%
%TF.FilePolarity,Positive*%
%FSLAX46Y46*%
G04 Gerber Fmt 4.6, Leading zero omitted, Abs format (unit mm)*
G04 Created by KiCad (PCBNEW 8.0.4) date 2024-08-11 23:39:21*
%MOMM*%
%LPD*%
G01*
G04 APERTURE LIST*
%TA.AperFunction,ComponentPad*%
%ADD10C,1.400000*%
%TD*%
%TA.AperFunction,ComponentPad*%
%ADD11O,1.400000X1.400000*%
%TD*%
%TA.AperFunction,ComponentPad*%
%ADD12R,1.600000X2.400000*%
%TD*%
%TA.AperFunction,ComponentPad*%
%ADD13O,1.600000X2.400000*%
%TD*%
%TA.AperFunction,ComponentPad*%
%ADD14R,1.600000X1.600000*%
%TD*%
%TA.AperFunction,ComponentPad*%
%ADD15O,1.600000X1.600000*%
%TD*%
%TA.AperFunction,ConnectorPad*%
%ADD16R,1.524000X7.620000*%
%TD*%
%TA.AperFunction,ComponentPad*%
%ADD17R,1.700000X1.700000*%
%TD*%
%TA.AperFunction,ComponentPad*%
%ADD18O,1.700000X1.700000*%
%TD*%
%TA.AperFunction,ComponentPad*%
%ADD19C,1.600000*%
%TD*%
%TA.AperFunction,ComponentPad*%
%ADD20R,1.422400X1.422400*%
%TD*%
%TA.AperFunction,ComponentPad*%
%ADD21C,1.422400*%
%TD*%
%TA.AperFunction,ConnectorPad*%
%ADD22R,2.286000X8.000000*%
%TD*%
%TA.AperFunction,ViaPad*%
%ADD23C,0.800000*%
%TD*%
%TA.AperFunction,Conductor*%
%ADD24C,0.300000*%
%TD*%
%TA.AperFunction,Conductor*%
%ADD25C,1.000000*%
%TD*%
%TA.AperFunction,Conductor*%
%ADD26C,0.250000*%
%TD*%
G04 APERTURE END LIST*
D10*
%TO.P,R10,1*%
%TO.N,5V*%
X149250000Y-88250000D03*
D11*
%TO.P,R10,2*%
%TO.N,Net-(J2-Pin_1)*%
X149250000Y-95870000D03*
%TD*%
D12*
%TO.P,U2,1*%
%TO.N,R{slash}~{W}*%
X129260000Y-103460000D03*
D13*
%TO.P,U2,2*%
%TO.N,Net-(U2-Pad2)*%
X131800000Y-103460000D03*
%TO.P,U2,3*%
%TO.N,Net-(J2-Pin_1)*%
X134340000Y-103460000D03*
%TO.P,U2,4*%
%TO.N,A15*%
X136880000Y-103460000D03*
%TO.P,U2,5*%
%TO.N,A14*%
X139420000Y-103460000D03*
%TO.P,U2,6*%
%TO.N,A13*%
X141960000Y-103460000D03*
%TO.P,U2,7,GND*%
%TO.N,GND*%
X144500000Y-103460000D03*
%TO.P,U2,8*%
%TO.N,~{GAME}*%
X144500000Y-95840000D03*
%TO.P,U2,9*%
%TO.N,N/C*%
X141960000Y-95840000D03*
%TO.P,U2,10*%
X139420000Y-95840000D03*
%TO.P,U2,11*%
%TO.N,Net-(U2-Pad11)*%
X136880000Y-95840000D03*
%TO.P,U2,12*%
%TO.N,5V*%
X134340000Y-95840000D03*
%TO.P,U2,13*%
%TO.N,N/C*%
X131800000Y-95840000D03*
%TO.P,U2,14,VCC*%
%TO.N,5V*%
X129260000Y-95840000D03*
%TD*%
D14*
%TO.P,U1,1,VSS*%
%TO.N,GND*%
X174925000Y-63165000D03*
D15*
%TO.P,U1,2,PA0*%
%TO.N,PA0*%
X172385000Y-63165000D03*
%TO.P,U1,3,PA1*%
%TO.N,PA1*%
X169845000Y-63165000D03*
%TO.P,U1,4,PA2*%
%TO.N,PA2*%
X167305000Y-63165000D03*
%TO.P,U1,5,PA3*%
%TO.N,PA3*%
X164765000Y-63165000D03*
%TO.P,U1,6,PA4*%
%TO.N,PA4*%
X162225000Y-63165000D03*
%TO.P,U1,7,PA5*%
%TO.N,PA5*%
X159685000Y-63165000D03*
%TO.P,U1,8,PA6*%
%TO.N,PA6*%
X157145000Y-63165000D03*
%TO.P,U1,9,PA7*%
%TO.N,PA7*%
X154605000Y-63165000D03*
%TO.P,U1,10,PB0*%
%TO.N,PB0*%
X152065000Y-63165000D03*
%TO.P,U1,11,PB1*%
%TO.N,PB1*%
X149525000Y-63165000D03*
%TO.P,U1,12,PB2*%
%TO.N,PB2*%
X146985000Y-63165000D03*
%TO.P,U1,13,PB3*%
%TO.N,PB3*%
X144445000Y-63165000D03*
%TO.P,U1,14,PB4*%
%TO.N,PB4*%
X141905000Y-63165000D03*
%TO.P,U1,15,PB5*%
%TO.N,PB5*%
X139365000Y-63165000D03*
%TO.P,U1,16,PB6*%
%TO.N,PB6*%
X136825000Y-63165000D03*
%TO.P,U1,17,PB7*%
%TO.N,PB7*%
X134285000Y-63165000D03*
%TO.P,U1,18,CB1*%
%TO.N,unconnected-(U1-CB1-Pad18)*%
X131745000Y-63165000D03*
%TO.P,U1,19,CB2*%
%TO.N,unconnected-(U1-CB2-Pad19)*%
X129205000Y-63165000D03*
%TO.P,U1,20,VCC*%
%TO.N,5V*%
X126665000Y-63165000D03*
%TO.P,U1,21,R/~{W}*%
%TO.N,R{slash}~{W}*%
X126665000Y-78405000D03*
%TO.P,U1,22,CS0*%
%TO.N,5V*%
X129205000Y-78405000D03*
%TO.P,U1,23,~{CS2}*%
%TO.N,~{IO1}*%
X131745000Y-78405000D03*
%TO.P,U1,24,CS1*%
%TO.N,5V*%
X134285000Y-78405000D03*
%TO.P,U1,25,ENABLE*%
%TO.N,PHI2*%
X136825000Y-78405000D03*
%TO.P,U1,26,D7*%
%TO.N,D7*%
X139365000Y-78405000D03*
%TO.P,U1,27,D6*%
%TO.N,D6*%
X141905000Y-78405000D03*
%TO.P,U1,28,D5*%
%TO.N,D5*%
X144445000Y-78405000D03*
%TO.P,U1,29,D4*%
%TO.N,D4*%
X146985000Y-78405000D03*
%TO.P,U1,30,D3*%
%TO.N,D3*%
X149525000Y-78405000D03*
%TO.P,U1,31,D2*%
%TO.N,D2*%
X152065000Y-78405000D03*
%TO.P,U1,32,D1*%
%TO.N,D1*%
X154605000Y-78405000D03*
%TO.P,U1,33,D0*%
%TO.N,D0*%
X157145000Y-78405000D03*
%TO.P,U1,34,~{RESET}*%
%TO.N,~{RESET}*%
X159685000Y-78405000D03*
%TO.P,U1,35,RS1*%
%TO.N,A1*%
X162225000Y-78405000D03*
%TO.P,U1,36,RS0*%
%TO.N,A0*%
X164765000Y-78405000D03*
%TO.P,U1,37,~{IRQB}*%
%TO.N,unconnected-(U1-~{IRQB}-Pad37)*%
X167305000Y-78405000D03*
%TO.P,U1,38,~{IRQA}*%
%TO.N,unconnected-(U1-~{IRQA}-Pad38)*%
X169845000Y-78405000D03*
%TO.P,U1,39,CA2*%
%TO.N,CA2*%
X172385000Y-78405000D03*
%TO.P,U1,40,CA1*%
%TO.N,CA1*%
X174925000Y-78405000D03*
%TD*%
D16*
%TO.P,P1,23,GND*%
%TO.N,GND*%
X125660000Y-113000000D03*
%TO.P,P1,24,~{ROMH}*%
%TO.N,unconnected-(P1-~{ROMH}-Pad24)*%
X128200000Y-113000000D03*
%TO.P,P1,25,~{RESET}*%
%TO.N,~{RESET}*%
X130740000Y-113000000D03*
%TO.P,P1,26,~{NMI}*%
%TO.N,unconnected-(P1-~{NMI}-Pad26)*%
X133280000Y-113000000D03*
%TO.P,P1,27,PHI2*%
%TO.N,PHI2*%
X135820000Y-113000000D03*
%TO.P,P1,28,A15*%
%TO.N,A15*%
X138360000Y-113000000D03*
%TO.P,P1,29,A14*%
%TO.N,A14*%
X140900000Y-113000000D03*
%TO.P,P1,30,A13*%
%TO.N,A13*%
X143440000Y-113000000D03*
%TO.P,P1,31,A12*%
%TO.N,A12*%
X145980000Y-113000000D03*
%TO.P,P1,32,A11*%
%TO.N,A11*%
X148520000Y-113000000D03*
%TO.P,P1,33,A10*%
%TO.N,A10*%
X151060000Y-113000000D03*
%TO.P,P1,34,A9*%
%TO.N,A9*%
X153600000Y-113000000D03*
%TO.P,P1,35,A8*%
%TO.N,A8*%
X156140000Y-113000000D03*
%TO.P,P1,36,A7*%
%TO.N,A7*%
X158680000Y-113000000D03*
%TO.P,P1,37,A6*%
%TO.N,A6*%
X161220000Y-113000000D03*
%TO.P,P1,38,A5*%
%TO.N,A5*%
X163760000Y-113000000D03*
%TO.P,P1,39,A4*%
%TO.N,A4*%
X166300000Y-113000000D03*
%TO.P,P1,40,A3*%
%TO.N,A3*%
X168840000Y-113000000D03*
%TO.P,P1,41,A2*%
%TO.N,A2*%
X171380000Y-113000000D03*
%TO.P,P1,42,A1*%
%TO.N,A1*%
X173920000Y-113000000D03*
%TO.P,P1,43,A0*%
%TO.N,A0*%
X176460000Y-113000000D03*
%TO.P,P1,44,GND*%
%TO.N,GND*%
X179000000Y-113000000D03*
%TD*%
D17*
%TO.P,J4,1,Pin_1*%
%TO.N,GND*%
X149301200Y-104622600D03*
D18*
%TO.P,J4,2,Pin_2*%
%TO.N,Net-(J4-Pin_2)*%
X151841200Y-104622600D03*
%TO.P,J4,3,Pin_3*%
%TO.N,5V*%
X154381200Y-104622600D03*
%TD*%
D17*
%TO.P,J3,1,Pin_1*%
%TO.N,Net-(J3-Pin_1)*%
X154250000Y-99245000D03*
%TD*%
D19*
%TO.P,C1,1*%
%TO.N,5V*%
X129100000Y-59100000D03*
%TO.P,C1,2*%
%TO.N,GND*%
X126600000Y-59100000D03*
%TD*%
D10*
%TO.P,R7,1*%
%TO.N,5V*%
X151750000Y-88250000D03*
D11*
%TO.P,R7,2*%
%TO.N,Net-(J3-Pin_1)*%
X151750000Y-95870000D03*
%TD*%
D14*
%TO.P,RN1,1,common*%
%TO.N,5V*%
X135559800Y-57835800D03*
D15*
%TO.P,RN1,2,R1*%
%TO.N,CA2*%
X138099800Y-57835800D03*
%TO.P,RN1,3,R2*%
%TO.N,PB2*%
X140639800Y-57835800D03*
%TO.P,RN1,4,R3*%
%TO.N,PB7*%
X143179800Y-57835800D03*
%TO.P,RN1,5,R4*%
%TO.N,PB6*%
X145719800Y-57835800D03*
%TO.P,RN1,6,R5*%
%TO.N,PB5*%
X148259800Y-57835800D03*
%TO.P,RN1,7,R6*%
%TO.N,PB4*%
X150799800Y-57835800D03*
%TD*%
D17*
%TO.P,J1,1,Pin_1*%
%TO.N,GND*%
X181100000Y-79400000D03*
D18*
%TO.P,J1,2,Pin_2*%
X178560000Y-79400000D03*
%TO.P,J1,3,Pin_3*%
%TO.N,PA7*%
X181100000Y-76860000D03*
%TO.P,J1,4,Pin_4*%
%TO.N,CA1*%
X178560000Y-76860000D03*
%TO.P,J1,5,Pin_5*%
%TO.N,PA5*%
X181100000Y-74320000D03*
%TO.P,J1,6,Pin_6*%
%TO.N,PA6*%
X178560000Y-74320000D03*
%TO.P,J1,7,Pin_7*%
%TO.N,PA3*%
X181100000Y-71780000D03*
%TO.P,J1,8,Pin_8*%
%TO.N,PA4*%
X178560000Y-71780000D03*
%TO.P,J1,9,Pin_9*%
%TO.N,PA1*%
X181100000Y-69240000D03*
%TO.P,J1,10,Pin_10*%
%TO.N,PA2*%
X178560000Y-69240000D03*
%TO.P,J1,11,Pin_11*%
%TO.N,PB1*%
X181100000Y-66700000D03*
%TO.P,J1,12,Pin_12*%
%TO.N,PA0*%
X178560000Y-66700000D03*
%TO.P,J1,13,Pin_13*%
%TO.N,GND*%
X181100000Y-64160000D03*
%TO.P,J1,14,Pin_14*%
X178560000Y-64160000D03*
%TD*%
D20*
%TO.P,U5,1,NC*%
%TO.N,unconnected-(U5-NC-Pad1)*%
X166235000Y-98830000D03*
D21*
%TO.P,U5,2,A15*%
%TO.N,GND*%
X168775000Y-101370000D03*
%TO.P,U5,3,A12*%
%TO.N,PB0*%
X168775000Y-98830000D03*
%TO.P,U5,4,A7*%
%TO.N,A7*%
X171315000Y-101370000D03*
%TO.P,U5,5,A6*%
%TO.N,A6*%
X173855000Y-98830000D03*
%TO.P,U5,6,A5*%
%TO.N,A5*%
X171315000Y-98830000D03*
%TO.P,U5,7,A4*%
%TO.N,A4*%
X173855000Y-96290000D03*
%TO.P,U5,8,A3*%
%TO.N,A3*%
X171315000Y-96290000D03*
%TO.P,U5,9,A2*%
%TO.N,A2*%
X173855000Y-93750000D03*
%TO.P,U5,10,A1*%
%TO.N,A1*%
X171315000Y-93750000D03*
%TO.P,U5,11,A0*%
%TO.N,A0*%
X173855000Y-91210000D03*
%TO.P,U5,12,NC*%
%TO.N,unconnected-(U5-NC-Pad12)*%
X171315000Y-91210000D03*
%TO.P,U5,13,O0*%
%TO.N,D0*%
X173855000Y-88670000D03*
%TO.P,U5,14,O1*%
%TO.N,D1*%
X171315000Y-86130000D03*
%TO.P,U5,15,O2*%
%TO.N,D2*%
X171315000Y-88670000D03*
%TO.P,U5,16,GND*%
%TO.N,GND*%
X168775000Y-86130000D03*
%TO.P,U5,17,NC*%
%TO.N,unconnected-(U5-NC-Pad17)*%
X168775000Y-88670000D03*
%TO.P,U5,18,O3*%
%TO.N,D3*%
X166235000Y-86130000D03*
%TO.P,U5,19,O4*%
%TO.N,D4*%
X166235000Y-88670000D03*
%TO.P,U5,20,O5*%
%TO.N,D5*%
X163695000Y-86130000D03*
%TO.P,U5,21,O6*%
%TO.N,D6*%
X161155000Y-88670000D03*
%TO.P,U5,22,O7*%
%TO.N,D7*%
X163695000Y-88670000D03*
%TO.P,U5,23,~{CE}*%
%TO.N,~{GAME}*%
X161155000Y-91210000D03*
%TO.P,U5,24,A10*%
%TO.N,A10*%
X163695000Y-91210000D03*
%TO.P,U5,25,~{OE}/VPP*%
%TO.N,~{GAME}*%
X161155000Y-93750000D03*
%TO.P,U5,26,NC*%
%TO.N,unconnected-(U5-NC-Pad26)*%
X163695000Y-93750000D03*
%TO.P,U5,27,A11*%
%TO.N,A11*%
X161155000Y-96290000D03*
%TO.P,U5,28,A9*%
%TO.N,A9*%
X163695000Y-96290000D03*
%TO.P,U5,29,A8*%
%TO.N,A8*%
X161155000Y-98830000D03*
%TO.P,U5,30,A13*%
%TO.N,Net-(J4-Pin_2)*%
X163695000Y-101370000D03*
%TO.P,U5,31,A14*%
%TO.N,GND*%
X163695000Y-98830000D03*
%TO.P,U5,32,VCC*%
%TO.N,5V*%
X166235000Y-101370000D03*
%TD*%
D19*
%TO.P,C2,1*%
%TO.N,5V*%
X147200000Y-83900000D03*
%TO.P,C2,2*%
%TO.N,GND*%
X147200000Y-86400000D03*
%TD*%
D17*
%TO.P,J2,1,Pin_1*%
%TO.N,Net-(J2-Pin_1)*%
X149750000Y-99245000D03*
%TD*%
D22*
%TO.P,CN1,A*%
%TO.N,PA4*%
X173585000Y-50200000D03*
%TO.P,CN1,B*%
%TO.N,PA5*%
X169625000Y-50200000D03*
%TO.P,CN1,C*%
%TO.N,PA6*%
X165665000Y-50200000D03*
%TO.P,CN1,D*%
%TO.N,PA7*%
X161705000Y-50200000D03*
%TO.P,CN1,E*%
%TO.N,GND*%
X157745000Y-50200000D03*
%TO.P,CN1,F*%
X153785000Y-50200000D03*
%TO.P,CN1,H*%
X149825000Y-50200000D03*
%TO.P,CN1,J*%
X145865000Y-50200000D03*
%TO.P,CN1,K*%
X141905000Y-50200000D03*
%TO.P,CN1,L*%
X137945000Y-50200000D03*
%TO.P,CN1,M*%
X133985000Y-50200000D03*
%TO.P,CN1,N*%
X130025000Y-50200000D03*
%TD*%
D10*
%TO.P,R9,1*%
%TO.N,5V*%
X156750000Y-88250000D03*
D11*
%TO.P,R9,2*%
%TO.N,PHI2*%
X156750000Y-95870000D03*
%TD*%
D10*
%TO.P,R8,1*%
%TO.N,5V*%
X154250000Y-88250000D03*
D11*
%TO.P,R8,2*%
%TO.N,Net-(J3-Pin_1)*%
X154250000Y-95870000D03*
%TD*%
D12*
%TO.P,U3,1*%
%TO.N,unconnected-(U3-Pad1)*%
X129260000Y-91460000D03*
D13*
%TO.P,U3,2*%
%TO.N,unconnected-(U3-Pad2)*%
X131800000Y-91460000D03*
%TO.P,U3,3*%
%TO.N,unconnected-(U3-Pad3)*%
X134340000Y-91460000D03*
%TO.P,U3,4*%
%TO.N,A12*%
X136880000Y-91460000D03*
%TO.P,U3,5*%
X139420000Y-91460000D03*
%TO.P,U3,6*%
%TO.N,Net-(U2-Pad11)*%
X141960000Y-91460000D03*
%TO.P,U3,7,GND*%
%TO.N,GND*%
X144500000Y-91460000D03*
%TO.P,U3,8*%
%TO.N,Net-(U2-Pad2)*%
X144500000Y-83840000D03*
%TO.P,U3,9*%
%TO.N,PB0*%
X141960000Y-83840000D03*
%TO.P,U3,10*%
%TO.N,Net-(U3-Pad10)*%
X139420000Y-83840000D03*
%TO.P,U3,11*%
X136880000Y-83840000D03*
%TO.P,U3,12*%
%TO.N,Net-(J3-Pin_1)*%
X134340000Y-83840000D03*
%TO.P,U3,13*%
X131800000Y-83840000D03*
%TO.P,U3,14,VCC*%
%TO.N,5V*%
X129260000Y-83840000D03*
%TD*%
D23*
%TO.N,~{IO1}*%
X128960000Y-98160000D03*
%TO.N,GND*%
X125200000Y-89000000D03*
X179000000Y-108000000D03*
X158500000Y-56750000D03*
X130302000Y-54864000D03*
X128600000Y-88960000D03*
X125660000Y-107750000D03*
%TO.N,5V*%
X160985200Y-86868000D03*
%TO.N,D7*%
X159461200Y-88976200D03*
%TO.N,D2*%
X176200000Y-105500000D03*
X177000000Y-93200000D03*
%TO.N,D1*%
X177100000Y-106500000D03*
X177038000Y-91389200D03*
%TO.N,D0*%
X177038500Y-89788500D03*
X177775000Y-107475000D03*
%TO.N,A12*%
X141542200Y-100748400D03*
%TO.N,A11*%
X149047200Y-107848400D03*
X152450800Y-107924600D03*
%TO.N,PA0*%
X172948600Y-58394600D03*
%TO.N,PA1*%
X169621200Y-58470800D03*
%TO.N,PA2*%
X167305000Y-58470800D03*
%TO.N,PA3*%
X164765000Y-58496200D03*
%TO.N,PB0*%
X162329182Y-80723418D03*
X152300000Y-84250000D03*
%TO.N,~{GAME}*%
X143260000Y-100355400D03*
%TO.N,Net-(J4-Pin_2)*%
X158692600Y-106248200D03*
%TD*%
D24*
%TO.N,~{RESET}*%
X157353000Y-76073000D02*
X159685000Y-78405000D01*
X126212600Y-76073000D02*
X157353000Y-76073000D01*
X124850000Y-77435600D02*
X126212600Y-76073000D01*
X124850000Y-82647918D02*
X124850000Y-77435600D01*
X125950000Y-103950000D02*
X125950000Y-83747918D01*
X130700000Y-108700000D02*
X125950000Y-103950000D01*
X130740000Y-108700000D02*
X130700000Y-108700000D01*
X130740000Y-113000000D02*
X130740000Y-108700000D01*
X125950000Y-83747918D02*
X124850000Y-82647918D01*
%TO.N,PHI2*%
X135820000Y-108210200D02*
X135820000Y-113000000D01*
X128752600Y-105841800D02*
X133451600Y-105841800D01*
X133451600Y-105841800D02*
X135820000Y-108210200D01*
X125350000Y-77650000D02*
X125350000Y-82440812D01*
X125350000Y-82440812D02*
X126450000Y-83540812D01*
X126114200Y-76885800D02*
X125350000Y-77650000D01*
X135305800Y-76885800D02*
X126114200Y-76885800D01*
X136825000Y-78405000D02*
X135305800Y-76885800D01*
X126450000Y-83540812D02*
X126450000Y-103539200D01*
X126450000Y-103539200D02*
X128752600Y-105841800D01*
D25*
%TO.N,GND*%
X147238000Y-104622600D02*
X149301200Y-104622600D01*
X146075400Y-103460000D02*
X147238000Y-104622600D01*
X146075400Y-103460000D02*
X144500000Y-103460000D01*
D24*
%TO.N,A10*%
X162407600Y-92497400D02*
X163695000Y-91210000D01*
X162407600Y-94157800D02*
X162407600Y-92497400D01*
X160705800Y-94945200D02*
X161620200Y-94945200D01*
X158546800Y-102844600D02*
X158546800Y-97104200D01*
X158546800Y-97104200D02*
X160705800Y-94945200D01*
X154482800Y-106908600D02*
X158546800Y-102844600D01*
X152069800Y-106908600D02*
X154482800Y-106908600D01*
X151060000Y-107918400D02*
X152069800Y-106908600D01*
X151060000Y-113000000D02*
X151060000Y-107918400D01*
X161620200Y-94945200D02*
X162407600Y-94157800D01*
D26*
%TO.N,A11*%
X148520000Y-108375600D02*
X148520000Y-113000000D01*
X149047200Y-107848400D02*
X148520000Y-108375600D01*
D24*
X154381200Y-107924600D02*
X159054800Y-103251000D01*
X152450800Y-107924600D02*
X154381200Y-107924600D01*
X159054800Y-103251000D02*
X159054800Y-98390200D01*
X159054800Y-98390200D02*
X161155000Y-96290000D01*
D26*
%TO.N,A9*%
X160831200Y-97500000D02*
X162485000Y-97500000D01*
X159750000Y-98581200D02*
X160831200Y-97500000D01*
X153600000Y-109493200D02*
X159750000Y-103343200D01*
X162485000Y-97500000D02*
X163695000Y-96290000D01*
X153600000Y-113000000D02*
X153600000Y-109493200D01*
X159750000Y-103343200D02*
X159750000Y-98581200D01*
%TO.N,A8*%
X161155000Y-102649400D02*
X161155000Y-98830000D01*
X156140000Y-107664400D02*
X161155000Y-102649400D01*
X156140000Y-113000000D02*
X156140000Y-107664400D01*
D24*
%TO.N,Net-(J4-Pin_2)*%
X159918400Y-106248200D02*
X163695000Y-102471600D01*
X158692600Y-106248200D02*
X159918400Y-106248200D01*
X163695000Y-102471600D02*
X163695000Y-101370000D01*
%TO.N,PA1*%
X169845000Y-58694600D02*
X169845000Y-63165000D01*
X169621200Y-58470800D02*
X169845000Y-58694600D01*
%TO.N,PA2*%
X167305000Y-58470800D02*
X167305000Y-63165000D01*
%TO.N,PA3*%
X164765000Y-58496200D02*
X164765000Y-63165000D01*
%TO.N,PA0*%
X172385000Y-58958200D02*
X172385000Y-63165000D01*
X172948600Y-58394600D02*
X172385000Y-58958200D01*
%TO.N,Net-(J2-Pin_1)*%
X134340000Y-101803800D02*
X134340000Y-103460000D01*
X136898800Y-99245000D02*
X134340000Y-101803800D01*
X149750000Y-99245000D02*
X136898800Y-99245000D01*
%TO.N,A12*%
X145980000Y-108102400D02*
X145980000Y-113000000D01*
X143205200Y-105327600D02*
X145980000Y-108102400D01*
X143205200Y-102411400D02*
X143205200Y-105327600D01*
X141542200Y-100748400D02*
X143205200Y-102411400D01*
%TO.N,A13*%
X141960000Y-106603200D02*
X141960000Y-103460000D01*
X143440000Y-108083200D02*
X141960000Y-106603200D01*
X143440000Y-113000000D02*
X143440000Y-108083200D01*
%TO.N,A14*%
X139420000Y-106806400D02*
X139420000Y-103460000D01*
X140900000Y-113000000D02*
X140900000Y-108286400D01*
X140900000Y-108286400D02*
X139420000Y-106806400D01*
%TO.N,A15*%
X138360000Y-108286400D02*
X136880000Y-106806400D01*
X136880000Y-106806400D02*
X136880000Y-103460000D01*
X138360000Y-113000000D02*
X138360000Y-108286400D01*
D26*
%TO.N,A4*%
X174891200Y-97326200D02*
X173855000Y-96290000D01*
X174891200Y-101079800D02*
X174891200Y-97326200D01*
X169187600Y-105562400D02*
X170408600Y-105562400D01*
X166300000Y-113000000D02*
X166300000Y-108450000D01*
X166300000Y-108450000D02*
X169187600Y-105562400D01*
X170408600Y-105562400D02*
X174891200Y-101079800D01*
%TO.N,A5*%
X170230800Y-105054400D02*
X172955000Y-102330200D01*
X166945600Y-105054400D02*
X170230800Y-105054400D01*
X172955000Y-100470000D02*
X171315000Y-98830000D01*
X163760000Y-108240000D02*
X166945600Y-105054400D01*
X172955000Y-102330200D02*
X172955000Y-100470000D01*
X163760000Y-113000000D02*
X163760000Y-108240000D01*
%TO.N,A6*%
X172561000Y-97536000D02*
X173855000Y-98830000D01*
X170662600Y-97536000D02*
X172561000Y-97536000D01*
X170005000Y-98193600D02*
X170662600Y-97536000D01*
X170005000Y-99500000D02*
X170005000Y-98193600D01*
X171950004Y-100101400D02*
X170606400Y-100101400D01*
X172505000Y-102119800D02*
X172505000Y-100656396D01*
X165229000Y-104521000D02*
X170103800Y-104521000D01*
X161220000Y-108530000D02*
X165229000Y-104521000D01*
X170103800Y-104521000D02*
X172505000Y-102119800D01*
X161220000Y-113000000D02*
X161220000Y-108530000D01*
X170606400Y-100101400D02*
X170005000Y-99500000D01*
X172505000Y-100656396D02*
X171950004Y-100101400D01*
%TO.N,A7*%
X171315000Y-102446200D02*
X171315000Y-101370000D01*
X169748200Y-104013000D02*
X171315000Y-102446200D01*
X163296600Y-104013000D02*
X169748200Y-104013000D01*
X158680000Y-113000000D02*
X158680000Y-108629600D01*
X158680000Y-108629600D02*
X163296600Y-104013000D01*
%TO.N,GND*%
X165735000Y-102717600D02*
X167427400Y-102717600D01*
X164973000Y-100101400D02*
X164973000Y-101955600D01*
X163701600Y-98830000D02*
X164973000Y-100101400D01*
X164973000Y-101955600D02*
X165735000Y-102717600D01*
X167427400Y-102717600D02*
X168775000Y-101370000D01*
X163695000Y-98830000D02*
X163701600Y-98830000D01*
D24*
%TO.N,5V*%
X167513000Y-100092000D02*
X166235000Y-101370000D01*
X164973000Y-93675200D02*
X167513000Y-96215200D01*
X164185600Y-87376000D02*
X164973000Y-88163400D01*
X162153600Y-86868000D02*
X162661600Y-87376000D01*
X164973000Y-88163400D02*
X164973000Y-93675200D01*
X160985200Y-86868000D02*
X162153600Y-86868000D01*
X162661600Y-87376000D02*
X164185600Y-87376000D01*
X167513000Y-96215200D02*
X167513000Y-100092000D01*
%TO.N,~{GAME}*%
X157937200Y-96967800D02*
X161155000Y-93750000D01*
X147300200Y-101250000D02*
X155250000Y-101250000D01*
X146405600Y-100355400D02*
X147300200Y-101250000D01*
X157937200Y-98562800D02*
X157937200Y-96967800D01*
X143260000Y-100355400D02*
X146405600Y-100355400D01*
X155250000Y-101250000D02*
X157937200Y-98562800D01*
D26*
%TO.N,A1*%
X172558200Y-92506800D02*
X171315000Y-93750000D01*
X174261800Y-92506800D02*
X172558200Y-92506800D01*
X176302500Y-101725900D02*
X176302500Y-94547500D01*
X176302500Y-94547500D02*
X174261800Y-92506800D01*
X173920000Y-104108400D02*
X176302500Y-101725900D01*
X173920000Y-113000000D02*
X173920000Y-104108400D01*
D24*
%TO.N,D2*%
X170000000Y-87355000D02*
X170772500Y-88127500D01*
X168021000Y-83413600D02*
X170000000Y-85392600D01*
X157073600Y-83413600D02*
X168021000Y-83413600D01*
X170000000Y-85392600D02*
X170000000Y-87355000D01*
X152065000Y-78405000D02*
X157073600Y-83413600D01*
%TO.N,D1*%
X168325800Y-82575400D02*
X171315000Y-85564600D01*
X158775400Y-82575400D02*
X168325800Y-82575400D01*
X171315000Y-85564600D02*
X171315000Y-86130000D01*
X154605000Y-78405000D02*
X158775400Y-82575400D01*
%TO.N,D0*%
X169087800Y-81813400D02*
X173855000Y-86580600D01*
X173855000Y-86580600D02*
X173855000Y-88670000D01*
X162985661Y-81813400D02*
X169087800Y-81813400D01*
X160556318Y-81816318D02*
X162982743Y-81816318D01*
X162982743Y-81816318D02*
X162985661Y-81813400D01*
X157145000Y-78405000D02*
X160556318Y-81816318D01*
%TO.N,A1*%
X169815000Y-92250000D02*
X171315000Y-93750000D01*
X170313600Y-89941400D02*
X169755000Y-90500000D01*
X174320200Y-89941400D02*
X170313600Y-89941400D01*
X175107600Y-89154000D02*
X174320200Y-89941400D01*
X175107600Y-86588600D02*
X175107600Y-89154000D01*
X169755000Y-92250000D02*
X169815000Y-92250000D01*
X164973000Y-81153000D02*
X169672000Y-81153000D01*
X169672000Y-81153000D02*
X175107600Y-86588600D01*
X162225000Y-78405000D02*
X164973000Y-81153000D01*
X169755000Y-90500000D02*
X169755000Y-92250000D01*
%TO.N,A0*%
X175818800Y-86131400D02*
X175818800Y-89246200D01*
X166852600Y-80492600D02*
X170180000Y-80492600D01*
X170180000Y-80492600D02*
X175818800Y-86131400D01*
X175818800Y-89246200D02*
X173855000Y-91210000D01*
X164765000Y-78405000D02*
X166852600Y-80492600D01*
D26*
%TO.N,D0*%
X178400000Y-106850000D02*
X177775000Y-107475000D01*
X178400000Y-91150000D02*
X178400000Y-106850000D01*
X177038500Y-89788500D02*
X178400000Y-91150000D01*
D24*
%TO.N,D1*%
X177900000Y-105700000D02*
X177100000Y-106500000D01*
X177900000Y-92251200D02*
X177900000Y-105700000D01*
X177038000Y-91389200D02*
X177900000Y-92251200D01*
D26*
%TO.N,A0*%
X176752500Y-94107500D02*
X173855000Y-91210000D01*
X175300000Y-103388800D02*
X176752500Y-101936300D01*
X175300000Y-107500000D02*
X175300000Y-103388800D01*
X176460000Y-108660000D02*
X175300000Y-107500000D01*
X176460000Y-113000000D02*
X176460000Y-108660000D01*
X176752500Y-101936300D02*
X176752500Y-94107500D01*
%TO.N,A2*%
X175802500Y-95697500D02*
X173855000Y-93750000D01*
X175802500Y-101540100D02*
X175802500Y-95697500D01*
X171380000Y-105962600D02*
X175802500Y-101540100D01*
X171380000Y-113000000D02*
X171380000Y-105962600D01*
%TO.N,A3*%
X168840000Y-107791400D02*
X168840000Y-113000000D01*
X175341200Y-101290200D02*
X168840000Y-107791400D01*
X175341200Y-95872596D02*
X175341200Y-101290200D01*
X174515404Y-95046800D02*
X175341200Y-95872596D01*
X172558200Y-95046800D02*
X174515404Y-95046800D01*
X171315000Y-96290000D02*
X172558200Y-95046800D01*
%TO.N,D7*%
X156206803Y-86221879D02*
X156142462Y-86157538D01*
X158070483Y-86221879D02*
X156206803Y-86221879D01*
X159461200Y-87612596D02*
X158070483Y-86221879D01*
X159461200Y-88976200D02*
X159461200Y-87612596D01*
X162449000Y-89916000D02*
X163695000Y-88670000D01*
X160401000Y-89916000D02*
X162449000Y-89916000D01*
X159461200Y-88976200D02*
X160401000Y-89916000D01*
%TO.N,PA4*%
X171571400Y-56800000D02*
X173585000Y-54786400D01*
X164200000Y-56800000D02*
X171571400Y-56800000D01*
X162225000Y-58775000D02*
X164200000Y-56800000D01*
X173585000Y-54786400D02*
X173585000Y-50200000D01*
X162225000Y-63165000D02*
X162225000Y-58775000D01*
%TO.N,PA5*%
X169625000Y-55012600D02*
X169625000Y-50200000D01*
X168612600Y-56025000D02*
X169625000Y-55012600D01*
X163575000Y-56025000D02*
X168612600Y-56025000D01*
X159685000Y-59915000D02*
X163575000Y-56025000D01*
X159685000Y-63165000D02*
X159685000Y-59915000D01*
%TO.N,PB4*%
X143449600Y-61620400D02*
X141905000Y-63165000D01*
X147119600Y-61620400D02*
X143449600Y-61620400D01*
X150940000Y-57800000D02*
X147119600Y-61620400D01*
%TO.N,PB5*%
X145113000Y-61087000D02*
X141443000Y-61087000D01*
X141443000Y-61087000D02*
X139365000Y-63165000D01*
X148400000Y-57800000D02*
X145113000Y-61087000D01*
D24*
%TO.N,PB6*%
X139512600Y-60477400D02*
X136825000Y-63165000D01*
X143182600Y-60477400D02*
X139512600Y-60477400D01*
X145860000Y-57800000D02*
X143182600Y-60477400D01*
%TO.N,PB7*%
X137607600Y-59842400D02*
X134285000Y-63165000D01*
X141277600Y-59842400D02*
X137607600Y-59842400D01*
X143320000Y-57800000D02*
X141277600Y-59842400D01*
%TO.N,PB0*%
X152065000Y-62365000D02*
X152065000Y-63165000D01*
X148966000Y-61849000D02*
X151549000Y-61849000D01*
X148259800Y-64559800D02*
X148259800Y-62555200D01*
X160934400Y-77234400D02*
X148259800Y-64559800D01*
X148259800Y-62555200D02*
X148966000Y-61849000D01*
X151549000Y-61849000D02*
X152065000Y-62365000D01*
X160934400Y-79328636D02*
X160934400Y-77234400D01*
X162329182Y-80723418D02*
X160934400Y-79328636D01*
%TO.N,D4*%
X156953122Y-84846879D02*
X164051879Y-84846879D01*
X156953122Y-84846876D02*
X156953122Y-84846879D01*
X150080000Y-81500000D02*
X153606246Y-81500000D01*
X153606246Y-81500000D02*
X156953122Y-84846876D01*
X146985000Y-78405000D02*
X150080000Y-81500000D01*
X164051879Y-84846879D02*
X165005000Y-85800000D01*
%TO.N,D3*%
X164305000Y-84200000D02*
X166235000Y-86130000D01*
X156887352Y-84074000D02*
X164185600Y-84074000D01*
X153813352Y-81000000D02*
X156887352Y-84074000D01*
X164185600Y-84074000D02*
X164305000Y-84193400D01*
X164305000Y-84193400D02*
X164305000Y-84200000D01*
X152120000Y-81000000D02*
X153813352Y-81000000D01*
X149525000Y-78405000D02*
X152120000Y-81000000D01*
D25*
%TO.N,GND*%
X126600000Y-57346800D02*
X126600000Y-59100000D01*
X127736600Y-56210200D02*
X126600000Y-57346800D01*
X128955800Y-56210200D02*
X127736600Y-56210200D01*
X130302000Y-54864000D02*
X128955800Y-56210200D01*
X125558000Y-59100000D02*
X126600000Y-59100000D01*
X125000000Y-106000000D02*
X125000000Y-84000000D01*
X125000000Y-84000000D02*
X124000000Y-83000000D01*
X125660000Y-106660000D02*
X125000000Y-106000000D01*
X125660000Y-107750000D02*
X125660000Y-106660000D01*
X124000000Y-83000000D02*
X124000000Y-60658000D01*
X124000000Y-60658000D02*
X125558000Y-59100000D01*
D26*
%TO.N,D4*%
X165065000Y-85860000D02*
X165005000Y-85800000D01*
X165065000Y-87500000D02*
X165065000Y-85860000D01*
D24*
%TO.N,~{IO1}*%
X127450000Y-82700000D02*
X131745000Y-78405000D01*
X127450000Y-96650000D02*
X127450000Y-82700000D01*
X128960000Y-98160000D02*
X127450000Y-96650000D01*
D25*
%TO.N,GND*%
X179000000Y-113000000D02*
X179000000Y-108000000D01*
X145865000Y-50200000D02*
X145865000Y-54679000D01*
X153785000Y-50200000D02*
X153785000Y-54725000D01*
X128600000Y-88960000D02*
X142760000Y-88960000D01*
X149825000Y-50200000D02*
X149825000Y-54829000D01*
X157734000Y-54864000D02*
X157734000Y-50211000D01*
X130025000Y-54587000D02*
X130025000Y-50200000D01*
X144500000Y-90700000D02*
X144500000Y-91460000D01*
X130302000Y-54864000D02*
X130025000Y-54587000D01*
X157734000Y-54864000D02*
X130302000Y-54864000D01*
X141905000Y-50200000D02*
X141905000Y-54783000D01*
X137945000Y-50200000D02*
X137945000Y-54633000D01*
X142760000Y-88960000D02*
X144500000Y-90700000D01*
X157734000Y-55984000D02*
X158500000Y-56750000D01*
X125660000Y-113000000D02*
X125660000Y-107750000D01*
X133985000Y-50200000D02*
X133985000Y-54737000D01*
X157734000Y-54864000D02*
X157734000Y-55984000D01*
D24*
%TO.N,5V*%
X134340000Y-94540000D02*
X133760000Y-93960000D01*
X133760000Y-93960000D02*
X130760000Y-93960000D01*
X129260000Y-95460000D02*
X129260000Y-95840000D01*
X130760000Y-93960000D02*
X129260000Y-95460000D01*
X134340000Y-95840000D02*
X134340000Y-94540000D01*
%TO.N,D7*%
X142110000Y-81150000D02*
X147608682Y-81150000D01*
X152984925Y-83000000D02*
X156142462Y-86157538D01*
X149458682Y-83000000D02*
X152984925Y-83000000D01*
X147608682Y-81150000D02*
X149458682Y-83000000D01*
X139365000Y-78405000D02*
X142110000Y-81150000D01*
D26*
%TO.N,D6*%
X158256879Y-85771879D02*
X156463911Y-85771879D01*
D24*
X149665788Y-82500000D02*
X153192032Y-82500000D01*
X147815788Y-80650000D02*
X149665788Y-82500000D01*
X141905000Y-78405000D02*
X144150000Y-80650000D01*
X153192032Y-82500000D02*
X156196016Y-85503984D01*
D26*
X161155000Y-88670000D02*
X158256879Y-85771879D01*
D24*
X144150000Y-80650000D02*
X147815788Y-80650000D01*
D26*
X156463911Y-85771879D02*
X156196016Y-85503984D01*
D24*
%TO.N,D5*%
X145050000Y-80150000D02*
X148022894Y-80150000D01*
X149872894Y-82000000D02*
X153399139Y-82000000D01*
X144445000Y-79545000D02*
X145050000Y-80150000D01*
X153399139Y-82000000D02*
X156549569Y-85150431D01*
X148022894Y-80150000D02*
X149872894Y-82000000D01*
X144445000Y-78405000D02*
X144445000Y-79545000D01*
D26*
X162886879Y-85321879D02*
X156721017Y-85321879D01*
X156721017Y-85321879D02*
X156549569Y-85150431D01*
X163695000Y-86130000D02*
X162886879Y-85321879D01*
%TO.N,D4*%
X166235000Y-88670000D02*
X165065000Y-87500000D01*
%TO.N,D2*%
X177300000Y-94600000D02*
X177300000Y-93500000D01*
X176200000Y-105500000D02*
X177300000Y-104400000D01*
X177300000Y-93500000D02*
X177000000Y-93200000D01*
X171315000Y-88670000D02*
X170772500Y-88127500D01*
X177300000Y-104400000D02*
X177300000Y-94600000D01*
D24*
%TO.N,PA4*%
X173585000Y-53999000D02*
X173585000Y-50200000D01*
D26*
%TO.N,PA6*%
X162745000Y-55255000D02*
X165055000Y-55255000D01*
X165665000Y-50200000D02*
X165665000Y-54500000D01*
X157145000Y-63165000D02*
X157145000Y-60855000D01*
X165055000Y-55255000D02*
X165665000Y-54645000D01*
X165665000Y-54645000D02*
X165665000Y-50200000D01*
X157145000Y-60855000D02*
X162745000Y-55255000D01*
D24*
%TO.N,PB0*%
X141960000Y-83840000D02*
X143510000Y-82290000D01*
X143510000Y-82290000D02*
X147334470Y-82290000D01*
X149294470Y-84250000D02*
X152300000Y-84250000D01*
X147334470Y-82290000D02*
X149294470Y-84250000D01*
%TO.N,PB1*%
X151760000Y-65400000D02*
X149525000Y-63165000D01*
X181100000Y-66700000D02*
X179800000Y-65400000D01*
X179800000Y-65400000D02*
X151760000Y-65400000D01*
D26*
%TO.N,PA7*%
X154605000Y-63165000D02*
X154605000Y-61995000D01*
X154605000Y-61995000D02*
X161705000Y-54895000D01*
X161705000Y-54895000D02*
X161705000Y-50200000D01*
D24*
%TO.N,R{slash}~{W}*%
X126950000Y-101700000D02*
X126950000Y-78690000D01*
X128750000Y-103500000D02*
X126950000Y-101700000D01*
X126950000Y-78690000D02*
X126665000Y-78405000D01*
%TO.N,~{GAME}*%
X161155000Y-93750000D02*
X161155000Y-91210000D01*
%TO.N,PHI2*%
X157873731Y-86696879D02*
X155974697Y-86696879D01*
X140070000Y-81650000D02*
X146100000Y-81650000D01*
X152777819Y-83500000D02*
X149251576Y-83500000D01*
X158500000Y-87323148D02*
X157873731Y-86696879D01*
X156750000Y-95870000D02*
X158500000Y-94120000D01*
X147401576Y-81650000D02*
X146100000Y-81650000D01*
X158500000Y-94120000D02*
X158500000Y-87323148D01*
X136825000Y-78405000D02*
X140070000Y-81650000D01*
X149251576Y-83500000D02*
X147401576Y-81650000D01*
X155974697Y-86696879D02*
X152777819Y-83500000D01*
%TO.N,Net-(U2-Pad11)*%
X141960000Y-91760000D02*
X141960000Y-91460000D01*
X140260000Y-93460000D02*
X141960000Y-91760000D01*
X139260000Y-93460000D02*
X140260000Y-93460000D01*
X136880000Y-95840000D02*
X139260000Y-93460000D01*
%TO.N,Net-(J2-Pin_1)*%
X149750000Y-99245000D02*
X149750000Y-96370000D01*
X149750000Y-96370000D02*
X149250000Y-95870000D01*
%TO.N,Net-(J3-Pin_1)*%
X154250000Y-99245000D02*
X154250000Y-95870000D01*
X132260000Y-87460000D02*
X131760000Y-86960000D01*
X154250000Y-95870000D02*
X151750000Y-95870000D01*
X143340000Y-87460000D02*
X141300000Y-87460000D01*
X141300000Y-87460000D02*
X132260000Y-87460000D01*
X151750000Y-95870000D02*
X143340000Y-87460000D01*
X131760000Y-86960000D02*
X131800000Y-86920000D01*
X131800000Y-86920000D02*
X131800000Y-83840000D01*
%TO.N,GND*%
X168775000Y-101370000D02*
X169270000Y-101370000D01*
%TD*%
M02*
